<!DOCTYPE svg PUBLIC "-//W3C//DTD SVG 1.1//EN" "http://www.w3.org/Graphics/SVG/1.1/DTD/svg11.dtd">
<svg version="1.1" id="Capa_1" xmlns="http://www.w3.org/2000/svg" xmlns:xlink="http://www.w3.org/1999/xlink" x="0px" y="0px"
	 width="79.536px" height="79.536px" viewBox="0 0 79.536 79.536" style="enable-background:new 0 0 79.536 79.536;"
	 xml:space="preserve">
<g>
	<path style="fill:#010002;" d="M0,0v79.536h79.536V0H0z M74.099,31.545H52.931V20.254h1.9h19.268V31.545L74.099,31.545z
		 M51.3,46.375H28.236V33.171H51.3V46.375z M28.236,31.545V20.254h1.898h19.265h1.896v11.291H28.236z M24.7,20.254h1.903v11.291
		H5.435V20.254H24.7z M26.608,33.171v13.204H5.435V33.171H26.608z M5.435,48.001h21.168v13.184H5.435V48.001z M28.236,48.001H51.3
		v13.184H28.236V48.001z M52.931,48.001h21.168v13.184H52.931V48.001z M52.931,46.375V33.171h21.168v13.204H52.931z M5.435,74.099
		V62.821h21.168v11.277H5.435z M28.236,74.099V62.821H51.3v11.277H28.236z M52.931,62.821h21.168v11.277H52.931V62.821z"/>
</g>
</svg>
