<svg version="1.1" xmlns="http://www.w3.org/2000/svg" xmlns:xlink="http://www.w3.org/1999/xlink" width="19" height="25" viewBox="0 0 19 25"><path id="Table" d="M18.998,24.415 C19.001,24.701 18.906,24.900 18.635,25.000 C12.527,25.000 6.419,25.000 0.312,25.000 C0.078,24.866 0.003,24.663 0.003,24.395 C0.007,16.467 0.007,8.539 0.002,0.611 C0.002,0.319 0.077,0.104 0.364,-0.000 C4.269,-0.000 8.175,-0.000 12.080,-0.000 C12.855,0.670 13.635,1.335 14.405,2.011 C15.838,3.270 17.263,4.539 18.699,5.796 C18.906,5.977 18.996,6.177 18.995,6.449 C18.992,11.561 18.993,16.673 18.993,21.785 C18.993,22.662 18.988,23.538 18.998,24.415 zM12.392,1.334 C12.392,2.867 12.392,4.332 12.392,5.816 C14.085,5.816 15.754,5.816 17.470,5.816 C15.764,4.310 14.096,2.838 12.392,1.334 zM18.154,6.665 C18.066,6.665 17.998,6.665 17.930,6.665 C16.012,6.664 14.094,6.664 12.177,6.663 C11.699,6.662 11.569,6.533 11.568,6.042 C11.565,5.244 11.567,4.445 11.567,3.647 C11.567,2.719 11.567,1.792 11.567,0.849 C7.968,0.849 4.404,0.849 0.843,0.849 C0.843,8.631 0.843,16.393 0.843,24.150 C6.627,24.150 12.392,24.150 18.154,24.150 C18.154,18.312 18.154,12.494 18.154,6.665 zM15.675,22.478 C11.565,22.478 7.452,22.478 3.314,22.478 C3.314,17.764 3.314,13.071 3.314,8.356 C7.434,8.356 11.546,8.356 15.675,8.356 C15.675,13.059 15.675,17.758 15.675,22.478 zM8.278,21.649 C10.487,21.649 12.674,21.649 14.854,21.649 C14.854,20.814 14.854,20.001 14.854,19.176 C12.656,19.176 10.475,19.176 8.278,19.176 C8.278,20.017 8.278,20.835 8.278,21.649 zM4.143,18.320 C5.245,18.320 6.331,18.320 7.427,18.320 C7.427,17.490 7.427,16.679 7.427,15.846 C6.319,15.846 5.233,15.846 4.143,15.846 C4.143,16.680 4.143,17.499 4.143,18.320 zM4.144,14.988 C5.246,14.988 6.332,14.988 7.422,14.988 C7.422,14.153 7.422,13.335 7.422,12.506 C6.326,12.506 5.246,12.506 4.144,12.506 C4.144,13.347 4.144,14.165 4.144,14.988 zM7.429,9.183 C6.316,9.183 5.231,9.183 4.147,9.183 C4.147,10.020 4.147,10.838 4.147,11.652 C5.251,11.652 6.337,11.652 7.429,11.652 C7.429,10.822 7.429,10.010 7.429,9.183 zM7.429,19.180 C6.317,19.180 5.231,19.180 4.147,19.180 C4.147,20.016 4.147,20.833 4.147,21.652 C5.251,21.652 6.336,21.652 7.429,21.652 C7.429,20.821 7.429,20.010 7.429,19.180 zM8.266,18.318 C10.481,18.318 12.667,18.318 14.851,18.318 C14.851,17.480 14.851,16.661 14.851,15.848 C12.645,15.848 10.458,15.848 8.266,15.848 C8.266,16.679 8.266,17.492 8.266,18.318 zM14.861,9.182 C12.648,9.182 10.462,9.182 8.276,9.182 C8.276,10.020 8.276,10.838 8.276,11.653 C10.481,11.653 12.667,11.653 14.861,11.653 C14.861,10.822 14.861,10.010 14.861,9.182 zM14.865,12.518 C12.663,12.518 10.465,12.518 8.278,12.518 C8.278,13.358 8.278,14.177 8.278,14.981 C10.486,14.981 12.672,14.981 14.865,14.981 C14.865,14.153 14.865,13.347 14.865,12.518 z" fill="#757575" /></svg>