<?xml version="1.0" encoding="iso-8859-1"?>
<!-- Generator: Adobe Illustrator 16.0.0, SVG Export Plug-In . SVG Version: 6.00 Build 0)  -->
<!DOCTYPE svg PUBLIC "-//W3C//DTD SVG 1.1//EN" "http://www.w3.org/Graphics/SVG/1.1/DTD/svg11.dtd">
<svg version="1.1" id="Capa_1" xmlns="http://www.w3.org/2000/svg" xmlns:xlink="http://www.w3.org/1999/xlink" x="0px" y="0px"
	 width="512px" height="512px" viewBox="0 0 512 512" style="enable-background:new 0 0 512 512;" xml:space="preserve">
<g>
	<path d="M256,0c-79.531,0-144,78.813-144,176c0,17.688,14.313,32,32,32h48v112v32l32,32l-32,32l32,32l-32,32l32,32h64l32-32V208h48
		c17.688,0,32-14.313,32-32C400,78.813,335.531,0,256,0z M296,440c0,4.406-3.594,8-8,8s-8-3.594-8-8V232c0-4.438,3.594-8,8-8
		s8,3.563,8,8V440z M325.438,112.063C323.656,112.688,321.812,113,320,113c-6.531,0-12.688-4.063-15.031-10.563
		C296.938,80.313,276.312,64.156,255.875,64c-19.875,1.031-40.438,15.344-48.938,37.688c-3.125,8.25-12.375,12.406-20.625,9.25
		c-8.25-3.125-12.406-12.375-9.25-20.625C190.125,55.906,222.375,32,255.594,32c0.156,0,0.344,0,0.531,0
		c33.844,0.25,66.312,24.75,78.906,59.563C338.062,99.875,333.75,109.031,325.438,112.063z"/>
</g>
</svg>
