<svg width="18" height="13" viewBox="0 0 18 13" fill="none" xmlns="http://www.w3.org/2000/svg">
<path d="M9.00243 3.49544C8.40925 3.49544 7.82939 3.67166 7.33617 4.0018C6.84296 4.33195 6.45855 4.8012 6.23154 5.35021C6.00454 5.89922 5.94515 6.50333 6.06087 7.08616C6.1766 7.66899 6.46224 8.20435 6.88169 8.62454C7.30113 9.04474 7.83553 9.33089 8.41732 9.44682C8.9991 9.56275 9.60214 9.50325 10.1502 9.27585C10.6982 9.04844 11.1666 8.66334 11.4962 8.16924C11.8257 7.67514 12.0016 7.09424 12.0016 6.5C12.0016 5.70314 11.6856 4.93892 11.1232 4.37546C10.5607 3.812 9.79786 3.49544 9.00243 3.49544ZM9.00243 8.30273C8.64652 8.30273 8.2986 8.197 8.00268 7.99892C7.70675 7.80083 7.4761 7.51928 7.3399 7.18988C7.2037 6.86047 7.16806 6.498 7.2375 6.1483C7.30693 5.79861 7.47832 5.47739 7.72998 5.22527C7.98165 4.97316 8.30229 4.80146 8.65136 4.73191C9.00043 4.66235 9.36226 4.69805 9.69107 4.83449C10.0199 4.97094 10.3009 5.202 10.4987 5.49845C10.6964 5.79491 10.8019 6.14345 10.8019 6.5C10.8019 6.97811 10.6124 7.43665 10.2749 7.77472C9.9374 8.1128 9.47969 8.30273 9.00243 8.30273ZM14.5292 8.83905C14.2715 9.4494 13.9148 10.0129 13.4735 10.5066C13.3666 10.6224 13.2186 10.6915 13.0613 10.699C12.9041 10.7064 12.7502 10.6516 12.6329 10.5465C12.5156 10.4413 12.4443 10.2941 12.4343 10.1367C12.4244 9.97929 12.4766 9.82428 12.5797 9.70511C13.3673 8.82413 13.8028 7.68304 13.8028 6.50038C13.8028 5.31771 13.3673 4.17662 12.5797 3.29564C12.5257 3.2371 12.4839 3.16837 12.4566 3.09347C12.4294 3.01857 12.4173 2.93899 12.4211 2.85936C12.4248 2.77973 12.4444 2.70165 12.4786 2.62967C12.5127 2.55768 12.5609 2.49322 12.6202 2.44006C12.6795 2.38689 12.7487 2.34607 12.8239 2.31998C12.8991 2.29389 12.9787 2.28304 13.0581 2.28808C13.1375 2.29312 13.2152 2.31393 13.2865 2.34932C13.3578 2.3847 13.4213 2.43394 13.4735 2.49418C14.2309 3.34322 14.7322 4.39019 14.919 5.51337C15.1059 6.63655 14.9707 7.7898 14.5292 8.83905ZM4.57863 4.62891C4.22471 5.46821 4.11617 6.39099 4.26564 7.28971C4.41512 8.18844 4.81646 9.02611 5.4229 9.70511C5.52603 9.82428 5.57825 9.97929 5.5683 10.1367C5.55835 10.2941 5.48703 10.4413 5.36973 10.5465C5.25243 10.6516 5.09854 10.7064 4.94128 10.699C4.78403 10.6915 4.636 10.6224 4.52914 10.5066C3.54435 9.40537 2.99979 7.97887 2.99979 6.50038C2.99979 5.02188 3.54435 3.59538 4.52914 2.49418C4.63524 2.37515 4.78418 2.30321 4.94322 2.2942C5.10225 2.28518 5.25835 2.33982 5.37716 2.4461C5.49598 2.55238 5.56779 2.7016 5.57679 2.86092C5.58579 3.02024 5.53124 3.17661 5.42515 3.29564C5.07125 3.69005 4.78518 4.14061 4.57863 4.62891ZM18 6.5C18.0036 8.85988 17.0801 11.1264 15.4289 12.8096C15.3743 12.8681 15.3086 12.915 15.2355 12.9477C15.1625 12.9804 15.0837 12.9981 15.0038 12.9999C14.9238 13.0016 14.8444 12.9873 14.77 12.9578C14.6957 12.9283 14.6279 12.8842 14.5709 12.8281C14.5138 12.772 14.4684 12.7051 14.4376 12.6312C14.4067 12.5573 14.3909 12.4779 14.391 12.3978C14.3912 12.3177 14.4073 12.2384 14.4385 12.1647C14.4697 12.0909 14.5153 12.0241 14.5727 11.9683C16.0023 10.5091 16.8033 8.54613 16.8033 6.5015C16.8033 4.45688 16.0023 2.4939 14.5727 1.03471C14.4609 0.920963 14.3988 0.767395 14.4001 0.607794C14.4014 0.448193 14.4659 0.295632 14.5794 0.183674C14.693 0.0717155 14.8463 0.00953001 15.0056 0.0107978C15.1649 0.0120656 15.3172 0.0766828 15.4289 0.190434C17.0801 1.87361 18.0036 4.14012 18 6.5ZM3.43219 11.9668C3.48743 12.0231 3.53106 12.0898 3.56057 12.163C3.59009 12.2362 3.60493 12.3145 3.60423 12.3935C3.60353 12.4724 3.58732 12.5505 3.55652 12.6232C3.52571 12.6958 3.48092 12.7617 3.42469 12.8171C3.36847 12.8724 3.30192 12.9161 3.22884 12.9457C3.15575 12.9753 3.07757 12.9901 2.99876 12.9894C2.91994 12.9887 2.84203 12.9725 2.76949 12.9416C2.69694 12.9108 2.63116 12.8659 2.57593 12.8096C0.925011 11.1259 0 8.86011 0 6.5C0 4.13989 0.925011 1.87413 2.57593 0.190434C2.63055 0.131927 2.6963 0.084952 2.76931 0.0522723C2.84232 0.0195925 2.92112 0.00186753 3.00107 0.000139781C3.08102 -0.00158797 3.16051 0.0127162 3.23486 0.0422114C3.30921 0.0717066 3.37692 0.115797 3.43401 0.17189C3.4911 0.227984 3.53642 0.294947 3.56731 0.368842C3.59819 0.442737 3.61401 0.522073 3.61384 0.602183C3.61367 0.682294 3.59752 0.761562 3.56632 0.835325C3.53513 0.909089 3.48952 0.975859 3.43219 1.03171C2.00253 2.4909 1.20158 4.45387 1.20158 6.4985C1.20158 8.54312 2.00253 10.5061 3.43219 11.9653V11.9668Z" fill="#018536"/>
</svg>
