<svg width="20" height="19" viewBox="0 0 20 19" fill="none" xmlns="http://www.w3.org/2000/svg">
<path d="M19.7038 1.70107C19.6117 1.62927 19.5044 1.5794 19.3901 1.55524C19.2758 1.53109 19.1575 1.53328 19.0442 1.56165L13.1663 3.03088L7.26731 0.0808765C7.10295 -0.00110457 6.91468 -0.0215686 6.73654 0.0231843L0.582692 1.56165C0.416277 1.60324 0.268541 1.69927 0.162964 1.83446C0.0573861 1.96966 2.59719e-05 2.13626 0 2.3078V16.154C1.76969e-05 16.2708 0.0266722 16.3862 0.0779392 16.4912C0.129206 16.5963 0.203737 16.6882 0.295872 16.7602C0.388006 16.8321 0.49532 16.8821 0.609663 16.9063C0.724007 16.9306 0.842372 16.9284 0.955769 16.9001L6.83365 15.4309L12.7327 18.3809C12.8398 18.4337 12.9575 18.4613 13.0769 18.4616C13.1398 18.4616 13.2025 18.4539 13.2635 18.4386L19.4173 16.9001C19.5837 16.8585 19.7315 16.7625 19.837 16.6273C19.9426 16.4921 20 16.3255 20 16.154V2.3078C20 2.1908 19.9734 2.07535 19.922 1.97021C19.8707 1.86507 19.7961 1.77302 19.7038 1.70107ZM7.69231 2.01357L12.3077 4.32126V16.4482L7.69231 14.1405V2.01357ZM1.53846 2.90876L6.15385 1.75491V14.0145L1.53846 15.1684V2.90876ZM18.4615 15.553L13.8462 16.7068V4.44722L18.4615 3.29338V15.553Z" fill="#018536"/>
</svg>
