<svg width="30" height="30" viewBox="0 0 30 30" fill="none" xmlns="http://www.w3.org/2000/svg">
<path d="M5 15V23.75C5 25.1307 6.11929 26.25 7.5 26.25H22.5C23.8807 26.25 25 25.1307 25 23.75V15" stroke="#018536" stroke-width="2" stroke-linecap="round"/>
<path fill-rule="evenodd" clip-rule="evenodd" d="M11.25 10H18.75V11.25C18.75 13.3211 17.0711 15 15 15C12.9289 15 11.25 13.3211 11.25 11.25V10Z" stroke="#018536" stroke-width="2" stroke-linecap="round"/>
<path fill-rule="evenodd" clip-rule="evenodd" d="M18.75 10H25.6945C26.0012 10 26.25 10.2487 26.25 10.5555V11.25C26.25 13.3211 24.5711 15 22.5 15C20.4289 15 18.75 13.3211 18.75 11.25V10Z" stroke="#018536" stroke-width="2" stroke-linecap="round"/>
<path fill-rule="evenodd" clip-rule="evenodd" d="M3.75 10.5555C3.75 10.2487 3.99872 10 4.30555 10H11.25V11.25C11.25 13.3211 9.57106 15 7.5 15C5.42894 15 3.75 13.3211 3.75 11.25V10.5555Z" stroke="#018536" stroke-width="2" stroke-linecap="round"/>
<path fill-rule="evenodd" clip-rule="evenodd" d="M4.78702 4.26428C4.8406 3.9666 5.09967 3.75 5.40214 3.75H24.6071C24.9095 3.75 25.1686 3.9666 25.2222 4.26428L26.1222 9.26427C26.1912 9.64761 25.8966 10 25.5071 10H4.50214C4.11264 10 3.81802 9.64761 3.88702 9.26427L4.78702 4.26428Z" stroke="#018536" stroke-width="2" stroke-linecap="round"/>
<path fill-rule="evenodd" clip-rule="evenodd" d="M11.25 20C11.25 19.3096 11.8096 18.75 12.5 18.75H17.5C18.1904 18.75 18.75 19.3096 18.75 20V26.25H11.25V20Z" stroke="#018536" stroke-width="2" stroke-linecap="round"/>
</svg>
