<?xml version="1.0" encoding="iso-8859-1"?>
<!-- Generator: Adobe Illustrator 19.0.0, SVG Export Plug-In . SVG Version: 6.00 Build 0)  -->
<svg version="1.1" id="Capa_1" xmlns="http://www.w3.org/2000/svg" xmlns:xlink="http://www.w3.org/1999/xlink" x="0px" y="0px"
	 viewBox="0 0 158.789 158.789" style="enable-background:new 0 0 158.789 158.789;" xml:space="preserve">
<g>
	<path style="fill:#919191;" d="M136.402,0H22.387c-2.101,0-3.802,1.7-3.802,3.802v151.185c0,2.102,1.701,3.802,3.802,3.802h73.466
		c0.984,0,1.872-0.383,2.547-0.995l0.004,0.004l0.088-0.08c0.021-0.02,0.044-0.038,0.065-0.059l40.402-36.722l-0.008-0.009
		c0.766-0.695,1.255-1.689,1.255-2.806V3.802C140.204,1.7,138.503,0,136.402,0z M92.051,118.121v33.065H26.189V7.603h106.412
		v106.716H95.853C93.751,114.319,92.051,116.02,92.051,118.121z M126.564,121.924l-26.909,24.458v-24.458H126.564z"/>
	<rect x="42.012" y="34.483" style="fill:#919191;" width="74.765" height="7.603"/>
	<rect x="42.012" y="52.222" style="fill:#919191;" width="74.765" height="7.603"/>
	<rect x="42.012" y="70.28" style="fill:#919191;" width="74.765" height="7.603"/>
</g>
</svg>
