<svg version="1.1" id="Capa_1" xmlns="http://www.w3.org/2000/svg" xmlns:xlink="http://www.w3.org/1999/xlink" x="0px" y="0px"
	 width="512px" height="512px" viewBox="0 0 512 512" style="enable-background:new 0 0 512 512;" xml:space="preserve">
<g>
	<path fill="#919191" d="M319.889,237.946h22.105l-25.506,113.089L283.326,192.03h-53.275l-38.557,159.005L162.586,192.03h-55.697l56.546,255.94
		h54.419l38.147-151.354l34.128,151.354h50.168l64.814-255.94h-85.223V237.946L319.889,237.946z M451.717,99.715l-71.434-71.431
		C364.729,12.728,334,0,312,0H72C50,0,32,18,32,40v432c0,22,18,40,40,40h368c22,0,40-18,40-40V168
		C480,146,467.271,115.271,451.717,99.715z M429.09,122.343c1.564,1.565,3.125,3.487,4.639,5.657H352V46.272
		c2.17,1.515,4.092,3.075,5.656,4.64L429.09,122.343z M448,472c0,4.336-3.664,8-8,8H72c-4.336,0-8-3.664-8-8V40c0-4.336,3.664-8,8-8
		h240c2.416,0,5.127,0.305,8,0.852V160h127.148c0.547,2.873,0.852,5.583,0.852,8V472z"/>
</g>
</svg>
