<?xml version="1.0" standalone="no"?>
  <!DOCTYPE svg PUBLIC "-//W3C//DTD SVG 1.1//EN" "http://www.w3.org/Graphics/SVG/1.1/DTD/svg11.dtd" >
  <svg>
  <metadata>
  Created by font-carrier
  </metadata>
  <defs>
  <font id="GoodVibesPro" horiz-adv-x="1830" vert-adv-y="1830" >
    <font-face
      
      font-family="Good Vibes Pro"
      
      font-weight="400"
      
      font-stretch="normal"
      
      units-per-em="1000"
      
      ascent="627"
      
      descent="-287"
      
    />
      <missing-glyph />

      

      
      <glyph glyph-name="unic6" unicode="&#xc6;" d="M1297 219Q1328 204 1341 182.50Q1354 161 1351 135.50Q1348 110 1329 82Q1310 54 1277 26Q1240-5 1189.50-31Q1139-57 1080-75.50Q1021-94 956-104Q891-114 825-114Q721-114 649.50-87Q578-60 537-17Q496 26 486 79.50Q476 133 495 186Q474 161 445.50 131Q417 101 383.50 71.50Q350 42 313 16Q276-10 238-26.50Q200-43 162.50-46.50Q125-50 90-35Q54-20 36 19Q18 58 18.50 112Q19 166 37.50 231Q56 296 94 364Q113 398 134.50 430Q156 462 182 491Q152 505 126.50 522Q101 539 82 560Q71 572 65.50 589Q60 606 59 622.50Q58 639 61.50 653Q65 667 73 673Q82 685 90.50 678.50Q99 672 91 654Q81 631 88 613Q95 595 112 575Q144 538 200 512Q247 564 302 611.50Q357 659 418.50 695Q480 731 547.50 752Q615 773 688 773Q736 773 772 759.50Q808 746 830 723Q868 745 911.50 762Q955 779 999.50 789Q1044 799 1086.50 802.50Q1129 806 1165 802Q1228 795 1267 776Q1306 757 1323.50 731.50Q1341 706 1338.50 676.50Q1336 647 1315 620Q1294 593 1256 570.50Q1218 548 1165 536Q1142 531 1132 532.50Q1122 534 1122.50 538.50Q1123 543 1133 548Q1143 553 1161 555Q1185 557 1208.50 573.50Q1232 590 1248.50 612.50Q1265 635 1272 662Q1279 689 1271.50 712.50Q1264 736 1238 753.50Q1212 771 1163 776Q1123 780 1081 775.50Q1039 771 998 759Q957 747 919.50 729Q882 711 852 687Q860 666 860 646Q860 615 839.50 579.50Q819 544 771 513Q778 483 799 465.50Q820 448 847.50 437Q875 426 904.50 420Q934 414 958 407Q982 400 996.50 390.50Q1011 381 1009 364Q1005 348 980 346.50Q955 345 916 346Q877 347 828.50 346Q780 345 731 331Q676 316 636.50 278.50Q597 241 577.50 194.50Q558 148 560 97.50Q562 47 590.50 5.50Q619-36 677-63Q735-90 827-90Q888-90 948.50-77.50Q1009-65 1063-44.50Q1117-24 1163 2Q1209 28 1241 55Q1268 78 1287 102.50Q1306 127 1313.50 148.50Q1321 170 1315 185.50Q1309 201 1287 206Q1268 210 1262 215.50Q1256 221 1259.50 224Q1263 227 1273 226.50Q1283 226 1297 219M819 657Q798 634 784.50 608.50Q771 583 769 554L768 550Q819 596 819 657M803 706Q787 726 758 736.50Q729 747 691 747Q621 747 561 725.50Q501 704 449 668.50Q397 633 351 586.50Q305 540 263 490Q321 471 387.50 467Q454 463 549 471Q591 474 627 482.50Q663 491 693 503Q691 509 690 515Q689 521 689 528Q690 582 721 626.50Q752 671 803 706M829 394Q795 405 759.50 427.50Q724 450 704 480Q673 469 634.50 460.50Q596 452 549 447Q464 439 391 443Q318 447 247 470Q233 451 214 421.50Q195 392 174.50 358Q154 324 134.50 287.50Q115 251 102 218Q64 122 71 65.50Q78 9 115.50-9Q153-27 213.50-6.50Q274 14 343 71Q382 104 420 143.50Q458 183 492.50 224.50Q527 266 556 307.50Q585 349 605 386Q628 429 648 439Q668 449 678.50 439Q689 429 686.50 405.50Q684 382 662 358Q661 356 657 350Q685 364 723 375Q749 383 776 387.50Q803 392 829 394Z"  horiz-adv-x="1373" vert-adv-y="1000"  />

      
      <glyph glyph-name="unic1" unicode="&#xc1;" d="M860 646Q860 619 844 587Q828 555 791.50 526.50Q755 498 695.50 476.50Q636 455 549 447Q464 439 391 443Q318 447 247 470Q233 451 214 421.50Q195 392 174.50 358Q154 324 134.50 287.50Q115 251 102 218Q64 122 71 65.50Q78 9 115.50-9Q153-27 213.50-6.50Q274 14 343 71Q382 104 420 143.50Q458 183 492.50 224.50Q527 266 556 307.50Q585 349 605 386Q628 429 648 439Q668 449 678.50 439Q689 429 686.50 405.50Q684 382 662 358Q641 334 620.50 303Q600 272 582.50 237Q565 202 551.50 164.50Q538 127 531 90Q519 27 529.50-2Q540-31 563-33Q586-35 617-14Q648 7 678 44Q701 74 724.50 111Q748 148 765 186Q772 200 781 200Q790 200 782 182Q775 167 765 147Q755 127 742.50 105.50Q730 84 716.50 62Q703 40 689 22Q676 5 659.50-10.50Q643-26 624-38Q605-50 584-57Q563-64 542-64Q514-64 497-49Q480-34 472-10.50Q464 13 463 42Q462 71 467 99.50Q472 128 481 152.50Q490 177 501 192Q481 168 452 137.50Q423 107 389.50 76.50Q356 46 318 19Q280-8 241.50-25Q203-42 164-46Q125-50 90-35Q54-20 36 19Q18 58 18.50 112Q19 166 37.50 231Q56 296 94 364Q113 398 134.50 430Q156 462 182 491Q152 505 126.50 522Q101 539 82 560Q71 572 65.50 589Q60 606 59 622.50Q58 639 61.50 653Q65 667 73 673Q82 685 90.50 678.50Q99 672 91 654Q81 631 88 613Q95 595 112 575Q144 538 200 512Q247 564 302 611.50Q357 659 418.50 695Q480 731 547.50 752Q615 773 688 773Q769 773 814.50 737.50Q860 702 860 646M819 658Q819 703 782.50 725Q746 747 691 747Q621 747 561 725.50Q501 704 449 668.50Q397 633 351 586.50Q305 540 263 490Q321 471 387.50 467Q454 463 549 471Q611 476 661 492Q711 508 746 532.50Q781 557 800 589Q819 621 819 658M891 904Q889 900 875 891.50Q861 883 840.50 873Q820 863 797 852Q774 841 754 832.50Q734 824 720 819Q706 814 704 815Q695 820 701 828Q702 831 719.50 844Q737 857 758 872Q779 887 798.50 900.50Q818 914 824 919Q836 928 851.50 933.50Q867 939 882 931Q890 927 892.50 919.50Q895 912 891 904Z"  horiz-adv-x="712" vert-adv-y="1000"  />

      
      <glyph glyph-name="uni0102" unicode="&#x0102;" d="M860 646Q860 619 844 587Q828 555 791.50 526.50Q755 498 695.50 476.50Q636 455 549 447Q464 439 391 443Q318 447 247 470Q233 451 214 421.50Q195 392 174.50 358Q154 324 134.50 287.50Q115 251 102 218Q64 122 71 65.50Q78 9 115.50-9Q153-27 213.50-6.50Q274 14 343 71Q382 104 420 143.50Q458 183 492.50 224.50Q527 266 556 307.50Q585 349 605 386Q628 429 648 439Q668 449 678.50 439Q689 429 686.50 405.50Q684 382 662 358Q641 334 620.50 303Q600 272 582.50 237Q565 202 551.50 164.50Q538 127 531 90Q519 27 529.50-2Q540-31 563-33Q586-35 617-14Q648 7 678 44Q701 74 724.50 111Q748 148 765 186Q772 200 781 200Q790 200 782 182Q775 167 765 147Q755 127 742.50 105.50Q730 84 716.50 62Q703 40 689 22Q676 5 659.50-10.50Q643-26 624-38Q605-50 584-57Q563-64 542-64Q514-64 497-49Q480-34 472-10.50Q464 13 463 42Q462 71 467 99.50Q472 128 481 152.50Q490 177 501 192Q481 168 452 137.50Q423 107 389.50 76.50Q356 46 318 19Q280-8 241.50-25Q203-42 164-46Q125-50 90-35Q54-20 36 19Q18 58 18.50 112Q19 166 37.50 231Q56 296 94 364Q113 398 134.50 430Q156 462 182 491Q152 505 126.50 522Q101 539 82 560Q71 572 65.50 589Q60 606 59 622.50Q58 639 61.50 653Q65 667 73 673Q82 685 90.50 678.50Q99 672 91 654Q81 631 88 613Q95 595 112 575Q144 538 200 512Q247 564 302 611.50Q357 659 418.50 695Q480 731 547.50 752Q615 773 688 773Q769 773 814.50 737.50Q860 702 860 646M819 658Q819 703 782.50 725Q746 747 691 747Q621 747 561 725.50Q501 704 449 668.50Q397 633 351 586.50Q305 540 263 490Q321 471 387.50 467Q454 463 549 471Q611 476 661 492Q711 508 746 532.50Q781 557 800 589Q819 621 819 658M845 922Q852 930 860.50 929.50Q869 929 867 921Q849 881 812.50 858Q776 835 728 835Q715 835 700.50 838Q686 841 673 847.50Q660 854 650.50 864Q641 874 639 888Q634 914 640 923.50Q646 933 654 933Q658 933 660 929Q662 925 664.50 919Q667 913 670 906.50Q673 900 679 894Q695 879 710.50 874Q726 869 748 869Q769 869 783.50 873Q798 877 808.50 884Q819 891 827.50 900.50Q836 910 845 922Z"  horiz-adv-x="712" vert-adv-y="1000"  />

      
      <glyph glyph-name="unic2" unicode="&#xc2;" d="M860 646Q860 619 844 587Q828 555 791.50 526.50Q755 498 695.50 476.50Q636 455 549 447Q464 439 391 443Q318 447 247 470Q233 451 214 421.50Q195 392 174.50 358Q154 324 134.50 287.50Q115 251 102 218Q64 122 71 65.50Q78 9 115.50-9Q153-27 213.50-6.50Q274 14 343 71Q382 104 420 143.50Q458 183 492.50 224.50Q527 266 556 307.50Q585 349 605 386Q628 429 648 439Q668 449 678.50 439Q689 429 686.50 405.50Q684 382 662 358Q641 334 620.50 303Q600 272 582.50 237Q565 202 551.50 164.50Q538 127 531 90Q519 27 529.50-2Q540-31 563-33Q586-35 617-14Q648 7 678 44Q701 74 724.50 111Q748 148 765 186Q772 200 781 200Q790 200 782 182Q775 167 765 147Q755 127 742.50 105.50Q730 84 716.50 62Q703 40 689 22Q676 5 659.50-10.50Q643-26 624-38Q605-50 584-57Q563-64 542-64Q514-64 497-49Q480-34 472-10.50Q464 13 463 42Q462 71 467 99.50Q472 128 481 152.50Q490 177 501 192Q481 168 452 137.50Q423 107 389.50 76.50Q356 46 318 19Q280-8 241.50-25Q203-42 164-46Q125-50 90-35Q54-20 36 19Q18 58 18.50 112Q19 166 37.50 231Q56 296 94 364Q113 398 134.50 430Q156 462 182 491Q152 505 126.50 522Q101 539 82 560Q71 572 65.50 589Q60 606 59 622.50Q58 639 61.50 653Q65 667 73 673Q82 685 90.50 678.50Q99 672 91 654Q81 631 88 613Q95 595 112 575Q144 538 200 512Q247 564 302 611.50Q357 659 418.50 695Q480 731 547.50 752Q615 773 688 773Q769 773 814.50 737.50Q860 702 860 646M819 658Q819 703 782.50 725Q746 747 691 747Q621 747 561 725.50Q501 704 449 668.50Q397 633 351 586.50Q305 540 263 490Q321 471 387.50 467Q454 463 549 471Q611 476 661 492Q711 508 746 532.50Q781 557 800 589Q819 621 819 658M807 811Q810 804 800 805Q790 806 787 811L741 882Q707 864 680 849Q657 836 635.50 824.50Q614 813 609 811Q605 808 599.50 806.50Q594 805 589.50 805.50Q585 806 583 807.50Q581 809 584 811L733 917Q744 918 752 919Q759 920 764.50 919.50Q770 919 771 917L807 811Z"  horiz-adv-x="712" vert-adv-y="1000"  />

      
      <glyph glyph-name="unic4" unicode="&#xc4;" d="M860 646Q860 619 844 587Q828 555 791.50 526.50Q755 498 695.50 476.50Q636 455 549 447Q464 439 391 443Q318 447 247 470Q233 451 214 421.50Q195 392 174.50 358Q154 324 134.50 287.50Q115 251 102 218Q64 122 71 65.50Q78 9 115.50-9Q153-27 213.50-6.50Q274 14 343 71Q382 104 420 143.50Q458 183 492.50 224.50Q527 266 556 307.50Q585 349 605 386Q628 429 648 439Q668 449 678.50 439Q689 429 686.50 405.50Q684 382 662 358Q641 334 620.50 303Q600 272 582.50 237Q565 202 551.50 164.50Q538 127 531 90Q519 27 529.50-2Q540-31 563-33Q586-35 617-14Q648 7 678 44Q701 74 724.50 111Q748 148 765 186Q772 200 781 200Q790 200 782 182Q775 167 765 147Q755 127 742.50 105.50Q730 84 716.50 62Q703 40 689 22Q676 5 659.50-10.50Q643-26 624-38Q605-50 584-57Q563-64 542-64Q514-64 497-49Q480-34 472-10.50Q464 13 463 42Q462 71 467 99.50Q472 128 481 152.50Q490 177 501 192Q481 168 452 137.50Q423 107 389.50 76.50Q356 46 318 19Q280-8 241.50-25Q203-42 164-46Q125-50 90-35Q54-20 36 19Q18 58 18.50 112Q19 166 37.50 231Q56 296 94 364Q113 398 134.50 430Q156 462 182 491Q152 505 126.50 522Q101 539 82 560Q71 572 65.50 589Q60 606 59 622.50Q58 639 61.50 653Q65 667 73 673Q82 685 90.50 678.50Q99 672 91 654Q81 631 88 613Q95 595 112 575Q144 538 200 512Q247 564 302 611.50Q357 659 418.50 695Q480 731 547.50 752Q615 773 688 773Q769 773 814.50 737.50Q860 702 860 646M819 658Q819 703 782.50 725Q746 747 691 747Q621 747 561 725.50Q501 704 449 668.50Q397 633 351 586.50Q305 540 263 490Q321 471 387.50 467Q454 463 549 471Q611 476 661 492Q711 508 746 532.50Q781 557 800 589Q819 621 819 658M835 836Q835 822 826 812.50Q817 803 803 803Q789 803 779 812Q769 821 769 836Q769 850 778 859.50Q787 869 801 869Q815 869 825 860Q835 851 835 836M706 836Q706 822 697 812.50Q688 803 674 803Q660 803 650 812Q640 821 640 836Q640 850 649 859.50Q658 869 672 869Q686 869 696 860Q706 851 706 836Z"  horiz-adv-x="712" vert-adv-y="1000"  />

      
      <glyph glyph-name="unic0" unicode="&#xc0;" d="M860 646Q860 619 844 587Q828 555 791.50 526.50Q755 498 695.50 476.50Q636 455 549 447Q464 439 391 443Q318 447 247 470Q233 451 214 421.50Q195 392 174.50 358Q154 324 134.50 287.50Q115 251 102 218Q64 122 71 65.50Q78 9 115.50-9Q153-27 213.50-6.50Q274 14 343 71Q382 104 420 143.50Q458 183 492.50 224.50Q527 266 556 307.50Q585 349 605 386Q628 429 648 439Q668 449 678.50 439Q689 429 686.50 405.50Q684 382 662 358Q641 334 620.50 303Q600 272 582.50 237Q565 202 551.50 164.50Q538 127 531 90Q519 27 529.50-2Q540-31 563-33Q586-35 617-14Q648 7 678 44Q701 74 724.50 111Q748 148 765 186Q772 200 781 200Q790 200 782 182Q775 167 765 147Q755 127 742.50 105.50Q730 84 716.50 62Q703 40 689 22Q676 5 659.50-10.50Q643-26 624-38Q605-50 584-57Q563-64 542-64Q514-64 497-49Q480-34 472-10.50Q464 13 463 42Q462 71 467 99.50Q472 128 481 152.50Q490 177 501 192Q481 168 452 137.50Q423 107 389.50 76.50Q356 46 318 19Q280-8 241.50-25Q203-42 164-46Q125-50 90-35Q54-20 36 19Q18 58 18.50 112Q19 166 37.50 231Q56 296 94 364Q113 398 134.50 430Q156 462 182 491Q152 505 126.50 522Q101 539 82 560Q71 572 65.50 589Q60 606 59 622.50Q58 639 61.50 653Q65 667 73 673Q82 685 90.50 678.50Q99 672 91 654Q81 631 88 613Q95 595 112 575Q144 538 200 512Q247 564 302 611.50Q357 659 418.50 695Q480 731 547.50 752Q615 773 688 773Q769 773 814.50 737.50Q860 702 860 646M819 658Q819 703 782.50 725Q746 747 691 747Q621 747 561 725.50Q501 704 449 668.50Q397 633 351 586.50Q305 540 263 490Q321 471 387.50 467Q454 463 549 471Q611 476 661 492Q711 508 746 532.50Q781 557 800 589Q819 621 819 658M789 811Q789 802 779 802Q776 802 756.50 811.50Q737 821 714 833Q691 845 670 856.50Q649 868 642 871Q628 878 616.50 888.50Q605 899 605 916Q605 925 610.50 931Q616 937 624 937Q629 937 643 928Q657 919 675.50 905.50Q694 892 714 876.50Q734 861 750.50 847Q767 833 778 823Q789 813 789 811Z"  horiz-adv-x="712" vert-adv-y="1000"  />

      
      <glyph glyph-name="uni0100" unicode="&#x0100;" d="M860 646Q860 619 844 587Q828 555 791.50 526.50Q755 498 695.50 476.50Q636 455 549 447Q464 439 391 443Q318 447 247 470Q233 451 214 421.50Q195 392 174.50 358Q154 324 134.50 287.50Q115 251 102 218Q64 122 71 65.50Q78 9 115.50-9Q153-27 213.50-6.50Q274 14 343 71Q382 104 420 143.50Q458 183 492.50 224.50Q527 266 556 307.50Q585 349 605 386Q628 429 648 439Q668 449 678.50 439Q689 429 686.50 405.50Q684 382 662 358Q641 334 620.50 303Q600 272 582.50 237Q565 202 551.50 164.50Q538 127 531 90Q519 27 529.50-2Q540-31 563-33Q586-35 617-14Q648 7 678 44Q701 74 724.50 111Q748 148 765 186Q772 200 781 200Q790 200 782 182Q775 167 765 147Q755 127 742.50 105.50Q730 84 716.50 62Q703 40 689 22Q676 5 659.50-10.50Q643-26 624-38Q605-50 584-57Q563-64 542-64Q514-64 497-49Q480-34 472-10.50Q464 13 463 42Q462 71 467 99.50Q472 128 481 152.50Q490 177 501 192Q481 168 452 137.50Q423 107 389.50 76.50Q356 46 318 19Q280-8 241.50-25Q203-42 164-46Q125-50 90-35Q54-20 36 19Q18 58 18.50 112Q19 166 37.50 231Q56 296 94 364Q113 398 134.50 430Q156 462 182 491Q152 505 126.50 522Q101 539 82 560Q71 572 65.50 589Q60 606 59 622.50Q58 639 61.50 653Q65 667 73 673Q82 685 90.50 678.50Q99 672 91 654Q81 631 88 613Q95 595 112 575Q144 538 200 512Q247 564 302 611.50Q357 659 418.50 695Q480 731 547.50 752Q615 773 688 773Q769 773 814.50 737.50Q860 702 860 646M819 658Q819 703 782.50 725Q746 747 691 747Q621 747 561 725.50Q501 704 449 668.50Q397 633 351 586.50Q305 540 263 490Q321 471 387.50 467Q454 463 549 471Q611 476 661 492Q711 508 746 532.50Q781 557 800 589Q819 621 819 658M825 826L611 826L629 864L842 864L825 826Z"  horiz-adv-x="712" vert-adv-y="1000"  />

      
      <glyph glyph-name="uni0104" unicode="&#x0104;" d="M860 646Q860 619 844 587Q828 555 791.50 526.50Q755 498 695.50 476.50Q636 455 549 447Q464 439 391 443Q318 447 247 470Q233 451 214 421.50Q195 392 174.50 358Q154 324 134.50 287.50Q115 251 102 218Q64 122 71 65.50Q78 9 115.50-9Q153-27 213.50-6.50Q274 14 343 71Q382 104 420 143.50Q458 183 492.50 224.50Q527 266 556 307.50Q585 349 605 386Q628 429 648 439Q668 449 678.50 439Q689 429 686.50 405.50Q684 382 662 358Q641 334 620.50 303Q600 272 582.50 237Q565 202 551.50 164.50Q538 127 531 90Q519 27 529.50-2Q540-31 563-33Q586-35 617-14Q648 7 678 44Q701 74 724.50 111Q748 148 765 186Q772 200 781 200Q790 200 782 182Q775 167 765 147Q755 127 742.50 105.50Q730 84 716.50 62Q703 40 689 22Q676 5 659.50-10.50Q643-26 624-38Q605-50 584-57Q563-64 542-64Q514-64 497-49Q480-34 472-10.50Q464 13 463 42Q462 71 467 99.50Q472 128 481 152.50Q490 177 501 192Q481 168 452 137.50Q423 107 389.50 76.50Q356 46 318 19Q280-8 241.50-25Q203-42 164-46Q125-50 90-35Q54-20 36 19Q18 58 18.50 112Q19 166 37.50 231Q56 296 94 364Q113 398 134.50 430Q156 462 182 491Q152 505 126.50 522Q101 539 82 560Q71 572 65.50 589Q60 606 59 622.50Q58 639 61.50 653Q65 667 73 673Q82 685 90.50 678.50Q99 672 91 654Q81 631 88 613Q95 595 112 575Q144 538 200 512Q247 564 302 611.50Q357 659 418.50 695Q480 731 547.50 752Q615 773 688 773Q769 773 814.50 737.50Q860 702 860 646M819 658Q819 703 782.50 725Q746 747 691 747Q621 747 561 725.50Q501 704 449 668.50Q397 633 351 586.50Q305 540 263 490Q321 471 387.50 467Q454 463 549 471Q611 476 661 492Q711 508 746 532.50Q781 557 800 589Q819 621 819 658M650-26Q630-42 609.50-63Q589-84 571.50-106Q554-128 543-150Q532-172 531-189Q531-203 537-212.50Q543-222 560-222Q574-222 587.50-212Q601-202 611-192Q613-190 618-189.50Q623-189 621-196Q619-204 611.50-213.50Q604-223 591-231.50Q578-240 561.50-246Q545-252 526-252Q507-252 493.50-241Q480-230 481-207Q482-184 500.50-154Q519-124 545-96Q571-68 598.50-46Q626-24 644-16Q647-16 649.50-16Q652-16 650-26Z"  horiz-adv-x="712" vert-adv-y="1000"  />

      
      <glyph glyph-name="unic5" unicode="&#xc5;" d="M860 646Q860 619 844 587Q828 555 791.50 526.50Q755 498 695.50 476.50Q636 455 549 447Q464 439 391 443Q318 447 247 470Q233 451 214 421.50Q195 392 174.50 358Q154 324 134.50 287.50Q115 251 102 218Q64 122 71 65.50Q78 9 115.50-9Q153-27 213.50-6.50Q274 14 343 71Q382 104 420 143.50Q458 183 492.50 224.50Q527 266 556 307.50Q585 349 605 386Q628 429 648 439Q668 449 678.50 439Q689 429 686.50 405.50Q684 382 662 358Q641 334 620.50 303Q600 272 582.50 237Q565 202 551.50 164.50Q538 127 531 90Q519 27 529.50-2Q540-31 563-33Q586-35 617-14Q648 7 678 44Q701 74 724 111Q747 148 764 186Q767 193 771.50 197.50Q776 202 779 202.50Q782 203 782.50 199Q783 195 780 186Q774 171 765 152.50Q756 134 744 113.50Q732 93 718.50 72.50Q705 52 691 34Q676 14 655-5Q634-24 610-37.50Q586-51 562-57Q538-63 518-56.50Q498-50 484-29.50Q470-9 466 31Q461 72 473 116Q485 160 501 192Q481 168 452 137.50Q423 107 389.50 76.50Q356 46 318 19Q280-8 241.50-25Q203-42 164-46Q125-50 90-35Q54-20 36 19Q18 58 18.50 112Q19 166 37.50 231Q56 296 94 364Q113 398 134.50 430Q156 462 182 491Q152 505 126.50 522Q101 539 82 560Q71 572 65.50 589Q60 606 59 622.50Q58 639 61.50 653Q65 667 73 673Q82 685 90.50 678.50Q99 672 91 654Q81 631 88 613Q95 595 112 575Q144 538 200 512Q247 564 302 611.50Q357 659 418.50 695Q480 731 547.50 752Q615 773 688 773Q769 773 814.50 737.50Q860 702 860 646M819 658Q819 703 782.50 725Q746 747 691 747Q621 747 561 725.50Q501 704 449 668.50Q397 633 351 586.50Q305 540 263 490Q321 471 387.50 467Q454 463 549 471Q611 476 661 492Q711 508 746 532.50Q781 557 800 589Q819 621 819 658M754 860Q753 844 761 833.50Q769 823 782 823Q796 823 805 834.50Q814 846 816 862Q818 878 809.50 888.50Q801 899 788 898Q775 897 765.50 886.50Q756 876 754 860M719 858Q721 881 743 896.50Q765 912 792 914Q820 915 837 899.50Q854 884 852 862Q849 839 828 823Q807 807 779 806Q751 805 733.50 820.50Q716 836 719 858Z"  horiz-adv-x="712" vert-adv-y="1000"  />

      
      <glyph glyph-name="unic3" unicode="&#xc3;" d="M860 646Q860 619 844 587Q828 555 791.50 526.50Q755 498 695.50 476.50Q636 455 549 447Q464 439 391 443Q318 447 247 470Q233 451 214 421.50Q195 392 174.50 358Q154 324 134.50 287.50Q115 251 102 218Q64 122 71 65.50Q78 9 115.50-9Q153-27 213.50-6.50Q274 14 343 71Q382 104 420 143.50Q458 183 492.50 224.50Q527 266 556 307.50Q585 349 605 386Q628 429 648 439Q668 449 678.50 439Q689 429 686.50 405.50Q684 382 662 358Q641 334 620.50 303Q600 272 582.50 237Q565 202 551.50 164.50Q538 127 531 90Q519 27 529.50-2Q540-31 563-33Q586-35 617-14Q648 7 678 44Q701 74 724.50 111Q748 148 765 186Q772 200 781 200Q790 200 782 182Q775 167 765 147Q755 127 742.50 105.50Q730 84 716.50 62Q703 40 689 22Q676 5 659.50-10.50Q643-26 624-38Q605-50 584-57Q563-64 542-64Q514-64 497-49Q480-34 472-10.50Q464 13 463 42Q462 71 467 99.50Q472 128 481 152.50Q490 177 501 192Q481 168 452 137.50Q423 107 389.50 76.50Q356 46 318 19Q280-8 241.50-25Q203-42 164-46Q125-50 90-35Q54-20 36 19Q18 58 18.50 112Q19 166 37.50 231Q56 296 94 364Q113 398 134.50 430Q156 462 182 491Q152 505 126.50 522Q101 539 82 560Q71 572 65.50 589Q60 606 59 622.50Q58 639 61.50 653Q65 667 73 673Q82 685 90.50 678.50Q99 672 91 654Q81 631 88 613Q95 595 112 575Q144 538 200 512Q247 564 302 611.50Q357 659 418.50 695Q480 731 547.50 752Q615 773 688 773Q769 773 814.50 737.50Q860 702 860 646M819 658Q819 703 782.50 725Q746 747 691 747Q621 747 561 725.50Q501 704 449 668.50Q397 633 351 586.50Q305 540 263 490Q321 471 387.50 467Q454 463 549 471Q611 476 661 492Q711 508 746 532.50Q781 557 800 589Q819 621 819 658M895 900Q888 886 878.50 871.50Q869 857 856.50 845Q844 833 829 825.50Q814 818 796 820Q780 821 765 827Q750 833 735 840Q720 847 705 852.50Q690 858 675 859Q657 861 644 850.50Q631 840 623 826Q622 824 618 823Q614 822 610 822.50Q606 823 602.50 824.50Q599 826 600 828Q607 841 617 854.50Q627 868 639 879.50Q651 891 666 897.50Q681 904 698 903Q714 902 729.50 896.50Q745 891 760 885Q775 879 789.50 873.50Q804 868 819 867Q839 865 852.50 875Q866 885 874 902Q875 904 878.50 904.50Q882 905 886 904.50Q890 904 893 902.50Q896 901 895 900Z"  horiz-adv-x="712" vert-adv-y="1000"  />

      
      <glyph glyph-name="uni42" unicode="&#x42;" d="M1066 488Q1050 461 1023.50 441.50Q997 422 965.50 409.50Q934 397 901.50 391Q869 385 841 384Q866 376 895.50 363.50Q925 351 952 333.50Q979 316 1000.50 293Q1022 270 1030 242Q1043 196 1033 156.50Q1023 117 996 84Q969 51 929 26.50Q889 2 842.50-13.50Q796-29 747-35Q698-41 653-35Q558-23 495.50-5Q433 13 387 34Q329-9 265-27Q201-45 132-36Q81-30 52-8.50Q23 13 14.50 40Q6 67 16 94Q26 121 53 139.50Q80 158 123 162Q166 166 222 146Q250 135 284.50 115Q319 95 367 72Q417 120 458 191Q499 262 541 342Q583 422 631 504.50Q679 587 743 658L800 723Q716 737 617.50 735.50Q519 734 417 712Q348 697 294.50 669Q241 641 204 606.50Q167 572 147.50 534.50Q128 497 126.50 463.50Q125 430 142.50 404Q160 378 197 367Q241 353 275.50 364.50Q310 376 333.50 397Q357 418 368.50 441.50Q380 465 378 476Q378 478 381.50 480Q385 482 388.50 482Q392 482 395.50 479Q399 476 399 468L399 467Q393 430 371.50 401.50Q350 373 320 356Q290 339 255 335Q220 331 187 343Q136 361 109.50 395Q83 429 81 470Q79 511 100 556Q121 601 165 641Q209 681 275.50 711Q342 741 430 754Q535 769 635.50 766.50Q736 764 824 745Q837 756 851.50 765Q866 774 879 779Q903 789 905 782Q907 775 889 764Q879 757 870.50 749Q862 741 860 737Q924 720 974 695.50Q1024 671 1053 639.50Q1082 608 1086.50 569.50Q1091 531 1066 488M942 681Q922 691 898 698.50Q874 706 848 712Q798 643 747.50 557Q697 471 647 385Q597 299 547 220.50Q497 142 447 88Q437 78 428 69.50Q419 61 409 52Q456 32 515 16Q574 0 652-8Q717-14 772.50 2Q828 18 869 47Q910 76 934.50 114.50Q959 153 962 192Q965 231 944.50 266.50Q924 302 876 325Q847 339 815.50 349Q784 359 757.50 367.50Q731 376 712.50 383Q694 390 690 398Q690 411 701.50 414.50Q713 418 733 417.50Q753 417 779.50 414.50Q806 412 835 412Q866 412 899 426.50Q932 441 959 463.50Q986 486 1004 515Q1022 544 1023.50 573.50Q1025 603 1006.50 631Q988 659 942 681M345 53Q310 70 276 87Q242 104 197 120Q159 133 132 129.50Q105 126 89.50 112Q74 98 70.50 78.50Q67 59 75.50 40Q84 21 104 7.50Q124-6 157-8Q212-10 258.50 6.50Q305 23 345 53Z"  horiz-adv-x="1041" vert-adv-y="1000"  />

      
      <glyph glyph-name="uni43" unicode="&#x43;" d="M780 183Q764 150 748.50 122Q733 94 715 68.50Q697 43 674 20Q651-3 619-25Q581-51 535.50-70Q490-89 440.50-97Q391-105 337.50-99Q284-93 230-70Q167-43 129.50 1.50Q92 46 75 101.50Q58 157 59.50 219Q61 281 76.50 342Q92 403 119 459Q146 515 181 559Q175 582 171 610.50Q167 639 165.50 669Q164 699 166.50 729.50Q169 760 177 788Q178 794 182.50 798Q187 802 190.50 802Q194 802 196.50 797.50Q199 793 197 783Q189 735 193 684.50Q197 634 205 593Q286 698 394 744Q502 790 621 776Q694 768 743 741Q792 714 818 676.50Q844 639 849 594Q854 549 839.50 504.50Q825 460 792.50 420Q760 380 711 352Q662 324 598 312Q534 300 457 311Q379 322 313.50 361Q248 400 209 481Q200 469 183 430.50Q166 392 151 340Q136 288 128 227.50Q120 167 130 112Q140 57 172 13Q204-31 269-51Q350-75 439.50-64.50Q529-54 604-9Q637 10 660.50 32Q684 54 703 79Q722 104 737 132.50Q752 161 768 193Q774 206 781 202Q788 198 780 183M630 738Q574 746 518.50 733Q463 720 411 690Q359 660 312.50 615Q266 570 229 513Q263 427 326.50 385.50Q390 344 472 335Q562 325 629 348Q696 371 738 412.50Q780 454 796 506Q812 558 799.50 606Q787 654 745 690.50Q703 727 630 738Z"  horiz-adv-x="710" vert-adv-y="1000"  />

      
      <glyph glyph-name="uni41" unicode="&#x41;" d="M860 646Q860 619 844 587Q828 555 791.50 526.50Q755 498 695.50 476.50Q636 455 549 447Q464 439 391 443Q318 447 247 470Q233 451 214 421.50Q195 392 174.50 358Q154 324 134.50 287.50Q115 251 102 218Q64 122 71 65.50Q78 9 115.50-9Q153-27 213.50-6.50Q274 14 343 71Q382 104 420 143.50Q458 183 492.50 224.50Q527 266 556 307.50Q585 349 605 386Q628 429 648 439Q668 449 678.50 439Q689 429 686.50 405.50Q684 382 662 358Q641 334 620.50 303Q600 272 582.50 237Q565 202 551.50 164.50Q538 127 531 90Q519 27 529.50-2Q540-31 563-33Q586-35 617-14Q648 7 678 44Q701 74 724.50 111Q748 148 765 186Q772 200 781 200Q790 200 782 182Q775 167 765 147Q755 127 742.50 105.50Q730 84 716.50 62Q703 40 689 22Q676 5 659.50-10.50Q643-26 624-38Q605-50 584-57Q563-64 542-64Q514-64 497-49Q480-34 472-10.50Q464 13 463 42Q462 71 467 99.50Q472 128 481 152.50Q490 177 501 192Q481 168 452 137.50Q423 107 389.50 76.50Q356 46 318 19Q280-8 241.50-25Q203-42 164-46Q125-50 90-35Q54-20 36 19Q18 58 18.50 112Q19 166 37.50 231Q56 296 94 364Q113 398 134.50 430Q156 462 182 491Q152 505 126.50 522Q101 539 82 560Q71 572 65.50 589Q60 606 59 622.50Q58 639 61.50 653Q65 667 73 673Q82 685 90.50 678.50Q99 672 91 654Q81 631 88 613Q95 595 112 575Q144 538 200 512Q247 564 302 611.50Q357 659 418.50 695Q480 731 547.50 752Q615 773 688 773Q769 773 814.50 737.50Q860 702 860 646M819 658Q819 703 782.50 725Q746 747 691 747Q621 747 561 725.50Q501 704 449 668.50Q397 633 351 586.50Q305 540 263 490Q321 471 387.50 467Q454 463 549 471Q611 476 661 492Q711 508 746 532.50Q781 557 800 589Q819 621 819 658Z"  horiz-adv-x="712" vert-adv-y="1000"  />

      
      <glyph glyph-name="uni0106" unicode="&#x0106;" d="M780 183Q764 150 748.50 122Q733 94 715 68.50Q697 43 674 20Q651-3 619-25Q581-51 535.50-70Q490-89 440.50-97Q391-105 337.50-99Q284-93 230-70Q167-43 129.50 1.50Q92 46 75 101.50Q58 157 59.50 219Q61 281 76.50 342Q92 403 119 459Q146 515 181 559Q175 582 171 610.50Q167 639 165.50 669Q164 699 166.50 729.50Q169 760 177 788Q178 794 182.50 798Q187 802 190.50 802Q194 802 196.50 797.50Q199 793 197 783Q189 735 193 684.50Q197 634 205 593Q286 698 394 744Q502 790 621 776Q694 768 743 741Q792 714 818 676.50Q844 639 849 594Q854 549 839.50 504.50Q825 460 792.50 420Q760 380 711 352Q662 324 598 312Q534 300 457 311Q379 322 313.50 361Q248 400 209 481Q200 469 183 430.50Q166 392 151 340Q136 288 128 227.50Q120 167 130 112Q140 57 172 13Q204-31 269-51Q350-75 439.50-64.50Q529-54 604-9Q637 10 660.50 32Q684 54 703 79Q722 104 737 132.50Q752 161 768 193Q774 206 781 202Q788 198 780 183M630 738Q574 746 518.50 733Q463 720 411 690Q359 660 312.50 615Q266 570 229 513Q263 427 326.50 385.50Q390 344 472 335Q562 325 629 348Q696 371 738 412.50Q780 454 796 506Q812 558 799.50 606Q787 654 745 690.50Q703 727 630 738M825 928Q823 924 809 915.50Q795 907 774.50 897Q754 887 731 876Q708 865 688 856.50Q668 848 654 843Q640 838 638 839Q629 844 635 852Q636 855 653.50 868Q671 881 692 896Q713 911 732.50 924.50Q752 938 758 943Q770 952 785.50 957.50Q801 963 816 955Q824 951 826.50 943.50Q829 936 825 928Z"  horiz-adv-x="710" vert-adv-y="1000"  />

      
      <glyph glyph-name="uni010C" unicode="&#x010C;" d="M780 183Q764 150 748.50 122Q733 94 715 68.50Q697 43 674 20Q651-3 619-25Q581-51 535.50-70Q490-89 440.50-97Q391-105 337.50-99Q284-93 230-70Q167-43 129.50 1.50Q92 46 75 101.50Q58 157 59.50 219Q61 281 76.50 342Q92 403 119 459Q146 515 181 559Q175 582 171 610.50Q167 639 165.50 669Q164 699 166.50 729.50Q169 760 177 788Q178 794 182.50 798Q187 802 190.50 802Q194 802 196.50 797.50Q199 793 197 783Q189 735 193 684.50Q197 634 205 593Q286 698 394 744Q502 790 621 776Q694 768 743 741Q792 714 818 676.50Q844 639 849 594Q854 549 839.50 504.50Q825 460 792.50 420Q760 380 711 352Q662 324 598 312Q534 300 457 311Q379 322 313.50 361Q248 400 209 481Q200 469 183 430.50Q166 392 151 340Q136 288 128 227.50Q120 167 130 112Q140 57 172 13Q204-31 269-51Q350-75 439.50-64.50Q529-54 604-9Q637 10 660.50 32Q684 54 703 79Q722 104 737 132.50Q752 161 768 193Q774 206 781 202Q788 198 780 183M630 738Q574 746 518.50 733Q463 720 411 690Q359 660 312.50 615Q266 570 229 513Q263 427 326.50 385.50Q390 344 472 335Q562 325 629 348Q696 371 738 412.50Q780 454 796 506Q812 558 799.50 606Q787 654 745 690.50Q703 727 630 738M583 960Q580 967 590 966Q600 965 603 960L649 889Q683 907 710 922Q733 935 754.50 946Q776 957 781 960Q785 963 790.50 964.50Q796 966 800.50 965.50Q805 965 807 963.50Q809 962 806 960L657 854Q646 853 638 852Q631 851 625 851.50Q619 852 619 854L583 960Z"  horiz-adv-x="710" vert-adv-y="1000"  />

      
      <glyph glyph-name="unic7" unicode="&#xc7;" d="M780 183Q764 150 748.50 122Q733 94 715 68.50Q697 43 674 20Q651-3 619-25Q581-51 535.50-70Q490-89 440.50-97Q391-105 337.50-99Q284-93 230-70Q167-43 129.50 1.50Q92 46 75 101.50Q58 157 59.50 219Q61 281 76.50 342Q92 403 119 459Q146 515 181 559Q175 582 171 610.50Q167 639 165.50 669Q164 699 166.50 729.50Q169 760 177 788Q178 794 182.50 798Q187 802 190.50 802Q194 802 196.50 797.50Q199 793 197 783Q189 735 193 684.50Q197 634 205 593Q286 698 394 744Q502 790 621 776Q694 768 743 741Q792 714 818 676.50Q844 639 849 594Q854 549 839.50 504.50Q825 460 792.50 420Q760 380 711 352Q662 324 598 312Q534 300 457 311Q379 322 313.50 361Q248 400 209 481Q200 469 183 430.50Q166 392 151 340Q136 288 128 227.50Q120 167 130 112Q140 57 172 13Q204-31 269-51Q350-75 439.50-64.50Q529-54 604-9Q637 10 660.50 32Q684 54 703 79Q722 104 737 132.50Q752 161 768 193Q774 206 781 202Q788 198 780 183M630 738Q574 746 518.50 733Q463 720 411 690Q359 660 312.50 615Q266 570 229 513Q263 427 326.50 385.50Q390 344 472 335Q562 325 629 348Q696 371 738 412.50Q780 454 796 506Q812 558 799.50 606Q787 654 745 690.50Q703 727 630 738M490-209Q490-233 473.50-252.50Q457-272 438-285Q422-296 401-299Q380-302 362-302Q353-302 332-299.50Q311-297 289.50-292Q268-287 252-278Q236-269 236-256Q236-249 242-249Q247-249 250.50-253Q254-257 257-260Q271-274 297.50-279.50Q324-285 343-285Q355-285 368.50-283.50Q382-282 395.50-277.50Q409-273 420.50-266.50Q432-260 439-249Q445-240 449-229.50Q453-219 453-208Q453-193 446-182.50Q439-172 428-165Q417-158 404-154.50Q391-151 378-151Q364-151 352-155Q340-159 331-163.50Q322-168 316-171.50Q310-175 306-175Q299-175 293-171Q287-167 287-160Q287-155 291-151Q294-148 305.50-139Q317-130 330.50-119.50Q344-109 355-101Q366-93 368-93Q371-93 373-96Q375-99 376-101Q374-103 366.50-108Q359-113 351.50-118.50Q344-124 338-129Q332-134 332-136Q351-133 371-133Q388-133 408.50-137Q429-141 447-150Q465-159 477.50-173.50Q490-188 490-209Z"  horiz-adv-x="710" vert-adv-y="1000"  />

      
      <glyph glyph-name="uni0108" unicode="&#x0108;" d="M780 183Q764 150 748.50 122Q733 94 715 68.50Q697 43 674 20Q651-3 619-25Q581-51 535.50-70Q490-89 440.50-97Q391-105 337.50-99Q284-93 230-70Q167-43 129.50 1.50Q92 46 75 101.50Q58 157 59.50 219Q61 281 76.50 342Q92 403 119 459Q146 515 181 559Q175 582 171 610.50Q167 639 165.50 669Q164 699 166.50 729.50Q169 760 177 788Q178 794 182.50 798Q187 802 190.50 802Q194 802 196.50 797.50Q199 793 197 783Q189 735 193 684.50Q197 634 205 593Q286 698 394 744Q502 790 621 776Q694 768 743 741Q792 714 818 676.50Q844 639 849 594Q854 549 839.50 504.50Q825 460 792.50 420Q760 380 711 352Q662 324 598 312Q534 300 457 311Q379 322 313.50 361Q248 400 209 481Q200 469 183 430.50Q166 392 151 340Q136 288 128 227.50Q120 167 130 112Q140 57 172 13Q204-31 269-51Q350-75 439.50-64.50Q529-54 604-9Q637 10 660.50 32Q684 54 703 79Q722 104 737 132.50Q752 161 768 193Q774 206 781 202Q788 198 780 183M630 738Q574 746 518.50 733Q463 720 411 690Q359 660 312.50 615Q266 570 229 513Q263 427 326.50 385.50Q390 344 472 335Q562 325 629 348Q696 371 738 412.50Q780 454 796 506Q812 558 799.50 606Q787 654 745 690.50Q703 727 630 738M749 866Q752 859 742 860Q732 861 729 866L683 937Q649 919 622 904Q599 891 577.50 879.50Q556 868 551 866Q547 863 541.50 861.50Q536 860 531.50 860.50Q527 861 525 862.50Q523 864 526 866L675 972Q686 973 694 974Q701 975 706.50 974.50Q712 974 713 972L749 866Z"  horiz-adv-x="710" vert-adv-y="1000"  />

      
      <glyph glyph-name="uni010A" unicode="&#x010A;" d="M780 183Q764 150 748.50 122Q733 94 715 68.50Q697 43 674 20Q651-3 619-25Q581-51 535.50-70Q490-89 440.50-97Q391-105 337.50-99Q284-93 230-70Q167-43 129.50 1.50Q92 46 75 101.50Q58 157 59.50 219Q61 281 76.50 342Q92 403 119 459Q146 515 181 559Q175 582 171 610.50Q167 639 165.50 669Q164 699 166.50 729.50Q169 760 177 788Q178 794 182.50 798Q187 802 190.50 802Q194 802 196.50 797.50Q199 793 197 783Q189 735 193 684.50Q197 634 205 593Q286 698 394 744Q502 790 621 776Q694 768 743 741Q792 714 818 676.50Q844 639 849 594Q854 549 839.50 504.50Q825 460 792.50 420Q760 380 711 352Q662 324 598 312Q534 300 457 311Q379 322 313.50 361Q248 400 209 481Q200 469 183 430.50Q166 392 151 340Q136 288 128 227.50Q120 167 130 112Q140 57 172 13Q204-31 269-51Q350-75 439.50-64.50Q529-54 604-9Q637 10 660.50 32Q684 54 703 79Q722 104 737 132.50Q752 161 768 193Q774 206 781 202Q788 198 780 183M630 738Q574 746 518.50 733Q463 720 411 690Q359 660 312.50 615Q266 570 229 513Q263 427 326.50 385.50Q390 344 472 335Q562 325 629 348Q696 371 738 412.50Q780 454 796 506Q812 558 799.50 606Q787 654 745 690.50Q703 727 630 738M740 884Q740 864 725 849Q710 834 691 834Q682 834 675.50 839Q669 844 669 854Q669 862 673 871.50Q677 881 684 889.50Q691 898 699.50 904Q708 910 716 910Q727 910 733.50 902Q740 894 740 884Z"  horiz-adv-x="710" vert-adv-y="1000"  />

      
      <glyph glyph-name="uni44" unicode="&#x44;" d="M1023 239Q1016 169 981.50 114.50Q947 60 895 24Q843-12 778-27.50Q713-43 646-35Q597-29 557.50-21Q518-13 485.50-4Q453 5 426 15Q399 25 375 36Q320-9 258.50-27Q197-45 125-36Q74-30 45-9Q16 12 7.50 39Q-1 66 9 93.50Q19 121 46 139Q73 157 116 161Q159 165 215 146Q229 141 250 131Q271 121 293 110Q315 99 335 88.50Q355 78 367 72Q422 125 466.50 199.50Q511 274 553.50 355Q596 436 642 516.50Q688 597 747 663Q673 708 585 723.50Q497 739 403 719Q334 704 281 675.50Q228 647 192 611.50Q156 576 137 538Q118 500 117.50 465.50Q117 431 135 404.50Q153 378 190 367Q234 353 267.50 363.50Q301 374 324 394.50Q347 415 358.50 439Q370 463 371 476Q372 484 382.50 482.50Q393 481 391 467Q386 430 364.50 401.50Q343 373 313 356Q283 339 248 335Q213 331 180 343Q136 358 108.50 390.50Q81 423 73.50 463.50Q66 504 81 549Q96 594 138 634.50Q180 675 250 707Q320 739 423 754Q516 768 606.50 752Q697 736 775 694L800 723Q806 729 817.50 737.50Q829 746 842 754.50Q855 763 866.50 770Q878 777 884 779Q908 789 910 782Q912 775 894 764Q884 757 875.50 748.50Q867 740 865 737Q854 721 842 704Q830 687 818 669Q869 635 910 590.50Q951 546 978.50 491.50Q1006 437 1018 373.50Q1030 310 1023 239M960 237Q966 298 957 355Q948 412 926 462Q904 512 870 555Q836 598 794 631Q750 562 704.50 485.50Q659 409 613 336Q567 263 522.50 198.50Q478 134 437 90Q427 79 418 70.50Q409 62 399 54Q446 33 505 16.50Q564 0 645-8Q710-14 765 4Q820 22 861.50 56.50Q903 91 928.50 138Q954 185 960 237M341 52Q305 69 270 86.50Q235 104 190 120Q154 133 128.50 128.50Q103 124 88 110.50Q73 97 69.50 77Q66 57 74 39Q82 21 100.50 7Q119-7 150-8Q204-10 251.50 6Q299 22 341 52Z"  horiz-adv-x="1014" vert-adv-y="1000"  />

      
      <glyph glyph-name="uni010E" unicode="&#x010E;" d="M1023 239Q1016 169 981.50 114.50Q947 60 895 24Q843-12 778-27.50Q713-43 646-35Q597-29 557.50-21Q518-13 485.50-4Q453 5 426 15Q399 25 375 36Q320-9 258.50-27Q197-45 125-36Q74-30 45-9Q16 12 7.50 39Q-1 66 9 93.50Q19 121 46 139Q73 157 116 161Q159 165 215 146Q229 141 250 131Q271 121 293 110Q315 99 335 88.50Q355 78 367 72Q422 125 466.50 199.50Q511 274 553.50 355Q596 436 642 516.50Q688 597 747 663Q673 708 585 723.50Q497 739 403 719Q334 704 281 675.50Q228 647 192 611.50Q156 576 137 538Q118 500 117.50 465.50Q117 431 135 404.50Q153 378 190 367Q234 353 267.50 363.50Q301 374 324 394.50Q347 415 358.50 439Q370 463 371 476Q372 484 382.50 482.50Q393 481 391 467Q386 430 364.50 401.50Q343 373 313 356Q283 339 248 335Q213 331 180 343Q136 358 108.50 390.50Q81 423 73.50 463.50Q66 504 81 549Q96 594 138 634.50Q180 675 250 707Q320 739 423 754Q516 768 606.50 752Q697 736 775 694L800 723Q806 729 817.50 737.50Q829 746 842 754.50Q855 763 866.50 770Q878 777 884 779Q908 789 910 782Q912 775 894 764Q884 757 875.50 748.50Q867 740 865 737Q854 721 842 704Q830 687 818 669Q869 635 910 590.50Q951 546 978.50 491.50Q1006 437 1018 373.50Q1030 310 1023 239M960 237Q966 298 957 355Q948 412 926 462Q904 512 870 555Q836 598 794 631Q750 562 704.50 485.50Q659 409 613 336Q567 263 522.50 198.50Q478 134 437 90Q427 79 418 70.50Q409 62 399 54Q446 33 505 16.50Q564 0 645-8Q710-14 765 4Q820 22 861.50 56.50Q903 91 928.50 138Q954 185 960 237M341 52Q305 69 270 86.50Q235 104 190 120Q154 133 128.50 128.50Q103 124 88 110.50Q73 97 69.50 77Q66 57 74 39Q82 21 100.50 7Q119-7 150-8Q204-10 251.50 6Q299 22 341 52M810 926Q807 933 817 932Q827 931 830 926L876 855Q910 873 937 888Q960 901 981.50 912Q1003 923 1008 926Q1012 929 1017.50 930.50Q1023 932 1027.50 931.50Q1032 931 1034 929.50Q1036 928 1033 926L884 820Q873 819 865 818Q858 817 852 817.50Q846 818 846 820L810 926Z"  horiz-adv-x="1027" vert-adv-y="1000"  />

      
      <glyph glyph-name="uni0110" unicode="&#x0110;" d="M1023 239Q1016 169 981.50 114.50Q947 60 895 24Q843-12 778-27.50Q713-43 646-35Q597-29 557.50-21Q518-13 485.50-4Q453 5 426 15Q399 25 375 36Q320-9 258.50-27Q197-45 125-36Q74-30 45-9Q16 12 7.50 39Q-1 66 9 93.50Q19 121 46 139Q73 157 116 161Q159 165 215 146Q229 141 250 131Q271 121 293 110Q315 99 335 88.50Q355 78 367 72Q422 125 466.50 199.50Q511 274 553.50 355Q596 436 642 516.50Q688 597 747 663Q673 708 585 723.50Q497 739 403 719Q334 704 281 675.50Q228 647 192 611.50Q156 576 137 538Q118 500 117.50 465.50Q117 431 135 404.50Q153 378 190 367Q234 353 267.50 363.50Q301 374 324 394.50Q347 415 358.50 439Q370 463 371 476Q372 484 382.50 482.50Q393 481 391 467Q386 430 364.50 401.50Q343 373 313 356Q283 339 248 335Q213 331 180 343Q136 358 108.50 390.50Q81 423 73.50 463.50Q66 504 81 549Q96 594 138 634.50Q180 675 250 707Q320 739 423 754Q516 768 606.50 752Q697 736 775 694L800 723Q806 729 817.50 737.50Q829 746 842 754.50Q855 763 866.50 770Q878 777 884 779Q908 789 910 782Q912 775 894 764Q884 757 875.50 748.50Q867 740 865 737Q854 721 842 704Q830 687 818 669Q869 635 910 590.50Q951 546 978.50 491.50Q1006 437 1018 373.50Q1030 310 1023 239M960 237Q966 298 957 355Q948 412 926 462Q904 512 870 555Q836 598 794 631Q750 562 704.50 485.50Q659 409 613 336Q567 263 522.50 198.50Q478 134 437 90Q427 79 418 70.50Q409 62 399 54Q446 33 505 16.50Q564 0 645-8Q710-14 765 4Q820 22 861.50 56.50Q903 91 928.50 138Q954 185 960 237M341 52Q305 69 270 86.50Q235 104 190 120Q154 133 128.50 128.50Q103 124 88 110.50Q73 97 69.50 77Q66 57 74 39Q82 21 100.50 7Q119-7 150-8Q204-10 251.50 6Q299 22 341 52M655 288Q586 288 531 282Q476 276 431 271Q426 270 421 277.50Q416 285 414.50 294Q413 303 416.50 311Q420 319 431 319Q462 319 513 318Q564 317 651 315Q660 315 665.50 310.50Q671 306 672 301Q673 296 669 292Q665 288 655 288Z"  horiz-adv-x="1027" vert-adv-y="1000"  />

      
      <glyph glyph-name="uni0394" unicode="&#x0394;" d="M102-10Q93-10 86 2.50Q79 15 79 23Q79 24 89 41.50Q99 59 115 86.50Q131 114 151 149.50Q171 185 192.50 221.50Q214 258 234 293Q254 328 270.50 355Q287 382 297 399Q307 416 308 417Q312 426 323.50 437Q335 448 343 448Q350 448 354 444L523 64L525 55Q524 32 508.50 15.50Q493-1 476-10L102-10M131 41L456 41L318 360L131 41Z"  horiz-adv-x="580" vert-adv-y="1000"  />

      
      <glyph glyph-name="uni2206" unicode="&#x2206;" d="M102-10Q93-10 86 2.50Q79 15 79 23Q79 24 89 41.50Q99 59 115 86.50Q131 114 151 149.50Q171 185 192.50 221.50Q214 258 234 293Q254 328 270.50 355Q287 382 297 399Q307 416 308 417Q312 426 323.50 437Q335 448 343 448Q350 448 354 444L523 64L525 55Q524 32 508.50 15.50Q493-1 476-10L102-10M131 41L456 41L318 360L131 41Z"  horiz-adv-x="580" vert-adv-y="1000"  />

      
      <glyph glyph-name="uni45" unicode="&#x45;" d="M793 257Q820 243 830.50 222.50Q841 202 836 178Q831 154 811 128Q791 102 758 76Q721 47 671.50 22.50Q622-2 565.50-19Q509-36 447.50-45.50Q386-55 324-55Q223-55 157-28Q91-1 57.50 42Q24 85 22 137.50Q20 190 47 241Q74 292 129.50 335Q185 378 267 403Q320 418 368 420Q347 427 325 439.50Q303 452 285 468Q267 484 256.50 503.50Q246 523 248 545Q252 588 277 625Q302 662 340.50 692Q379 722 427.50 744.50Q476 767 526.50 781.50Q577 796 626 801Q675 806 715 802Q773 795 808.50 777Q844 759 858 735.50Q872 712 867.50 684.50Q863 657 841 631.50Q819 606 781.50 585Q744 564 694 553Q673 548 663.50 549.50Q654 551 654.50 555Q655 559 664.50 564Q674 569 691 571Q714 573 737 588Q760 603 777.50 624.50Q795 646 804 671Q813 696 807.50 718Q802 740 779.50 756.50Q757 773 711 778Q652 784 587.50 770Q523 756 467.50 727.50Q412 699 372.50 658.50Q333 618 324 570Q317 531 331 507.50Q345 484 369.50 470Q394 456 424.50 449Q455 442 480.50 435Q506 428 522 419Q538 410 534 392Q529 377 505.50 375.50Q482 374 445.50 375Q409 376 364 375Q319 374 271 361Q219 347 179 312Q139 277 116.50 233Q94 189 92 142Q90 95 114 56Q138 17 190-8Q242-33 328-33Q386-33 442-21Q498-9 548 10Q598 29 641.50 53.50Q685 78 717 103Q745 125 764.50 148Q784 171 792.50 190.50Q801 210 797 224.50Q793 239 772 244Q755 248 751.50 253Q748 258 753 261Q758 264 769.50 263.50Q781 263 793 257Z"  horiz-adv-x="815" vert-adv-y="1000"  />

      
      <glyph glyph-name="unic9" unicode="&#xc9;" d="M793 257Q820 243 830.50 222.50Q841 202 836 178Q831 154 811 128Q791 102 758 76Q721 47 671.50 22.50Q622-2 565.50-19Q509-36 447.50-45.50Q386-55 324-55Q223-55 157-28Q91-1 57.50 42Q24 85 22 137.50Q20 190 47 241Q74 292 129.50 335Q185 378 267 403Q320 418 368 420Q347 427 325 439.50Q303 452 285 468Q267 484 256.50 503.50Q246 523 248 545Q252 588 277 625Q302 662 340.50 692Q379 722 427.50 744.50Q476 767 526.50 781.50Q577 796 626 801Q675 806 715 802Q773 795 808.50 777Q844 759 858 735.50Q872 712 867.50 684.50Q863 657 841 631.50Q819 606 781.50 585Q744 564 694 553Q673 548 663.50 549.50Q654 551 654.50 555Q655 559 664.50 564Q674 569 691 571Q714 573 737 588Q760 603 777.50 624.50Q795 646 804 671Q813 696 807.50 718Q802 740 779.50 756.50Q757 773 711 778Q652 784 587.50 770Q523 756 467.50 727.50Q412 699 372.50 658.50Q333 618 324 570Q317 531 331 507.50Q345 484 369.50 470Q394 456 424.50 449Q455 442 480.50 435Q506 428 522 419Q538 410 534 392Q529 377 505.50 375.50Q482 374 445.50 375Q409 376 364 375Q319 374 271 361Q219 347 179 312Q139 277 116.50 233Q94 189 92 142Q90 95 114 56Q138 17 190-8Q242-33 328-33Q386-33 442-21Q498-9 548 10Q598 29 641.50 53.50Q685 78 717 103Q745 125 764.50 148Q784 171 792.50 190.50Q801 210 797 224.50Q793 239 772 244Q755 248 751.50 253Q748 258 753 261Q758 264 769.50 263.50Q781 263 793 257M879 937Q877 933 863 924.50Q849 916 828.50 906Q808 896 785 885Q762 874 742 865.50Q722 857 708 852Q694 847 692 848Q683 853 689 861Q690 864 707.50 877Q725 890 746 905Q767 920 786.50 933.50Q806 947 812 952Q824 961 839.50 966.50Q855 972 870 964Q878 960 880.50 952.50Q883 945 879 937Z"  horiz-adv-x="902" vert-adv-y="1000"  />

      
      <glyph glyph-name="uni011A" unicode="&#x011A;" d="M793 257Q820 243 830.50 222.50Q841 202 836 178Q831 154 811 128Q791 102 758 76Q721 47 671.50 22.50Q622-2 565.50-19Q509-36 447.50-45.50Q386-55 324-55Q223-55 157-28Q91-1 57.50 42Q24 85 22 137.50Q20 190 47 241Q74 292 129.50 335Q185 378 267 403Q320 418 368 420Q347 427 325 439.50Q303 452 285 468Q267 484 256.50 503.50Q246 523 248 545Q252 588 277 625Q302 662 340.50 692Q379 722 427.50 744.50Q476 767 526.50 781.50Q577 796 626 801Q675 806 715 802Q773 795 808.50 777Q844 759 858 735.50Q872 712 867.50 684.50Q863 657 841 631.50Q819 606 781.50 585Q744 564 694 553Q673 548 663.50 549.50Q654 551 654.50 555Q655 559 664.50 564Q674 569 691 571Q714 573 737 588Q760 603 777.50 624.50Q795 646 804 671Q813 696 807.50 718Q802 740 779.50 756.50Q757 773 711 778Q652 784 587.50 770Q523 756 467.50 727.50Q412 699 372.50 658.50Q333 618 324 570Q317 531 331 507.50Q345 484 369.50 470Q394 456 424.50 449Q455 442 480.50 435Q506 428 522 419Q538 410 534 392Q529 377 505.50 375.50Q482 374 445.50 375Q409 376 364 375Q319 374 271 361Q219 347 179 312Q139 277 116.50 233Q94 189 92 142Q90 95 114 56Q138 17 190-8Q242-33 328-33Q386-33 442-21Q498-9 548 10Q598 29 641.50 53.50Q685 78 717 103Q745 125 764.50 148Q784 171 792.50 190.50Q801 210 797 224.50Q793 239 772 244Q755 248 751.50 253Q748 258 753 261Q758 264 769.50 263.50Q781 263 793 257M650 972Q647 979 657 978Q667 977 670 972L716 901Q750 919 777 934Q800 947 821.50 958Q843 969 848 972Q852 975 857.50 976.50Q863 978 867.50 977.50Q872 977 874 975.50Q876 974 873 972L724 866Q713 865 705 864Q698 863 692 863.50Q686 864 686 866L650 972Z"  horiz-adv-x="876" vert-adv-y="1000"  />

      
      <glyph glyph-name="unica" unicode="&#xca;" d="M793 257Q820 243 830.50 222.50Q841 202 836 178Q831 154 811 128Q791 102 758 76Q721 47 671.50 22.50Q622-2 565.50-19Q509-36 447.50-45.50Q386-55 324-55Q223-55 157-28Q91-1 57.50 42Q24 85 22 137.50Q20 190 47 241Q74 292 129.50 335Q185 378 267 403Q320 418 368 420Q347 427 325 439.50Q303 452 285 468Q267 484 256.50 503.50Q246 523 248 545Q252 588 277 625Q302 662 340.50 692Q379 722 427.50 744.50Q476 767 526.50 781.50Q577 796 626 801Q675 806 715 802Q773 795 808.50 777Q844 759 858 735.50Q872 712 867.50 684.50Q863 657 841 631.50Q819 606 781.50 585Q744 564 694 553Q673 548 663.50 549.50Q654 551 654.50 555Q655 559 664.50 564Q674 569 691 571Q714 573 737 588Q760 603 777.50 624.50Q795 646 804 671Q813 696 807.50 718Q802 740 779.50 756.50Q757 773 711 778Q652 784 587.50 770Q523 756 467.50 727.50Q412 699 372.50 658.50Q333 618 324 570Q317 531 331 507.50Q345 484 369.50 470Q394 456 424.50 449Q455 442 480.50 435Q506 428 522 419Q538 410 534 392Q529 377 505.50 375.50Q482 374 445.50 375Q409 376 364 375Q319 374 271 361Q219 347 179 312Q139 277 116.50 233Q94 189 92 142Q90 95 114 56Q138 17 190-8Q242-33 328-33Q386-33 442-21Q498-9 548 10Q598 29 641.50 53.50Q685 78 717 103Q745 125 764.50 148Q784 171 792.50 190.50Q801 210 797 224.50Q793 239 772 244Q755 248 751.50 253Q748 258 753 261Q758 264 769.50 263.50Q781 263 793 257M822 842Q825 835 815 836Q805 837 802 842L756 913Q722 895 695 880Q672 867 650.50 855.50Q629 844 624 842Q620 839 614.50 837.50Q609 836 604.50 836.50Q600 837 598 838.50Q596 840 599 842L748 948Q759 949 767 950Q774 951 779.50 950.50Q785 950 786 948L822 842Z"  horiz-adv-x="902" vert-adv-y="1000"  />

      
      <glyph glyph-name="unicb" unicode="&#xcb;" d="M793 257Q820 243 830.50 222.50Q841 202 836 178Q831 154 811 128Q791 102 758 76Q721 47 671.50 22.50Q622-2 565.50-19Q509-36 447.50-45.50Q386-55 324-55Q223-55 157-28Q91-1 57.50 42Q24 85 22 137.50Q20 190 47 241Q74 292 129.50 335Q185 378 267 403Q320 418 368 420Q347 427 325 439.50Q303 452 285 468Q267 484 256.50 503.50Q246 523 248 545Q252 588 277 625Q302 662 340.50 692Q379 722 427.50 744.50Q476 767 526.50 781.50Q577 796 626 801Q675 806 715 802Q773 795 808.50 777Q844 759 858 735.50Q872 712 867.50 684.50Q863 657 841 631.50Q819 606 781.50 585Q744 564 694 553Q673 548 663.50 549.50Q654 551 654.50 555Q655 559 664.50 564Q674 569 691 571Q714 573 737 588Q760 603 777.50 624.50Q795 646 804 671Q813 696 807.50 718Q802 740 779.50 756.50Q757 773 711 778Q652 784 587.50 770Q523 756 467.50 727.50Q412 699 372.50 658.50Q333 618 324 570Q317 531 331 507.50Q345 484 369.50 470Q394 456 424.50 449Q455 442 480.50 435Q506 428 522 419Q538 410 534 392Q529 377 505.50 375.50Q482 374 445.50 375Q409 376 364 375Q319 374 271 361Q219 347 179 312Q139 277 116.50 233Q94 189 92 142Q90 95 114 56Q138 17 190-8Q242-33 328-33Q386-33 442-21Q498-9 548 10Q598 29 641.50 53.50Q685 78 717 103Q745 125 764.50 148Q784 171 792.50 190.50Q801 210 797 224.50Q793 239 772 244Q755 248 751.50 253Q748 258 753 261Q758 264 769.50 263.50Q781 263 793 257M816 886Q816 872 807 862.50Q798 853 784 853Q770 853 760 862Q750 871 750 886Q750 900 759 909.50Q768 919 782 919Q796 919 806 910Q816 901 816 886M687 886Q687 872 678 862.50Q669 853 655 853Q641 853 631 862Q621 871 621 886Q621 900 630 909.50Q639 919 653 919Q667 919 677 910Q687 901 687 886Z"  horiz-adv-x="902" vert-adv-y="1000"  />

      
      <glyph glyph-name="uni0116" unicode="&#x0116;" d="M793 257Q820 243 830.50 222.50Q841 202 836 178Q831 154 811 128Q791 102 758 76Q721 47 671.50 22.50Q622-2 565.50-19Q509-36 447.50-45.50Q386-55 324-55Q223-55 157-28Q91-1 57.50 42Q24 85 22 137.50Q20 190 47 241Q74 292 129.50 335Q185 378 267 403Q320 418 368 420Q347 427 325 439.50Q303 452 285 468Q267 484 256.50 503.50Q246 523 248 545Q252 588 277 625Q302 662 340.50 692Q379 722 427.50 744.50Q476 767 526.50 781.50Q577 796 626 801Q675 806 715 802Q773 795 808.50 777Q844 759 858 735.50Q872 712 867.50 684.50Q863 657 841 631.50Q819 606 781.50 585Q744 564 694 553Q673 548 663.50 549.50Q654 551 654.50 555Q655 559 664.50 564Q674 569 691 571Q714 573 737 588Q760 603 777.50 624.50Q795 646 804 671Q813 696 807.50 718Q802 740 779.50 756.50Q757 773 711 778Q652 784 587.50 770Q523 756 467.50 727.50Q412 699 372.50 658.50Q333 618 324 570Q317 531 331 507.50Q345 484 369.50 470Q394 456 424.50 449Q455 442 480.50 435Q506 428 522 419Q538 410 534 392Q529 377 505.50 375.50Q482 374 445.50 375Q409 376 364 375Q319 374 271 361Q219 347 179 312Q139 277 116.50 233Q94 189 92 142Q90 95 114 56Q138 17 190-8Q242-33 328-33Q386-33 442-21Q498-9 548 10Q598 29 641.50 53.50Q685 78 717 103Q745 125 764.50 148Q784 171 792.50 190.50Q801 210 797 224.50Q793 239 772 244Q755 248 751.50 253Q748 258 753 261Q758 264 769.50 263.50Q781 263 793 257M473 1070Q473 1050 458 1035Q443 1020 424 1020Q415 1020 408.50 1025Q402 1030 402 1040Q402 1048 406 1057.50Q410 1067 417 1075.50Q424 1084 432.50 1090Q441 1096 449 1096Q460 1096 466.50 1088Q473 1080 473 1070Z"  horiz-adv-x="876" vert-adv-y="1000"  />

      
      <glyph glyph-name="unic8" unicode="&#xc8;" d="M793 257Q820 243 830.50 222.50Q841 202 836 178Q831 154 811 128Q791 102 758 76Q721 47 671.50 22.50Q622-2 565.50-19Q509-36 447.50-45.50Q386-55 324-55Q223-55 157-28Q91-1 57.50 42Q24 85 22 137.50Q20 190 47 241Q74 292 129.50 335Q185 378 267 403Q320 418 368 420Q347 427 325 439.50Q303 452 285 468Q267 484 256.50 503.50Q246 523 248 545Q252 588 277 625Q302 662 340.50 692Q379 722 427.50 744.50Q476 767 526.50 781.50Q577 796 626 801Q675 806 715 802Q773 795 808.50 777Q844 759 858 735.50Q872 712 867.50 684.50Q863 657 841 631.50Q819 606 781.50 585Q744 564 694 553Q673 548 663.50 549.50Q654 551 654.50 555Q655 559 664.50 564Q674 569 691 571Q714 573 737 588Q760 603 777.50 624.50Q795 646 804 671Q813 696 807.50 718Q802 740 779.50 756.50Q757 773 711 778Q652 784 587.50 770Q523 756 467.50 727.50Q412 699 372.50 658.50Q333 618 324 570Q317 531 331 507.50Q345 484 369.50 470Q394 456 424.50 449Q455 442 480.50 435Q506 428 522 419Q538 410 534 392Q529 377 505.50 375.50Q482 374 445.50 375Q409 376 364 375Q319 374 271 361Q219 347 179 312Q139 277 116.50 233Q94 189 92 142Q90 95 114 56Q138 17 190-8Q242-33 328-33Q386-33 442-21Q498-9 548 10Q598 29 641.50 53.50Q685 78 717 103Q745 125 764.50 148Q784 171 792.50 190.50Q801 210 797 224.50Q793 239 772 244Q755 248 751.50 253Q748 258 753 261Q758 264 769.50 263.50Q781 263 793 257M799 834Q799 825 789 825Q786 825 766.50 834.50Q747 844 724 856Q701 868 680 879.50Q659 891 652 894Q638 901 626.50 911.50Q615 922 615 939Q615 948 620.50 954Q626 960 634 960Q639 960 653 951Q667 942 685.50 928.50Q704 915 724 899.50Q744 884 760.50 870Q777 856 788 846Q799 836 799 834Z"  horiz-adv-x="902" vert-adv-y="1000"  />

      
      <glyph glyph-name="uni0112" unicode="&#x0112;" d="M793 257Q820 243 830.50 222.50Q841 202 836 178Q831 154 811 128Q791 102 758 76Q721 47 671.50 22.50Q622-2 565.50-19Q509-36 447.50-45.50Q386-55 324-55Q223-55 157-28Q91-1 57.50 42Q24 85 22 137.50Q20 190 47 241Q74 292 129.50 335Q185 378 267 403Q320 418 368 420Q347 427 325 439.50Q303 452 285 468Q267 484 256.50 503.50Q246 523 248 545Q252 588 277 625Q302 662 340.50 692Q379 722 427.50 744.50Q476 767 526.50 781.50Q577 796 626 801Q675 806 715 802Q773 795 808.50 777Q844 759 858 735.50Q872 712 867.50 684.50Q863 657 841 631.50Q819 606 781.50 585Q744 564 694 553Q673 548 663.50 549.50Q654 551 654.50 555Q655 559 664.50 564Q674 569 691 571Q714 573 737 588Q760 603 777.50 624.50Q795 646 804 671Q813 696 807.50 718Q802 740 779.50 756.50Q757 773 711 778Q652 784 587.50 770Q523 756 467.50 727.50Q412 699 372.50 658.50Q333 618 324 570Q317 531 331 507.50Q345 484 369.50 470Q394 456 424.50 449Q455 442 480.50 435Q506 428 522 419Q538 410 534 392Q529 377 505.50 375.50Q482 374 445.50 375Q409 376 364 375Q319 374 271 361Q219 347 179 312Q139 277 116.50 233Q94 189 92 142Q90 95 114 56Q138 17 190-8Q242-33 328-33Q386-33 442-21Q498-9 548 10Q598 29 641.50 53.50Q685 78 717 103Q745 125 764.50 148Q784 171 792.50 190.50Q801 210 797 224.50Q793 239 772 244Q755 248 751.50 253Q748 258 753 261Q758 264 769.50 263.50Q781 263 793 257M838 854L624 854L642 892L855 892L838 854Z"  horiz-adv-x="876" vert-adv-y="1000"  />

      
      <glyph glyph-name="uni014A" unicode="&#x014A;" d="M1149 668Q1152 638 1139 577.50Q1126 517 1102.50 437.50Q1079 358 1047.50 266.50Q1016 175 981 84Q946-7 910-91Q874-175 843-240Q810-309 757.50-363Q705-417 645.50-455Q586-493 526.50-515Q467-537 419-544Q349-554 285-549.50Q221-545 166.50-528Q112-511 70.50-481Q29-451 4.50-409.50Q-20-368-25.50-316Q-31-264-12-201Q-5-177 11.50-154Q28-131 47-113.50Q66-96 84.50-85Q103-74 115-74Q131-73 127-78.50Q123-84 116-88Q104-93 87.50-107Q71-121 55-141Q39-161 26-187.50Q13-214 8-245Q-1-300 13.50-343.50Q28-387 59-419.50Q90-452 133-474Q176-496 223-507Q270-518 317-519.50Q364-521 403-512Q520-485 605.50-420Q691-355 756.50-258Q822-161 873.50-34.50Q925 92 975 241Q992 289 1009.50 345.50Q1027 402 1040.50 458.50Q1054 515 1062.50 566.50Q1071 618 1071 657Q1071 683 1060 697Q1049 711 1031.50 714.50Q1014 718 991.50 712.50Q969 707 944 694Q892 668 841 622Q790 576 745 512Q700 448 663 373.50Q626 299 596 225Q566 151 543 83Q520 15 502-36Q497-50 483-57Q469-64 454.50-64.50Q440-65 429-59.50Q418-54 420-42Q430-24 445.50 12.50Q461 49 479.50 97.50Q498 146 517 203.50Q536 261 552.50 321Q569 381 581.50 441Q594 501 600 554Q610 653 582 701.50Q554 750 504.50 761Q455 772 392.50 751Q330 730 270 690Q202 644 156.50 585.50Q111 527 87.50 466Q64 405 60.50 346.50Q57 288 72.50 242.50Q88 197 121.50 169Q155 141 205 141Q257 141 299 163.50Q341 186 369 220Q397 254 410.50 292.50Q424 331 420.50 362.50Q417 394 394.50 413Q372 432 328 426Q320 425 317.50 427Q315 429 315 432Q315 435 317.50 438Q320 441 324 442Q382 456 413.50 438Q445 420 454 384.50Q463 349 450 303.50Q437 258 404.50 217.50Q372 177 321.50 149.50Q271 122 205 122Q157 122 113 145Q69 168 39 211.50Q9 255 0 316Q-9 377 14 454Q27 497 51 537Q75 577 106.50 613Q138 649 175.50 679Q213 709 254 733Q293 756 338 771Q383 786 428 791Q473 796 515 788.50Q557 781 589.50 758Q622 735 641.50 694Q661 653 661 592Q661 534 643 475Q625 416 606 359Q592 317 589 305.50Q586 294 589 300Q592 306 599 321.50Q606 337 612 348Q635 390 663 436.50Q691 483 723 528Q771 596 825.50 653Q880 710 934 736Q967 752 1003.50 759Q1040 766 1070.50 759.50Q1101 753 1122.50 731Q1144 709 1149 668Z"  horiz-adv-x="1039" vert-adv-y="1000"  />

      
      <glyph glyph-name="uni0118" unicode="&#x0118;" d="M793 257Q820 243 830.50 222.50Q841 202 836 178Q831 154 811 128Q791 102 758 76Q721 47 671.50 22.50Q622-2 565.50-19Q509-36 447.50-45.50Q386-55 324-55Q223-55 157-28Q91-1 57.50 42Q24 85 22 137.50Q20 190 47 241Q74 292 129.50 335Q185 378 267 403Q320 418 368 420Q347 427 325 439.50Q303 452 285 468Q267 484 256.50 503.50Q246 523 248 545Q252 588 277 625Q302 662 340.50 692Q379 722 427.50 744.50Q476 767 526.50 781.50Q577 796 626 801Q675 806 715 802Q773 795 808.50 777Q844 759 858 735.50Q872 712 867.50 684.50Q863 657 841 631.50Q819 606 781.50 585Q744 564 694 553Q673 548 663.50 549.50Q654 551 654.50 555Q655 559 664.50 564Q674 569 691 571Q714 573 737 588Q760 603 777.50 624.50Q795 646 804 671Q813 696 807.50 718Q802 740 779.50 756.50Q757 773 711 778Q652 784 587.50 770Q523 756 467.50 727.50Q412 699 372.50 658.50Q333 618 324 570Q317 531 331 507.50Q345 484 369.50 470Q394 456 424.50 449Q455 442 480.50 435Q506 428 522 419Q538 410 534 392Q529 377 505.50 375.50Q482 374 445.50 375Q409 376 364 375Q319 374 271 361Q219 347 179 312Q139 277 116.50 233Q94 189 92 142Q90 95 114 56Q138 17 190-8Q242-33 328-33Q386-33 442-21Q498-9 548 10Q598 29 641.50 53.50Q685 78 717 103Q745 125 764.50 148Q784 171 792.50 190.50Q801 210 797 224.50Q793 239 772 244Q755 248 751.50 253Q748 258 753 261Q758 264 769.50 263.50Q781 263 793 257M365-53Q345-69 324.50-90Q304-111 286.50-133Q269-155 258-177Q247-199 246-216Q246-230 252-239.50Q258-249 275-249Q289-249 302.50-239Q316-229 326-219Q328-217 333-216.50Q338-216 336-223Q334-231 326.50-240.50Q319-250 306-258.50Q293-267 276.50-273Q260-279 241-279Q222-279 208.50-268Q195-257 196-234Q197-211 215.50-181Q234-151 260-123Q286-95 313.50-73Q341-51 359-43Q362-43 364.50-43Q367-43 365-53Z"  horiz-adv-x="876" vert-adv-y="1000"  />

      
      <glyph glyph-name="unid0" unicode="&#xd0;" d="M1023 239Q1016 169 981.50 114.50Q947 60 895 24Q843-12 778-27.50Q713-43 646-35Q597-29 557.50-21Q518-13 485.50-4Q453 5 426 15Q399 25 375 36Q320-9 258.50-27Q197-45 125-36Q74-30 45-9Q16 12 7.50 39Q-1 66 9 93.50Q19 121 46 139Q73 157 116 161Q159 165 215 146Q229 141 250 131Q271 121 293 110Q315 99 335 88.50Q355 78 367 72Q422 125 466.50 199.50Q511 274 553.50 355Q596 436 642 516.50Q688 597 747 663Q673 708 585 723.50Q497 739 403 719Q334 704 281 675.50Q228 647 192 611.50Q156 576 137 538Q118 500 117.50 465.50Q117 431 135 404.50Q153 378 190 367Q234 353 267.50 363.50Q301 374 324 394.50Q347 415 358.50 439Q370 463 371 476Q372 484 382.50 482.50Q393 481 391 467Q386 430 364.50 401.50Q343 373 313 356Q283 339 248 335Q213 331 180 343Q136 358 108.50 390.50Q81 423 73.50 463.50Q66 504 81 549Q96 594 138 634.50Q180 675 250 707Q320 739 423 754Q516 768 606.50 752Q697 736 775 694L800 723Q806 729 817.50 737.50Q829 746 842 754.50Q855 763 866.50 770Q878 777 884 779Q908 789 910 782Q912 775 894 764Q884 757 875.50 748.50Q867 740 865 737Q854 721 842 704Q830 687 818 669Q869 635 910 590.50Q951 546 978.50 491.50Q1006 437 1018 373.50Q1030 310 1023 239M960 237Q966 298 957 355Q948 412 926 462Q904 512 870 555Q836 598 794 631Q750 562 704.50 485.50Q659 409 613 336Q567 263 522.50 198.50Q478 134 437 90Q427 79 418 70.50Q409 62 399 54Q446 33 505 16.50Q564 0 645-8Q710-14 765 4Q820 22 861.50 56.50Q903 91 928.50 138Q954 185 960 237M341 52Q305 69 270 86.50Q235 104 190 120Q154 133 128.50 128.50Q103 124 88 110.50Q73 97 69.50 77Q66 57 74 39Q82 21 100.50 7Q119-7 150-8Q204-10 251.50 6Q299 22 341 52M655 288Q586 288 531 282Q476 276 431 271Q426 270 421 277.50Q416 285 414.50 294Q413 303 416.50 311Q420 319 431 319Q462 319 513 318Q564 317 651 315Q660 315 665.50 310.50Q671 306 672 301Q673 296 669 292Q665 288 655 288Z"  horiz-adv-x="1027" vert-adv-y="1000"  />

      
      <glyph glyph-name="uni20AC" unicode="&#x20AC;" d="M673 622Q673 606 668 582Q663 558 653 536Q643 514 627.50 498.50Q612 483 592 483Q588 483 584.50 484Q581 485 581 490Q581 491 590.50 506Q600 521 611 545Q622 569 631.50 598Q641 627 641 656Q641 688 626.50 708.50Q612 729 577 729Q515 729 459 700.50Q403 672 355.50 627Q308 582 271 528Q234 474 210 423L439 423L426 398L375 398L198 398Q192 384 190 377Q188 370 183 355L409 355L398 329L177 329Q169 298 165 267Q161 236 161 204Q161 163 169.50 125Q178 87 197.50 57.50Q217 28 248.50 10Q280-8 327-8Q367-8 409.50 13Q452 34 491 65Q530 96 563 131.50Q596 167 619 196Q625 204 628 204.50Q631 205 631.50 201Q632 197 631.50 191Q631 185 629 181Q598 136 561.50 97.50Q525 59 482 31Q439 3 389.50-12.50Q340-28 283-28Q231-28 195-11Q159 6 136 36Q113 66 102.50 107Q92 148 92 195Q92 229 97 262.50Q102 296 110 329L63 329L74 355L116 355Q121 370 122.50 377Q124 384 130 398L91 398L104 423L141 423Q163 476 202.50 535Q242 594 292.50 643.50Q343 693 402 725.50Q461 758 524 758Q555 758 582.50 749Q610 740 630 723Q650 706 661.50 680.50Q673 655 673 622Z"  horiz-adv-x="661" vert-adv-y="1000"  />

      
      <glyph glyph-name="uni46" unicode="&#x46;" d="M1386 572Q1384 557 1373.50 544Q1363 531 1346 522.50Q1329 514 1306.50 510.50Q1284 507 1259 511Q1215 518 1176 531.50Q1137 545 1105.50 558.50Q1074 572 1053 583Q1032 594 1025 597Q1001 570 981 535Q961 500 945 465Q929 430 915.50 396.50Q902 363 892 339Q915 336 941.50 334.50Q968 333 993.50 332.50Q1019 332 1042 332Q1065 332 1080 333Q1106 335 1105.50 327Q1105 319 1082 313Q1069 310 1043 308Q1017 306 987 305Q957 304 928 305Q899 306 880 308Q863 261 841.50 210.50Q820 160 791.50 111.50Q763 63 725.50 19Q688-25 638-58Q588-91 524.50-110.50Q461-130 380-130Q293-130 223-99Q153-68 110-14.50Q67 39 54 110.50Q41 182 68 264Q75 285 88 303Q101 321 116 334Q131 347 146 356Q161 365 172 368Q184 372 186.50 371Q189 370 185.50 366.50Q182 363 173 356.50Q164 350 153 342Q144 335 132.50 325.50Q121 316 110 302.50Q99 289 89.50 270Q80 251 76 226Q63 152 86.50 95.50Q110 39 154 0Q198-39 255.50-60Q313-81 368-83Q451-87 522.50-56.50Q594-26 653.50 28.50Q713 83 760.50 156Q808 229 844 311Q830 311 800.50 312.50Q771 314 738 310Q705 306 674.50 294.50Q644 283 626 258Q617 246 611.50 252.50Q606 259 610 267Q627 305 654.50 325Q682 345 715 352Q748 359 785 356.50Q822 354 858 348Q876 391 898 434.50Q920 478 941 514Q962 550 979 576Q996 602 1003 610Q939 642 872 668Q805 694 731 705Q663 715 607 703.50Q551 692 509 667Q467 642 440 608.50Q413 575 401 542Q389 509 394 480.50Q399 452 422 438Q460 414 497.50 416.50Q535 419 565 433.50Q595 448 613 467.50Q631 487 631 498Q631 506 635.50 513Q640 520 644.50 522Q649 524 650.50 519.50Q652 515 648 502Q637 466 610 441Q583 416 549.50 404.50Q516 393 479.50 395.50Q443 398 413 415Q371 439 357 478.50Q343 518 353 562.50Q363 607 395 649.50Q427 692 478 720.50Q529 749 597.50 757.50Q666 766 748 743Q831 720 900 688Q969 656 1016 627Q1020 631 1027.50 638.50Q1035 646 1045.50 652Q1056 658 1069.50 660.50Q1083 663 1100 658Q1110 655 1114 647.50Q1118 640 1118 634Q1118 628 1113 626.50Q1108 625 1100 634Q1083 641 1067 633Q1051 625 1040 615Q1057 606 1085 594.50Q1113 583 1146.50 572Q1180 561 1215 552.50Q1250 544 1281 543Q1312 542 1335 549.50Q1358 557 1368 577Q1379 601 1385 596Q1391 591 1386 572Z"  horiz-adv-x="1048" vert-adv-y="1000"  />

      
      <glyph glyph-name="uni47" unicode="&#x47;" d="M770-112Q781-115 786.50-119Q792-123 791-127Q790-131 783-132Q776-133 762-130Q745-126 719-122Q693-118 662.50-116Q632-114 599.50-113Q567-112 537-112Q505-158 462.50-197.50Q420-237 372.50-268.50Q325-300 275-323Q225-346 179-358.50Q133-371 93-373Q53-375 25-365Q-22-348-37.50-324.50Q-53-301-44.50-274.50Q-36-248-6-221Q24-194 68.50-170.50Q113-147 170-129Q227-111 289-102Q308-99 335-96.50Q362-94 391-91.50Q420-89 448.50-87.50Q477-86 501-86Q519-55 534.50-25.50Q550 4 562 33.50Q574 63 584 94Q594 125 602 160L606 177Q591 163 566 143Q541 123 508.50 103Q476 83 438 64.50Q400 46 359 35.50Q318 25 275.50 23.50Q233 22 192 36Q145 52 109 94.50Q73 137 56.50 198.50Q40 260 47.50 337Q55 414 96 499Q67 529 50 565Q33 601 30.50 639Q28 677 42.50 715.50Q57 754 92 789Q103 800 110 798.50Q117 797 105 781Q80 750 69.50 717Q59 684 61 651.50Q63 619 76 587.50Q89 556 112 529Q117 539 122.50 548.50Q128 558 134 568Q174 633 229.50 683Q285 733 348 765Q411 797 477 810Q543 823 603 814Q680 802 726 766.50Q772 731 787 685Q802 639 786.50 588Q771 537 725 494Q679 451 603 422.50Q527 394 421 393Q385 392 348 397Q311 402 277 411Q243 420 212.50 433Q182 446 158 462Q125 391 115 326Q105 261 115 208.50Q125 156 153.50 119.50Q182 83 226 69Q275 53 331 62Q387 71 436 93Q485 115 521 144.50Q557 174 568 199Q590 250 612 270.50Q634 291 651.50 291.50Q669 292 679.50 277.50Q690 263 687 244Q676 161 641 82.50Q606 4 551-86Q618-87 671.50-94Q725-101 770-112M608 784Q557 791 500.50 776Q444 761 389.50 728.50Q335 696 286 648.50Q237 601 202 543Q194 529 186 515.50Q178 502 171 488Q218 453 289 434.50Q360 416 437 424Q521 433 583.50 460Q646 487 685.50 524Q725 561 741 603Q757 645 747.50 682Q738 719 703.50 747Q669 775 608 784M485-113Q437-115 390-118.50Q343-122 301-129Q257-136 211-152Q165-168 125-188.50Q85-209 54.50-232.50Q24-256 11-277Q-2-298 6-314.50Q14-331 51-339Q73-344 106-341Q139-338 177.50-327Q216-316 257.50-296.50Q299-277 340-250.50Q381-224 418.50-189.50Q456-155 485-113Z"  horiz-adv-x="699" vert-adv-y="1000"  />

      
      <glyph glyph-name="uni011E" unicode="&#x011E;" d="M770-112Q781-115 786.50-119Q792-123 791-127Q790-131 783-132Q776-133 762-130Q745-126 719-122Q693-118 662.50-116Q632-114 599.50-113Q567-112 537-112Q505-158 462.50-197.50Q420-237 372.50-268.50Q325-300 275-323Q225-346 179-358.50Q133-371 93-373Q53-375 25-365Q-22-348-37.50-324.50Q-53-301-44.50-274.50Q-36-248-6-221Q24-194 68.50-170.50Q113-147 170-129Q227-111 289-102Q308-99 335-96.50Q362-94 391-91.50Q420-89 448.50-87.50Q477-86 501-86Q519-55 534.50-25.50Q550 4 562 33.50Q574 63 584 94Q594 125 602 160L606 177Q591 163 566 143Q541 123 508.50 103Q476 83 438 64.50Q400 46 359 35.50Q318 25 275.50 23.50Q233 22 192 36Q145 52 109 94.50Q73 137 56.50 198.50Q40 260 47.50 337Q55 414 96 499Q67 529 50 565Q33 601 30.50 639Q28 677 42.50 715.50Q57 754 92 789Q103 800 110 798.50Q117 797 105 781Q80 750 69.50 717Q59 684 61 651.50Q63 619 76 587.50Q89 556 112 529Q117 539 122.50 548.50Q128 558 134 568Q174 633 229.50 683Q285 733 348 765Q411 797 477 810Q543 823 603 814Q680 802 726 766.50Q772 731 787 685Q802 639 786.50 588Q771 537 725 494Q679 451 603 422.50Q527 394 421 393Q385 392 348 397Q311 402 277 411Q243 420 212.50 433Q182 446 158 462Q125 391 115 326Q105 261 115 208.50Q125 156 153.50 119.50Q182 83 226 69Q275 53 331 62Q387 71 436 93Q485 115 521 144.50Q557 174 568 199Q590 250 612 270.50Q634 291 651.50 291.50Q669 292 679.50 277.50Q690 263 687 244Q676 161 641 82.50Q606 4 551-86Q618-87 671.50-94Q725-101 770-112M608 784Q557 791 500.50 776Q444 761 389.50 728.50Q335 696 286 648.50Q237 601 202 543Q194 529 186 515.50Q178 502 171 488Q218 453 289 434.50Q360 416 437 424Q521 433 583.50 460Q646 487 685.50 524Q725 561 741 603Q757 645 747.50 682Q738 719 703.50 747Q669 775 608 784M485-113Q437-115 390-118.50Q343-122 301-129Q257-136 211-152Q165-168 125-188.50Q85-209 54.50-232.50Q24-256 11-277Q-2-298 6-314.50Q14-331 51-339Q73-344 106-341Q139-338 177.50-327Q216-316 257.50-296.50Q299-277 340-250.50Q381-224 418.50-189.50Q456-155 485-113M730 985Q737 993 745.50 992.50Q754 992 752 984Q734 944 697.50 921Q661 898 613 898Q600 898 585.50 901Q571 904 558 910.50Q545 917 535.50 927Q526 937 524 951Q519 977 525 986.50Q531 996 539 996Q543 996 545 992Q547 988 549.50 982Q552 976 555 969.50Q558 963 564 957Q580 942 595.50 937Q611 932 633 932Q654 932 668.50 936Q683 940 693.50 947Q704 954 712.50 963.50Q721 973 730 985Z"  horiz-adv-x="723" vert-adv-y="1000"  />

      
      <glyph glyph-name="uni011C" unicode="&#x011C;" d="M770-112Q781-115 786.50-119Q792-123 791-127Q790-131 783-132Q776-133 762-130Q745-126 719-122Q693-118 662.50-116Q632-114 599.50-113Q567-112 537-112Q505-158 462.50-197.50Q420-237 372.50-268.50Q325-300 275-323Q225-346 179-358.50Q133-371 93-373Q53-375 25-365Q-22-348-37.50-324.50Q-53-301-44.50-274.50Q-36-248-6-221Q24-194 68.50-170.50Q113-147 170-129Q227-111 289-102Q308-99 335-96.50Q362-94 391-91.50Q420-89 448.50-87.50Q477-86 501-86Q519-55 534.50-25.50Q550 4 562 33.50Q574 63 584 94Q594 125 602 160L606 177Q591 163 566 143Q541 123 508.50 103Q476 83 438 64.50Q400 46 359 35.50Q318 25 275.50 23.50Q233 22 192 36Q145 52 109 94.50Q73 137 56.50 198.50Q40 260 47.50 337Q55 414 96 499Q67 529 50 565Q33 601 30.50 639Q28 677 42.50 715.50Q57 754 92 789Q103 800 110 798.50Q117 797 105 781Q80 750 69.50 717Q59 684 61 651.50Q63 619 76 587.50Q89 556 112 529Q117 539 122.50 548.50Q128 558 134 568Q174 633 229.50 683Q285 733 348 765Q411 797 477 810Q543 823 603 814Q680 802 726 766.50Q772 731 787 685Q802 639 786.50 588Q771 537 725 494Q679 451 603 422.50Q527 394 421 393Q385 392 348 397Q311 402 277 411Q243 420 212.50 433Q182 446 158 462Q125 391 115 326Q105 261 115 208.50Q125 156 153.50 119.50Q182 83 226 69Q275 53 331 62Q387 71 436 93Q485 115 521 144.50Q557 174 568 199Q590 250 612 270.50Q634 291 651.50 291.50Q669 292 679.50 277.50Q690 263 687 244Q676 161 641 82.50Q606 4 551-86Q618-87 671.50-94Q725-101 770-112M608 784Q557 791 500.50 776Q444 761 389.50 728.50Q335 696 286 648.50Q237 601 202 543Q194 529 186 515.50Q178 502 171 488Q218 453 289 434.50Q360 416 437 424Q521 433 583.50 460Q646 487 685.50 524Q725 561 741 603Q757 645 747.50 682Q738 719 703.50 747Q669 775 608 784M485-113Q437-115 390-118.50Q343-122 301-129Q257-136 211-152Q165-168 125-188.50Q85-209 54.50-232.50Q24-256 11-277Q-2-298 6-314.50Q14-331 51-339Q73-344 106-341Q139-338 177.50-327Q216-316 257.50-296.50Q299-277 340-250.50Q381-224 418.50-189.50Q456-155 485-113M719 881Q722 874 712 875Q702 876 699 881L653 952Q619 934 592 919Q569 906 547.50 894.50Q526 883 521 881Q517 878 511.50 876.50Q506 875 501.50 875.50Q497 876 495 877.50Q493 879 496 881L645 987Q656 988 664 989Q671 990 676.50 989.50Q682 989 683 987L719 881Z"  horiz-adv-x="699" vert-adv-y="1000"  />

      
      <glyph glyph-name="uni0122" unicode="&#x0122;" d="M770-112Q781-115 786.50-119Q792-123 791-127Q790-131 783-132Q776-133 762-130Q745-126 719-122Q693-118 662.50-116Q632-114 599.50-113Q567-112 537-112Q505-158 462.50-197.50Q420-237 372.50-268.50Q325-300 275-323Q225-346 179-358.50Q133-371 93-373Q53-375 25-365Q-22-348-37.50-324.50Q-53-301-44.50-274.50Q-36-248-6-221Q24-194 68.50-170.50Q113-147 170-129Q227-111 289-102Q308-99 335-96.50Q362-94 391-91.50Q420-89 448.50-87.50Q477-86 501-86Q519-55 534.50-25.50Q550 4 562 33.50Q574 63 584 94Q594 125 602 160L606 177Q591 163 566 143Q541 123 508.50 103Q476 83 438 64.50Q400 46 359 35.50Q318 25 275.50 23.50Q233 22 192 36Q145 52 109 94.50Q73 137 56.50 198.50Q40 260 47.50 337Q55 414 96 499Q67 529 50 565Q33 601 30.50 639Q28 677 42.50 715.50Q57 754 92 789Q103 800 110 798.50Q117 797 105 781Q80 750 69.50 717Q59 684 61 651.50Q63 619 76 587.50Q89 556 112 529Q117 539 122.50 548.50Q128 558 134 568Q174 633 229.50 683Q285 733 348 765Q411 797 477 810Q543 823 603 814Q680 802 726 766.50Q772 731 787 685Q802 639 786.50 588Q771 537 725 494Q679 451 603 422.50Q527 394 421 393Q385 392 348 397Q311 402 277 411Q243 420 212.50 433Q182 446 158 462Q125 391 115 326Q105 261 115 208.50Q125 156 153.50 119.50Q182 83 226 69Q275 53 331 62Q387 71 436 93Q485 115 521 144.50Q557 174 568 199Q590 250 612 270.50Q634 291 651.50 291.50Q669 292 679.50 277.50Q690 263 687 244Q676 161 641 82.50Q606 4 551-86Q618-87 671.50-94Q725-101 770-112M608 784Q557 791 500.50 776Q444 761 389.50 728.50Q335 696 286 648.50Q237 601 202 543Q194 529 186 515.50Q178 502 171 488Q218 453 289 434.50Q360 416 437 424Q521 433 583.50 460Q646 487 685.50 524Q725 561 741 603Q757 645 747.50 682Q738 719 703.50 747Q669 775 608 784M485-113Q437-115 390-118.50Q343-122 301-129Q257-136 211-152Q165-168 125-188.50Q85-209 54.50-232.50Q24-256 11-277Q-2-298 6-314.50Q14-331 51-339Q73-344 106-341Q139-338 177.50-327Q216-316 257.50-296.50Q299-277 340-250.50Q381-224 418.50-189.50Q456-155 485-113M214-433Q214-455 204.50-473Q195-491 181-505Q167-519 150.50-528.50Q134-538 120-543Q112-546 111-540.50Q110-535 119-533Q144-525 164-505Q184-485 187-455Q182-459 175.50-461.50Q169-464 162-464Q146-464 137.50-453Q129-442 131-427Q133-411 146-400.50Q159-390 174-390Q194-390 204-403Q214-416 214-433Z"  horiz-adv-x="699" vert-adv-y="1000"  />

      
      <glyph glyph-name="uni0120" unicode="&#x0120;" d="M770-112Q781-115 786.50-119Q792-123 791-127Q790-131 783-132Q776-133 762-130Q745-126 719-122Q693-118 662.50-116Q632-114 599.50-113Q567-112 537-112Q505-158 462.50-197.50Q420-237 372.50-268.50Q325-300 275-323Q225-346 179-358.50Q133-371 93-373Q53-375 25-365Q-22-348-37.50-324.50Q-53-301-44.50-274.50Q-36-248-6-221Q24-194 68.50-170.50Q113-147 170-129Q227-111 289-102Q308-99 335-96.50Q362-94 391-91.50Q420-89 448.50-87.50Q477-86 501-86Q519-55 534.50-25.50Q550 4 562 33.50Q574 63 584 94Q594 125 602 160L606 177Q591 163 566 143Q541 123 508.50 103Q476 83 438 64.50Q400 46 359 35.50Q318 25 275.50 23.50Q233 22 192 36Q145 52 109 94.50Q73 137 56.50 198.50Q40 260 47.50 337Q55 414 96 499Q67 529 50 565Q33 601 30.50 639Q28 677 42.50 715.50Q57 754 92 789Q103 800 110 798.50Q117 797 105 781Q80 750 69.50 717Q59 684 61 651.50Q63 619 76 587.50Q89 556 112 529Q117 539 122.50 548.50Q128 558 134 568Q174 633 229.50 683Q285 733 348 765Q411 797 477 810Q543 823 603 814Q680 802 726 766.50Q772 731 787 685Q802 639 786.50 588Q771 537 725 494Q679 451 603 422.50Q527 394 421 393Q385 392 348 397Q311 402 277 411Q243 420 212.50 433Q182 446 158 462Q125 391 115 326Q105 261 115 208.50Q125 156 153.50 119.50Q182 83 226 69Q275 53 331 62Q387 71 436 93Q485 115 521 144.50Q557 174 568 199Q590 250 612 270.50Q634 291 651.50 291.50Q669 292 679.50 277.50Q690 263 687 244Q676 161 641 82.50Q606 4 551-86Q618-87 671.50-94Q725-101 770-112M608 784Q557 791 500.50 776Q444 761 389.50 728.50Q335 696 286 648.50Q237 601 202 543Q194 529 186 515.50Q178 502 171 488Q218 453 289 434.50Q360 416 437 424Q521 433 583.50 460Q646 487 685.50 524Q725 561 741 603Q757 645 747.50 682Q738 719 703.50 747Q669 775 608 784M485-113Q437-115 390-118.50Q343-122 301-129Q257-136 211-152Q165-168 125-188.50Q85-209 54.50-232.50Q24-256 11-277Q-2-298 6-314.50Q14-331 51-339Q73-344 106-341Q139-338 177.50-327Q216-316 257.50-296.50Q299-277 340-250.50Q381-224 418.50-189.50Q456-155 485-113M719 905Q719 885 704 870Q689 855 670 855Q661 855 654.50 860Q648 865 648 875Q648 883 652 892.50Q656 902 663 910.50Q670 919 678.50 925Q687 931 695 931Q706 931 712.50 923Q719 915 719 905Z"  horiz-adv-x="699" vert-adv-y="1000"  />

      
      <glyph glyph-name="uni48" unicode="&#x48;" d="M1523 750Q1516 746 1494 717Q1472 688 1442.50 637Q1413 586 1379.50 514.50Q1346 443 1316 356Q1323 356 1334.50 356Q1346 356 1357.50 357Q1369 358 1379.50 359.50Q1390 361 1396 363Q1410 368 1413.50 364Q1417 360 1404 351Q1384 337 1356.50 331.50Q1329 326 1307 324Q1302 309 1293.50 283.50Q1285 258 1275.50 226.50Q1266 195 1257.50 161.50Q1249 128 1245 98Q1241 68 1242.50 44Q1244 20 1255 8Q1265-3 1279.50-3.50Q1294-4 1311 8Q1330 22 1347.50 43Q1365 64 1380.50 88.50Q1396 113 1410 139Q1424 165 1436 189Q1444 206 1451.50 203Q1459 200 1451 182Q1431 141 1416 112.50Q1401 84 1387.50 63Q1374 42 1360 26Q1346 10 1329-6Q1303-32 1272.50-39.50Q1242-47 1216-33Q1193-21 1185 5Q1177 31 1178.50 65Q1180 99 1189 137Q1198 175 1209.50 211Q1221 247 1232 277Q1243 307 1249 324Q1232 324 1190 325.50Q1148 327 1097 329Q1046 331 995 333Q944 335 910 337Q881 250 832.50 165Q784 80 718 10.50Q652-59 570-107Q488-155 391-167Q305-178 225-159.50Q145-141 87.50-95.50Q30-50 5 20.50Q-20 91 4 185Q10 209 25.50 232Q41 255 59.50 272.50Q78 290 96 301Q114 312 126 312Q142 312 139 306.50Q136 301 128 298Q116 293 100 279Q84 265 69 244.50Q54 224 42 197.50Q30 171 26 140Q19 86 33 44.50Q47 3 74.50-26Q102-55 140.50-73.50Q179-92 220.50-100.50Q262-109 304-108.50Q346-108 381-100Q486-76 564.50-29Q643 18 700 78Q757 138 795 206Q833 274 858 339Q842 339 827 334.50Q812 330 798 323Q794 321 787 319Q780 317 774.50 317Q769 317 767 320.50Q765 324 771 334Q778 345 795.50 357.50Q813 370 833 372L872 372Q891 419 913 469.50Q935 520 956 565Q977 610 993.50 645Q1010 680 1018 696Q969 690 917.50 686.50Q866 683 816 676Q766 669 719.50 655.50Q673 642 633 617.50Q593 593 562.50 554.50Q532 516 514 458Q501 417 506 381.50Q511 346 529 322Q547 298 577 289.50Q607 281 645 295Q673 305 692 331.50Q711 358 721.50 387Q732 416 735 441Q738 466 733 473Q729 479 729.50 483Q730 487 733 488Q736 489 739.50 487.50Q743 486 746 480Q760 449 756.50 417Q753 385 737.50 357Q722 329 697.50 307.50Q673 286 646 276Q601 259 559.50 269.50Q518 280 488.50 309Q459 338 446.50 381.50Q434 425 446 474Q462 537 498 578.50Q534 620 582.50 646Q631 672 689.50 685Q748 698 807.50 704Q867 710 925 712.50Q983 715 1032 720Q1035 724 1042.50 736Q1050 748 1061 761Q1072 774 1084.50 785Q1097 796 1109 800Q1131 806 1148.50 799.50Q1166 793 1166 772Q1166 754 1153 740.50Q1140 727 1122 717.50Q1104 708 1083.50 703Q1063 698 1048 698Q1039 679 1026.50 651Q1014 623 1001.50 590.50Q989 558 976 523.50Q963 489 951.50 459Q940 429 931.50 406Q923 383 919 372Q969 372 1018.50 369.50Q1068 367 1112.50 363.50Q1157 360 1194.50 357.50Q1232 355 1258 355Q1262 366 1274 397Q1286 428 1303.50 469.50Q1321 511 1343 557.50Q1365 604 1388 644Q1411 684 1433.50 713Q1456 742 1476 749Q1491 754 1505 757.50Q1519 761 1528 762Q1537 763 1537 760Q1537 757 1523 750M1119 771Q1115 773 1108.50 768Q1102 763 1094 755.50Q1086 748 1078.50 739Q1071 730 1066 723Q1098 728 1112 736Q1126 744 1129 752Q1132 760 1127.50 765.50Q1123 771 1119 771Z"  horiz-adv-x="1381" vert-adv-y="1000"  />

      
      <glyph glyph-name="uni0126" unicode="&#x0126;" d="M1556 528L740 528L750 568L1565 568L1556 528M1523 750Q1516 746 1494 717Q1472 688 1442.50 637Q1413 586 1379.50 514.50Q1346 443 1316 356Q1323 356 1334.50 356Q1346 356 1357.50 357Q1369 358 1379.50 359.50Q1390 361 1396 363Q1410 368 1413.50 364Q1417 360 1404 351Q1384 337 1356.50 331.50Q1329 326 1307 324Q1302 309 1293.50 283.50Q1285 258 1275.50 226.50Q1266 195 1257.50 161.50Q1249 128 1245 98Q1241 68 1242.50 44Q1244 20 1255 8Q1265-3 1279.50-3.50Q1294-4 1311 8Q1330 22 1347.50 43Q1365 64 1380.50 88.50Q1396 113 1410 139Q1424 165 1436 189Q1444 206 1451.50 203Q1459 200 1451 182Q1431 141 1416 112.50Q1401 84 1387.50 63Q1374 42 1360 26Q1346 10 1329-6Q1303-32 1272.50-39.50Q1242-47 1216-33Q1193-21 1185 5Q1177 31 1178.50 65Q1180 99 1189 137Q1198 175 1209.50 211Q1221 247 1232 277Q1243 307 1249 324Q1232 324 1190 325.50Q1148 327 1097 329Q1046 331 995 333Q944 335 910 337Q881 250 832.50 165Q784 80 718 10.50Q652-59 570-107Q488-155 391-167Q305-178 225-159.50Q145-141 87.50-95.50Q30-50 5 20.50Q-20 91 4 185Q10 209 25.50 232Q41 255 59.50 272.50Q78 290 96 301Q114 312 126 312Q142 312 139 306.50Q136 301 128 298Q116 293 100 279Q84 265 69 244.50Q54 224 42 197.50Q30 171 26 140Q19 86 33 44.50Q47 3 74.50-26Q102-55 140.50-73.50Q179-92 220.50-100.50Q262-109 304-108.50Q346-108 381-100Q486-76 564.50-29Q643 18 700 78Q757 138 795 206Q833 274 858 339Q842 339 827 334.50Q812 330 798 323Q794 321 787 319Q780 317 774.50 317Q769 317 767 320.50Q765 324 771 334Q778 345 795.50 357.50Q813 370 833 372L872 372Q891 419 913 469.50Q935 520 956 565Q977 610 993.50 645Q1010 680 1018 696Q969 690 917.50 686.50Q866 683 816 676Q766 669 719.50 655.50Q673 642 633 617.50Q593 593 562.50 554.50Q532 516 514 458Q501 417 506 381.50Q511 346 529 322Q547 298 577 289.50Q607 281 645 295Q673 305 692 331.50Q711 358 721.50 387Q732 416 735 441Q738 466 733 473Q729 479 729.50 483Q730 487 733 488Q736 489 739.50 487.50Q743 486 746 480Q760 449 756.50 417Q753 385 737.50 357Q722 329 697.50 307.50Q673 286 646 276Q601 259 559.50 269.50Q518 280 488.50 309Q459 338 446.50 381.50Q434 425 446 474Q462 537 498 578.50Q534 620 582.50 646Q631 672 689.50 685Q748 698 807.50 704Q867 710 925 712.50Q983 715 1032 720Q1035 724 1042.50 736Q1050 748 1061 761Q1072 774 1084.50 785Q1097 796 1109 800Q1131 806 1148.50 799.50Q1166 793 1166 772Q1166 754 1153 740.50Q1140 727 1122 717.50Q1104 708 1083.50 703Q1063 698 1048 698Q1039 679 1026.50 651Q1014 623 1001.50 590.50Q989 558 976 523.50Q963 489 951.50 459Q940 429 931.50 406Q923 383 919 372Q969 372 1018.50 369.50Q1068 367 1112.50 363.50Q1157 360 1194.50 357.50Q1232 355 1258 355Q1262 366 1274 397Q1286 428 1303.50 469.50Q1321 511 1343 557.50Q1365 604 1388 644Q1411 684 1433.50 713Q1456 742 1476 749Q1491 754 1505 757.50Q1519 761 1528 762Q1537 763 1537 760Q1537 757 1523 750M1119 771Q1115 773 1108.50 768Q1102 763 1094 755.50Q1086 748 1078.50 739Q1071 730 1066 723Q1098 728 1112 736Q1126 744 1129 752Q1132 760 1127.50 765.50Q1123 771 1119 771Z"  horiz-adv-x="1381" vert-adv-y="1000"  />

      
      <glyph glyph-name="uni0124" unicode="&#x0124;" d="M1523 750Q1516 746 1494 717Q1472 688 1442.50 637Q1413 586 1379.50 514.50Q1346 443 1316 356Q1323 356 1334.50 356Q1346 356 1357.50 357Q1369 358 1379.50 359.50Q1390 361 1396 363Q1410 368 1413.50 364Q1417 360 1404 351Q1384 337 1356.50 331.50Q1329 326 1307 324Q1302 309 1293.50 283.50Q1285 258 1275.50 226.50Q1266 195 1257.50 161.50Q1249 128 1245 98Q1241 68 1242.50 44Q1244 20 1255 8Q1265-3 1279.50-3.50Q1294-4 1311 8Q1330 22 1347.50 43Q1365 64 1380.50 88.50Q1396 113 1410 139Q1424 165 1436 189Q1444 206 1451.50 203Q1459 200 1451 182Q1431 141 1416 112.50Q1401 84 1387.50 63Q1374 42 1360 26Q1346 10 1329-6Q1303-32 1272.50-39.50Q1242-47 1216-33Q1193-21 1185 5Q1177 31 1178.50 65Q1180 99 1189 137Q1198 175 1209.50 211Q1221 247 1232 277Q1243 307 1249 324Q1232 324 1190 325.50Q1148 327 1097 329Q1046 331 995 333Q944 335 910 337Q881 250 832.50 165Q784 80 718 10.50Q652-59 570-107Q488-155 391-167Q305-178 225-159.50Q145-141 87.50-95.50Q30-50 5 20.50Q-20 91 4 185Q10 209 25.50 232Q41 255 59.50 272.50Q78 290 96 301Q114 312 126 312Q142 312 139 306.50Q136 301 128 298Q116 293 100 279Q84 265 69 244.50Q54 224 42 197.50Q30 171 26 140Q19 86 33 44.50Q47 3 74.50-26Q102-55 140.50-73.50Q179-92 220.50-100.50Q262-109 304-108.50Q346-108 381-100Q486-76 564.50-29Q643 18 700 78Q757 138 795 206Q833 274 858 339Q842 339 827 334.50Q812 330 798 323Q794 321 787 319Q780 317 774.50 317Q769 317 767 320.50Q765 324 771 334Q778 345 795.50 357.50Q813 370 833 372L872 372Q891 419 913 469.50Q935 520 956 565Q977 610 993.50 645Q1010 680 1018 696Q969 690 917.50 686.50Q866 683 816 676Q766 669 719.50 655.50Q673 642 633 617.50Q593 593 562.50 554.50Q532 516 514 458Q501 417 506 381.50Q511 346 529 322Q547 298 577 289.50Q607 281 645 295Q673 305 692 331.50Q711 358 721.50 387Q732 416 735 441Q738 466 733 473Q729 479 729.50 483Q730 487 733 488Q736 489 739.50 487.50Q743 486 746 480Q760 449 756.50 417Q753 385 737.50 357Q722 329 697.50 307.50Q673 286 646 276Q601 259 559.50 269.50Q518 280 488.50 309Q459 338 446.50 381.50Q434 425 446 474Q462 537 498 578.50Q534 620 582.50 646Q631 672 689.50 685Q748 698 807.50 704Q867 710 925 712.50Q983 715 1032 720Q1035 724 1042.50 736Q1050 748 1061 761Q1072 774 1084.50 785Q1097 796 1109 800Q1131 806 1148.50 799.50Q1166 793 1166 772Q1166 754 1153 740.50Q1140 727 1122 717.50Q1104 708 1083.50 703Q1063 698 1048 698Q1039 679 1026.50 651Q1014 623 1001.50 590.50Q989 558 976 523.50Q963 489 951.50 459Q940 429 931.50 406Q923 383 919 372Q969 372 1018.50 369.50Q1068 367 1112.50 363.50Q1157 360 1194.50 357.50Q1232 355 1258 355Q1262 366 1274 397Q1286 428 1303.50 469.50Q1321 511 1343 557.50Q1365 604 1388 644Q1411 684 1433.50 713Q1456 742 1476 749Q1491 754 1505 757.50Q1519 761 1528 762Q1537 763 1537 760Q1537 757 1523 750M1119 771Q1115 773 1108.50 768Q1102 763 1094 755.50Q1086 748 1078.50 739Q1071 730 1066 723Q1098 728 1112 736Q1126 744 1129 752Q1132 760 1127.50 765.50Q1123 771 1119 771M1449 872Q1452 865 1442 866Q1432 867 1429 872L1383 943Q1349 925 1322 910Q1299 897 1277.50 885.50Q1256 874 1251 872Q1247 869 1241.50 867.50Q1236 866 1231.50 866.50Q1227 867 1225 868.50Q1223 870 1226 872L1375 978Q1386 979 1394 980Q1401 981 1406.50 980.50Q1412 980 1413 978L1449 872Z"  horiz-adv-x="1381" vert-adv-y="1000"  />

      
      <glyph glyph-name="uni49" unicode="&#x49;" d="M1196 805Q1196 790 1189.50 779Q1183 768 1172 759.50Q1161 751 1147 745.50Q1133 740 1119 735Q1110 735 1097 730.50Q1084 726 1077 726Q1046 670 1025 616Q1004 562 987 509.50Q970 457 954 405Q938 353 917.50 302Q897 251 870 200.50Q843 150 803 99Q720-7 618.50-67.50Q517-128 408-146Q302-164 212.50-150Q123-136 65-93.50Q7-51-12 18.50Q-31 88 4 182Q13 207 31.50 230Q50 253 70 271.50Q90 290 109.50 301Q129 312 141 313Q157 314 153 308.50Q149 303 142 299Q129 293 111.50 279Q94 265 76.50 244Q59 223 44 196Q29 169 21 138Q8 84 19 41Q30-2 57.50-33Q85-64 125-84.50Q165-105 210.50-115Q256-125 302.50-124.50Q349-124 389-114Q462-96 524-61Q586-26 638 19Q690 64 731.50 115Q773 166 805 217Q837 268 859.50 315Q882 362 896 398Q918 457 941.50 509.50Q965 562 985.50 604.50Q1006 647 1022 677Q1038 707 1046 721Q978 706 900.50 685Q823 664 753 628.50Q683 593 630 538.50Q577 484 559 403Q551 367 556 337.50Q561 308 577 290Q593 272 618.50 267Q644 262 676 274Q715 290 735.50 317Q756 344 763.50 371.50Q771 399 768.50 421Q766 443 760 449Q758 451 760 455Q762 459 766 462Q770 465 774 465Q778 465 781 458Q796 430 793 398.50Q790 367 774.50 338Q759 309 733.50 286Q708 263 677 251Q637 236 599.50 241Q562 246 535 267.50Q508 289 495 324Q482 359 492 403Q505 462 539 508Q573 554 620.50 590Q668 626 725.50 651.50Q783 677 842 696Q901 715 958 727Q1015 739 1062 747Q1065 753 1073 765Q1081 777 1091.50 790Q1102 803 1114.50 814Q1127 825 1139 829Q1162 836 1178.50 830.50Q1195 825 1196 805M1148 801Q1144 802 1137.50 797.50Q1131 793 1123 785Q1115 777 1107.50 767.50Q1100 758 1094 751Q1127 758 1141 766.50Q1155 775 1158 782.50Q1161 790 1156.50 795.50Q1152 801 1148 801Z"  horiz-adv-x="912" vert-adv-y="1000"  />

      
      <glyph glyph-name="unicd" unicode="&#xcd;" d="M1196 805Q1196 790 1189.50 779Q1183 768 1172 759.50Q1161 751 1147 745.50Q1133 740 1119 735Q1110 735 1097 730.50Q1084 726 1077 726Q1046 670 1025 616Q1004 562 987 509.50Q970 457 954 405Q938 353 917.50 302Q897 251 870 200.50Q843 150 803 99Q720-7 618.50-67.50Q517-128 408-146Q302-164 212.50-150Q123-136 65-93.50Q7-51-12 18.50Q-31 88 4 182Q13 207 31.50 230Q50 253 70 271.50Q90 290 109.50 301Q129 312 141 313Q157 314 153 308.50Q149 303 142 299Q129 293 111.50 279Q94 265 76.50 244Q59 223 44 196Q29 169 21 138Q8 84 19 41Q30-2 57.50-33Q85-64 125-84.50Q165-105 210.50-115Q256-125 302.50-124.50Q349-124 389-114Q462-96 524-61Q586-26 638 19Q690 64 731.50 115Q773 166 805 217Q837 268 859.50 315Q882 362 896 398Q918 457 941.50 509.50Q965 562 985.50 604.50Q1006 647 1022 677Q1038 707 1046 721Q978 706 900.50 685Q823 664 753 628.50Q683 593 630 538.50Q577 484 559 403Q551 367 556 337.50Q561 308 577 290Q593 272 618.50 267Q644 262 676 274Q715 290 735.50 317Q756 344 763.50 371.50Q771 399 768.50 421Q766 443 760 449Q758 451 760 455Q762 459 766 462Q770 465 774 465Q778 465 781 458Q796 430 793 398.50Q790 367 774.50 338Q759 309 733.50 286Q708 263 677 251Q637 236 599.50 241Q562 246 535 267.50Q508 289 495 324Q482 359 492 403Q505 462 539 508Q573 554 620.50 590Q668 626 725.50 651.50Q783 677 842 696Q901 715 958 727Q1015 739 1062 747Q1065 753 1073 765Q1081 777 1091.50 790Q1102 803 1114.50 814Q1127 825 1139 829Q1162 836 1178.50 830.50Q1195 825 1196 805M1148 801Q1144 802 1137.50 797.50Q1131 793 1123 785Q1115 777 1107.50 767.50Q1100 758 1094 751Q1127 758 1141 766.50Q1155 775 1158 782.50Q1161 790 1156.50 795.50Q1152 801 1148 801M1070 891Q1068 887 1054 878.50Q1040 870 1019.50 860Q999 850 976 839Q953 828 933 819.50Q913 811 899 806Q885 801 883 802Q874 807 880 815Q881 818 898.50 831Q916 844 937 859Q958 874 977.50 887.50Q997 901 1003 906Q1015 915 1030.50 920.50Q1046 926 1061 918Q1069 914 1071.50 906.50Q1074 899 1070 891Z"  horiz-adv-x="906" vert-adv-y="1000"  />

      
      <glyph glyph-name="unice" unicode="&#xce;" d="M1196 805Q1196 790 1189.50 779Q1183 768 1172 759.50Q1161 751 1147 745.50Q1133 740 1119 735Q1110 735 1097 730.50Q1084 726 1077 726Q1046 670 1025 616Q1004 562 987 509.50Q970 457 954 405Q938 353 917.50 302Q897 251 870 200.50Q843 150 803 99Q720-7 618.50-67.50Q517-128 408-146Q302-164 212.50-150Q123-136 65-93.50Q7-51-12 18.50Q-31 88 4 182Q13 207 31.50 230Q50 253 70 271.50Q90 290 109.50 301Q129 312 141 313Q157 314 153 308.50Q149 303 142 299Q129 293 111.50 279Q94 265 76.50 244Q59 223 44 196Q29 169 21 138Q8 84 19 41Q30-2 57.50-33Q85-64 125-84.50Q165-105 210.50-115Q256-125 302.50-124.50Q349-124 389-114Q462-96 524-61Q586-26 638 19Q690 64 731.50 115Q773 166 805 217Q837 268 859.50 315Q882 362 896 398Q918 457 941.50 509.50Q965 562 985.50 604.50Q1006 647 1022 677Q1038 707 1046 721Q978 706 900.50 685Q823 664 753 628.50Q683 593 630 538.50Q577 484 559 403Q551 367 556 337.50Q561 308 577 290Q593 272 618.50 267Q644 262 676 274Q715 290 735.50 317Q756 344 763.50 371.50Q771 399 768.50 421Q766 443 760 449Q758 451 760 455Q762 459 766 462Q770 465 774 465Q778 465 781 458Q796 430 793 398.50Q790 367 774.50 338Q759 309 733.50 286Q708 263 677 251Q637 236 599.50 241Q562 246 535 267.50Q508 289 495 324Q482 359 492 403Q505 462 539 508Q573 554 620.50 590Q668 626 725.50 651.50Q783 677 842 696Q901 715 958 727Q1015 739 1062 747Q1065 753 1073 765Q1081 777 1091.50 790Q1102 803 1114.50 814Q1127 825 1139 829Q1162 836 1178.50 830.50Q1195 825 1196 805M1148 801Q1144 802 1137.50 797.50Q1131 793 1123 785Q1115 777 1107.50 767.50Q1100 758 1094 751Q1127 758 1141 766.50Q1155 775 1158 782.50Q1161 790 1156.50 795.50Q1152 801 1148 801M1176 839Q1179 832 1169 833Q1159 834 1156 839L1110 910Q1076 892 1049 877Q1026 864 1004.50 852.50Q983 841 978 839Q974 836 968.50 834.50Q963 833 958.50 833.50Q954 834 952 835.50Q950 837 953 839L1102 945Q1113 946 1121 947Q1128 948 1133.50 947.50Q1139 947 1140 945L1176 839Z"  horiz-adv-x="906" vert-adv-y="1000"  />

      
      <glyph glyph-name="unicf" unicode="&#xcf;" d="M1196 805Q1196 790 1189.50 779Q1183 768 1172 759.50Q1161 751 1147 745.50Q1133 740 1119 735Q1110 735 1097 730.50Q1084 726 1077 726Q1046 670 1025 616Q1004 562 987 509.50Q970 457 954 405Q938 353 917.50 302Q897 251 870 200.50Q843 150 803 99Q720-7 618.50-67.50Q517-128 408-146Q302-164 212.50-150Q123-136 65-93.50Q7-51-12 18.50Q-31 88 4 182Q13 207 31.50 230Q50 253 70 271.50Q90 290 109.50 301Q129 312 141 313Q157 314 153 308.50Q149 303 142 299Q129 293 111.50 279Q94 265 76.50 244Q59 223 44 196Q29 169 21 138Q8 84 19 41Q30-2 57.50-33Q85-64 125-84.50Q165-105 210.50-115Q256-125 302.50-124.50Q349-124 389-114Q462-96 524-61Q586-26 638 19Q690 64 731.50 115Q773 166 805 217Q837 268 859.50 315Q882 362 896 398Q918 457 941.50 509.50Q965 562 985.50 604.50Q1006 647 1022 677Q1038 707 1046 721Q978 706 900.50 685Q823 664 753 628.50Q683 593 630 538.50Q577 484 559 403Q551 367 556 337.50Q561 308 577 290Q593 272 618.50 267Q644 262 676 274Q715 290 735.50 317Q756 344 763.50 371.50Q771 399 768.50 421Q766 443 760 449Q758 451 760 455Q762 459 766 462Q770 465 774 465Q778 465 781 458Q796 430 793 398.50Q790 367 774.50 338Q759 309 733.50 286Q708 263 677 251Q637 236 599.50 241Q562 246 535 267.50Q508 289 495 324Q482 359 492 403Q505 462 539 508Q573 554 620.50 590Q668 626 725.50 651.50Q783 677 842 696Q901 715 958 727Q1015 739 1062 747Q1065 753 1073 765Q1081 777 1091.50 790Q1102 803 1114.50 814Q1127 825 1139 829Q1162 836 1178.50 830.50Q1195 825 1196 805M1148 801Q1144 802 1137.50 797.50Q1131 793 1123 785Q1115 777 1107.50 767.50Q1100 758 1094 751Q1127 758 1141 766.50Q1155 775 1158 782.50Q1161 790 1156.50 795.50Q1152 801 1148 801M1167 891Q1167 877 1158 867.50Q1149 858 1135 858Q1121 858 1111 867Q1101 876 1101 891Q1101 905 1110 914.50Q1119 924 1133 924Q1147 924 1157 915Q1167 906 1167 891M1038 891Q1038 877 1029 867.50Q1020 858 1006 858Q992 858 982 867Q972 876 972 891Q972 905 981 914.50Q990 924 1004 924Q1018 924 1028 915Q1038 906 1038 891Z"  horiz-adv-x="906" vert-adv-y="1000"  />

      
      <glyph glyph-name="uni0130" unicode="&#x0130;" d="M1196 805Q1196 790 1189.50 779Q1183 768 1172 759.50Q1161 751 1147 745.50Q1133 740 1119 735Q1110 735 1097 730.50Q1084 726 1077 726Q1046 670 1025 616Q1004 562 987 509.50Q970 457 954 405Q938 353 917.50 302Q897 251 870 200.50Q843 150 803 99Q720-7 618.50-67.50Q517-128 408-146Q302-164 212.50-150Q123-136 65-93.50Q7-51-12 18.50Q-31 88 4 182Q13 207 31.50 230Q50 253 70 271.50Q90 290 109.50 301Q129 312 141 313Q157 314 153 308.50Q149 303 142 299Q129 293 111.50 279Q94 265 76.50 244Q59 223 44 196Q29 169 21 138Q8 84 19 41Q30-2 57.50-33Q85-64 125-84.50Q165-105 210.50-115Q256-125 302.50-124.50Q349-124 389-114Q462-96 524-61Q586-26 638 19Q690 64 731.50 115Q773 166 805 217Q837 268 859.50 315Q882 362 896 398Q918 457 941.50 509.50Q965 562 985.50 604.50Q1006 647 1022 677Q1038 707 1046 721Q978 706 900.50 685Q823 664 753 628.50Q683 593 630 538.50Q577 484 559 403Q551 367 556 337.50Q561 308 577 290Q593 272 618.50 267Q644 262 676 274Q715 290 735.50 317Q756 344 763.50 371.50Q771 399 768.50 421Q766 443 760 449Q758 451 760 455Q762 459 766 462Q770 465 774 465Q778 465 781 458Q796 430 793 398.50Q790 367 774.50 338Q759 309 733.50 286Q708 263 677 251Q637 236 599.50 241Q562 246 535 267.50Q508 289 495 324Q482 359 492 403Q505 462 539 508Q573 554 620.50 590Q668 626 725.50 651.50Q783 677 842 696Q901 715 958 727Q1015 739 1062 747Q1065 753 1073 765Q1081 777 1091.50 790Q1102 803 1114.50 814Q1127 825 1139 829Q1162 836 1178.50 830.50Q1195 825 1196 805M1148 801Q1144 802 1137.50 797.50Q1131 793 1123 785Q1115 777 1107.50 767.50Q1100 758 1094 751Q1127 758 1141 766.50Q1155 775 1158 782.50Q1161 790 1156.50 795.50Q1152 801 1148 801M1133 921Q1133 901 1118 886Q1103 871 1084 871Q1075 871 1068.50 876Q1062 881 1062 891Q1062 899 1066 908.50Q1070 918 1077 926.50Q1084 935 1092.50 941Q1101 947 1109 947Q1120 947 1126.50 939Q1133 931 1133 921Z"  horiz-adv-x="929" vert-adv-y="1000"  />

      
      <glyph glyph-name="unicc" unicode="&#xcc;" d="M1196 805Q1196 790 1189.50 779Q1183 768 1172 759.50Q1161 751 1147 745.50Q1133 740 1119 735Q1110 735 1097 730.50Q1084 726 1077 726Q1046 670 1025 616Q1004 562 987 509.50Q970 457 954 405Q938 353 917.50 302Q897 251 870 200.50Q843 150 803 99Q720-7 618.50-67.50Q517-128 408-146Q302-164 212.50-150Q123-136 65-93.50Q7-51-12 18.50Q-31 88 4 182Q13 207 31.50 230Q50 253 70 271.50Q90 290 109.50 301Q129 312 141 313Q157 314 153 308.50Q149 303 142 299Q129 293 111.50 279Q94 265 76.50 244Q59 223 44 196Q29 169 21 138Q8 84 19 41Q30-2 57.50-33Q85-64 125-84.50Q165-105 210.50-115Q256-125 302.50-124.50Q349-124 389-114Q462-96 524-61Q586-26 638 19Q690 64 731.50 115Q773 166 805 217Q837 268 859.50 315Q882 362 896 398Q918 457 941.50 509.50Q965 562 985.50 604.50Q1006 647 1022 677Q1038 707 1046 721Q978 706 900.50 685Q823 664 753 628.50Q683 593 630 538.50Q577 484 559 403Q551 367 556 337.50Q561 308 577 290Q593 272 618.50 267Q644 262 676 274Q715 290 735.50 317Q756 344 763.50 371.50Q771 399 768.50 421Q766 443 760 449Q758 451 760 455Q762 459 766 462Q770 465 774 465Q778 465 781 458Q796 430 793 398.50Q790 367 774.50 338Q759 309 733.50 286Q708 263 677 251Q637 236 599.50 241Q562 246 535 267.50Q508 289 495 324Q482 359 492 403Q505 462 539 508Q573 554 620.50 590Q668 626 725.50 651.50Q783 677 842 696Q901 715 958 727Q1015 739 1062 747Q1065 753 1073 765Q1081 777 1091.50 790Q1102 803 1114.50 814Q1127 825 1139 829Q1162 836 1178.50 830.50Q1195 825 1196 805M1148 801Q1144 802 1137.50 797.50Q1131 793 1123 785Q1115 777 1107.50 767.50Q1100 758 1094 751Q1127 758 1141 766.50Q1155 775 1158 782.50Q1161 790 1156.50 795.50Q1152 801 1148 801M1127 842Q1127 833 1117 833Q1114 833 1094.50 842.50Q1075 852 1052 864Q1029 876 1008 887.50Q987 899 980 902Q966 909 954.50 919.50Q943 930 943 947Q943 956 948.50 962Q954 968 962 968Q967 968 981 959Q995 950 1013.50 936.50Q1032 923 1052 907.50Q1072 892 1088.50 878Q1105 864 1116 854Q1127 844 1127 842Z"  horiz-adv-x="906" vert-adv-y="1000"  />

      
      <glyph glyph-name="uni012A" unicode="&#x012A;" d="M1196 805Q1196 790 1189.50 779Q1183 768 1172 759.50Q1161 751 1147 745.50Q1133 740 1119 735Q1110 735 1097 730.50Q1084 726 1077 726Q1046 670 1025 616Q1004 562 987 509.50Q970 457 954 405Q938 353 917.50 302Q897 251 870 200.50Q843 150 803 99Q720-7 618.50-67.50Q517-128 408-146Q302-164 212.50-150Q123-136 65-93.50Q7-51-12 18.50Q-31 88 4 182Q13 207 31.50 230Q50 253 70 271.50Q90 290 109.50 301Q129 312 141 313Q157 314 153 308.50Q149 303 142 299Q129 293 111.50 279Q94 265 76.50 244Q59 223 44 196Q29 169 21 138Q8 84 19 41Q30-2 57.50-33Q85-64 125-84.50Q165-105 210.50-115Q256-125 302.50-124.50Q349-124 389-114Q462-96 524-61Q586-26 638 19Q690 64 731.50 115Q773 166 805 217Q837 268 859.50 315Q882 362 896 398Q918 457 941.50 509.50Q965 562 985.50 604.50Q1006 647 1022 677Q1038 707 1046 721Q978 706 900.50 685Q823 664 753 628.50Q683 593 630 538.50Q577 484 559 403Q551 367 556 337.50Q561 308 577 290Q593 272 618.50 267Q644 262 676 274Q715 290 735.50 317Q756 344 763.50 371.50Q771 399 768.50 421Q766 443 760 449Q758 451 760 455Q762 459 766 462Q770 465 774 465Q778 465 781 458Q796 430 793 398.50Q790 367 774.50 338Q759 309 733.50 286Q708 263 677 251Q637 236 599.50 241Q562 246 535 267.50Q508 289 495 324Q482 359 492 403Q505 462 539 508Q573 554 620.50 590Q668 626 725.50 651.50Q783 677 842 696Q901 715 958 727Q1015 739 1062 747Q1065 753 1073 765Q1081 777 1091.50 790Q1102 803 1114.50 814Q1127 825 1139 829Q1162 836 1178.50 830.50Q1195 825 1196 805M1148 801Q1144 802 1137.50 797.50Q1131 793 1123 785Q1115 777 1107.50 767.50Q1100 758 1094 751Q1127 758 1141 766.50Q1155 775 1158 782.50Q1161 790 1156.50 795.50Q1152 801 1148 801M1180 852L966 852L984 890L1197 890L1180 852Z"  horiz-adv-x="929" vert-adv-y="1000"  />

      
      <glyph glyph-name="uni012E" unicode="&#x012E;" d="M1196 805Q1196 790 1189.50 779Q1183 768 1172 759.50Q1161 751 1147 745.50Q1133 740 1119 735Q1110 735 1097 730.50Q1084 726 1077 726Q1046 670 1025 616Q1004 562 987 509.50Q970 457 954 405Q938 353 917.50 302Q897 251 870 200.50Q843 150 803 99Q720-7 618.50-67.50Q517-128 408-146Q302-164 212.50-150Q123-136 65-93.50Q7-51-12 18.50Q-31 88 4 182Q13 207 31.50 230Q50 253 70 271.50Q90 290 109.50 301Q129 312 141 313Q157 314 153 308.50Q149 303 142 299Q129 293 111.50 279Q94 265 76.50 244Q59 223 44 196Q29 169 21 138Q8 84 19 41Q30-2 57.50-33Q85-64 125-84.50Q165-105 210.50-115Q256-125 302.50-124.50Q349-124 389-114Q462-96 524-61Q586-26 638 19Q690 64 731.50 115Q773 166 805 217Q837 268 859.50 315Q882 362 896 398Q918 457 941.50 509.50Q965 562 985.50 604.50Q1006 647 1022 677Q1038 707 1046 721Q978 706 900.50 685Q823 664 753 628.50Q683 593 630 538.50Q577 484 559 403Q551 367 556 337.50Q561 308 577 290Q593 272 618.50 267Q644 262 676 274Q715 290 735.50 317Q756 344 763.50 371.50Q771 399 768.50 421Q766 443 760 449Q758 451 760 455Q762 459 766 462Q770 465 774 465Q778 465 781 458Q796 430 793 398.50Q790 367 774.50 338Q759 309 733.50 286Q708 263 677 251Q637 236 599.50 241Q562 246 535 267.50Q508 289 495 324Q482 359 492 403Q505 462 539 508Q573 554 620.50 590Q668 626 725.50 651.50Q783 677 842 696Q901 715 958 727Q1015 739 1062 747Q1065 753 1073 765Q1081 777 1091.50 790Q1102 803 1114.50 814Q1127 825 1139 829Q1162 836 1178.50 830.50Q1195 825 1196 805M1148 801Q1144 802 1137.50 797.50Q1131 793 1123 785Q1115 777 1107.50 767.50Q1100 758 1094 751Q1127 758 1141 766.50Q1155 775 1158 782.50Q1161 790 1156.50 795.50Q1152 801 1148 801M392-170Q372-186 351.50-207Q331-228 313.50-250Q296-272 285-294Q274-316 273-333Q273-347 279-356.50Q285-366 302-366Q316-366 329.50-356Q343-346 353-336Q355-334 360-333.50Q365-333 363-340Q361-348 353.50-357.50Q346-367 333-375.50Q320-384 303.50-390Q287-396 268-396Q249-396 235.50-385Q222-374 223-351Q224-328 242.50-298Q261-268 287-240Q313-212 340.50-190Q368-168 386-160Q389-160 391.50-160Q394-160 392-170Z"  horiz-adv-x="929" vert-adv-y="1000"  />

      
      <glyph glyph-name="uni0128" unicode="&#x0128;" d="M1196 805Q1196 790 1189.50 779Q1183 768 1172 759.50Q1161 751 1147 745.50Q1133 740 1119 735Q1110 735 1097 730.50Q1084 726 1077 726Q1046 670 1025 616Q1004 562 987 509.50Q970 457 954 405Q938 353 917.50 302Q897 251 870 200.50Q843 150 803 99Q720-7 618.50-67.50Q517-128 408-146Q302-164 212.50-150Q123-136 65-93.50Q7-51-12 18.50Q-31 88 4 182Q13 207 31.50 230Q50 253 70 271.50Q90 290 109.50 301Q129 312 141 313Q157 314 153 308.50Q149 303 142 299Q129 293 111.50 279Q94 265 76.50 244Q59 223 44 196Q29 169 21 138Q8 84 19 41Q30-2 57.50-33Q85-64 125-84.50Q165-105 210.50-115Q256-125 302.50-124.50Q349-124 389-114Q462-96 524-61Q586-26 638 19Q690 64 731.50 115Q773 166 805 217Q837 268 859.50 315Q882 362 896 398Q918 457 941.50 509.50Q965 562 985.50 604.50Q1006 647 1022 677Q1038 707 1046 721Q978 706 900.50 685Q823 664 753 628.50Q683 593 630 538.50Q577 484 559 403Q551 367 556 337.50Q561 308 577 290Q593 272 618.50 267Q644 262 676 274Q715 290 735.50 317Q756 344 763.50 371.50Q771 399 768.50 421Q766 443 760 449Q758 451 760 455Q762 459 766 462Q770 465 774 465Q778 465 781 458Q796 430 793 398.50Q790 367 774.50 338Q759 309 733.50 286Q708 263 677 251Q637 236 599.50 241Q562 246 535 267.50Q508 289 495 324Q482 359 492 403Q505 462 539 508Q573 554 620.50 590Q668 626 725.50 651.50Q783 677 842 696Q901 715 958 727Q1015 739 1062 747Q1065 753 1073 765Q1081 777 1091.50 790Q1102 803 1114.50 814Q1127 825 1139 829Q1162 836 1178.50 830.50Q1195 825 1196 805M1148 801Q1144 802 1137.50 797.50Q1131 793 1123 785Q1115 777 1107.50 767.50Q1100 758 1094 751Q1127 758 1141 766.50Q1155 775 1158 782.50Q1161 790 1156.50 795.50Q1152 801 1148 801M1213 917Q1207 905 1199 893Q1191 881 1180.50 871Q1170 861 1157.50 855Q1145 849 1130 850Q1116 851 1103.50 856Q1091 861 1078.50 866.50Q1066 872 1053.50 876.50Q1041 881 1028 882Q1012 884 1001 875.50Q990 867 984 855Q983 853 980 852.50Q977 852 973 852.50Q969 853 966.50 854Q964 855 964 857Q970 867 978 878.50Q986 890 996.50 899.50Q1007 909 1019.50 914.50Q1032 920 1047 919Q1060 918 1073 914Q1086 910 1099 904.50Q1112 899 1124.50 894.50Q1137 890 1149 889Q1166 887 1177 895.50Q1188 904 1196 918Q1197 921 1205.50 920Q1214 919 1213 917Z"  horiz-adv-x="929" vert-adv-y="1000"  />

      
      </font>
</defs>
</svg>
