<svg width="39" height="40" viewBox="0 0 39 40" fill="none" xmlns="http://www.w3.org/2000/svg">
<path d="M0.532361 36.8944L0.515216 36.9137C-0.0513637 37.4957 -0.163618 38.3844 0.24309 39.0899C0.653925 39.8024 1.49196 40.1504 2.2867 39.9384L12.8236 37.1286C14.7889 37.8113 16.8985 38.1817 19.0908 38.1817C29.6344 38.1817 38.1817 29.6344 38.1817 19.0908C38.1817 8.54726 29.6344 0 19.0908 0C8.5473 0 3.60846e-05 8.54726 3.60846e-05 19.0908C3.60846e-05 22.9143 1.12583 26.4795 3.06399 29.4675C3.00823 30.0455 2.91324 30.7083 2.76261 31.4615C2.34532 33.5481 1.7293 34.9615 1.25158 35.8215C1.01205 36.2526 0.805306 36.5481 0.672234 36.7221C0.605634 36.8091 0.557325 36.8661 0.532361 36.8944Z" fill="#CCCCCC"/>
</svg>
