<?xml version="1.0" ?><!DOCTYPE svg  PUBLIC '-//W3C//DTD SVG 1.1//EN'  'http://www.w3.org/Graphics/SVG/1.1/DTD/svg11.dtd'><svg height="100%" style="fill-rule:evenodd;clip-rule:evenodd;stroke-linejoin:round;stroke-miterlimit:2;" version="1.1" viewBox="0 0 32 32" width="100%" xml:space="preserve" xmlns="http://www.w3.org/2000/svg" xmlns:serif="http://www.serif.com/" xmlns:xlink="http://www.w3.org/1999/xlink"><path fill="#ffffff" d="M11.169,3.99l9.637,-0c-0.148,-0.414 -0.386,-0.795 -0.703,-1.111c-0.563,-0.563 -1.326,-0.879 -2.122,-0.879c-1.218,-0 -2.769,-0 -3.987,-0c-0.796,-0 -1.559,0.316 -2.121,0.879c-0.317,0.316 -0.556,0.697 -0.704,1.111Z"/><path fill="#ffffff" d="M5.984,7.99l-0,18.989c-0,0.796 0.316,1.559 0.878,2.121c0.563,0.563 1.326,0.879 2.122,0.879c3.463,-0 10.536,-0 14,-0c0.795,-0 1.558,-0.316 2.121,-0.879c0.563,-0.562 0.879,-1.325 0.879,-2.121l-0,-18.989l1.012,-0c0.552,-0 1,-0.448 1,-1c-0,-0.552 -0.448,-1 -1,-1l-22.004,-0c-0.552,-0 -1,0.448 -1,1c-0,0.552 0.448,1 1,1l0.992,-0Zm9.004,5.011l0.012,10c0.001,0.552 0.449,1 1.001,0.999c0.552,-0.001 1,-0.449 0.999,-1.001l-0.012,-10c-0.001,-0.552 -0.45,-1 -1.002,-0.999c-0.552,0.001 -0.999,0.449 -0.998,1.001Zm3.993,0l0.013,10c0,0.552 0.449,1 1.001,0.999c0.552,-0.001 0.999,-0.449 0.999,-1.001l-0.013,-10c-0,-0.552 -0.449,-1 -1.001,-0.999c-0.552,0.001 -0.999,0.449 -0.999,1.001Zm-7.987,0l0.012,10c0.001,0.552 0.45,1 1.001,0.999c0.552,-0.001 1,-0.449 0.999,-1.001l-0.012,-10c-0.001,-0.552 -0.45,-1 -1.001,-0.999c-0.552,0.001 -1,0.449 -0.999,1.001Z"/></svg>