<svg width="20" height="20" viewBox="0 0 20 20" fill="none" xmlns="http://www.w3.org/2000/svg">
<path d="M13.6212 7.46731L11.0875 10L13.6212 12.5327C13.6926 12.6042 13.7493 12.689 13.788 12.7824C13.8267 12.8758 13.8466 12.9758 13.8466 13.0769C13.8466 13.178 13.8267 13.2781 13.788 13.3715C13.7493 13.4648 13.6926 13.5497 13.6212 13.6212C13.5497 13.6926 13.4648 13.7493 13.3715 13.788C13.2781 13.8267 13.178 13.8466 13.0769 13.8466C12.9759 13.8466 12.8758 13.8267 12.7824 13.788C12.689 13.7493 12.6042 13.6926 12.5327 13.6212L10 11.0875L7.46731 13.6212C7.39584 13.6926 7.31099 13.7493 7.21762 13.788C7.12424 13.8267 7.02415 13.8466 6.92308 13.8466C6.82201 13.8466 6.72192 13.8267 6.62854 13.788C6.53516 13.7493 6.45032 13.6926 6.37885 13.6212C6.30738 13.5497 6.25069 13.4648 6.21201 13.3715C6.17333 13.2781 6.15342 13.178 6.15342 13.0769C6.15342 12.9758 6.17333 12.8758 6.21201 12.7824C6.25069 12.689 6.30738 12.6042 6.37885 12.5327L8.9125 10L6.37885 7.46731C6.23451 7.32297 6.15342 7.1272 6.15342 6.92308C6.15342 6.71895 6.23451 6.52318 6.37885 6.37884C6.52319 6.23451 6.71895 6.15342 6.92308 6.15342C7.12721 6.15342 7.32297 6.23451 7.46731 6.37884L10 8.9125L12.5327 6.37884C12.6042 6.30737 12.689 6.25068 12.7824 6.212C12.8758 6.17332 12.9759 6.15342 13.0769 6.15342C13.178 6.15342 13.2781 6.17332 13.3715 6.212C13.4648 6.25068 13.5497 6.30737 13.6212 6.37884C13.6926 6.45031 13.7493 6.53516 13.788 6.62854C13.8267 6.72192 13.8466 6.822 13.8466 6.92308C13.8466 7.02415 13.8267 7.12423 13.788 7.21761C13.7493 7.31099 13.6926 7.39584 13.6212 7.46731ZM20 10C20 11.9778 19.4135 13.9112 18.3147 15.5557C17.2159 17.2002 15.6541 18.4819 13.8268 19.2388C11.9996 19.9957 9.98891 20.1937 8.0491 19.8078C6.10929 19.422 4.32746 18.4696 2.92894 17.0711C1.53041 15.6725 0.578004 13.8907 0.192152 11.9509C-0.1937 10.0111 0.00433284 8.00042 0.761209 6.17316C1.51809 4.3459 2.79981 2.78412 4.4443 1.6853C6.08879 0.58649 8.02219 0 10 0C12.6513 0.00279983 15.1932 1.05727 17.068 2.93202C18.9427 4.80678 19.9972 7.34869 20 10ZM18.4615 10C18.4615 8.32646 17.9653 6.69051 17.0355 5.29902C16.1057 3.90753 14.7842 2.82299 13.2381 2.18256C11.6919 1.54212 9.99062 1.37456 8.34924 1.70105C6.70786 2.02754 5.20016 2.83342 4.01679 4.01679C2.83343 5.20016 2.02754 6.70786 1.70105 8.34923C1.37456 9.99061 1.54213 11.6919 2.18256 13.2381C2.823 14.7842 3.90753 16.1057 5.29902 17.0355C6.69052 17.9653 8.32647 18.4615 10 18.4615C12.2434 18.459 14.3941 17.5667 15.9804 15.9804C17.5667 14.3941 18.459 12.2434 18.4615 10Z" fill="#1C376D"/>
</svg>
