<svg width="28" height="24" viewBox="0 0 28 24" fill="#ff0000" xmlns="http://www.w3.org/2000/svg">
<path fill="#018536" id="Vector" d="M20.25 0C17.6688 0 15.4088 1.11026 14 2.98695C12.5912 1.11026 10.3313 0 7.75 0C5.69528 0.00231647 3.72539 0.819769 2.27248 2.27302C0.819575 3.72626 0.00231592 5.69663 0 7.75183C0 16.5039 12.9738 23.5881 13.5262 23.8806C13.6719 23.959 13.8346 24 14 24C14.1654 24 14.3281 23.959 14.4737 23.8806C15.0262 23.5881 28 16.5039 28 7.75183C27.9977 5.69663 27.1804 3.72626 25.7275 2.27302C24.2746 0.819769 22.3047 0.00231647 20.25 0ZM14 21.8552C11.7175 20.5248 2 14.4647 2 7.75183C2.00198 6.22708 2.60842 4.76536 3.68633 3.6872C4.76423 2.60904 6.22561 2.00246 7.75 2.00047C10.1812 2.00047 12.2225 3.29578 13.075 5.37627C13.1503 5.55972 13.2785 5.71663 13.4432 5.82706C13.6079 5.93749 13.8017 5.99645 14 5.99645C14.1983 5.99645 14.3921 5.93749 14.5568 5.82706C14.7215 5.71663 14.8497 5.55972 14.925 5.37627C15.7775 3.29203 17.8188 2.00047 20.25 2.00047C21.7744 2.00246 23.2358 2.60904 24.3137 3.6872C25.3916 4.76536 25.998 6.22708 26 7.75183C26 14.4547 16.28 20.5236 14 21.8552Z"/>
</svg>
