<svg width="24" height="23" viewBox="0 0 24 23" fill="none" xmlns="http://www.w3.org/2000/svg">
<path d="M22.0803 8.25887H20.5527C20.732 9.26571 20.3014 10.3271 19.3803 10.897C18.9733 11.1486 18.5063 11.2817 18.0292 11.2817C17.1316 11.2817 16.3139 10.8264 15.8423 10.0637C15.5087 9.52425 15.4006 8.87824 15.5123 8.25882H8.4879C8.59903 8.87824 8.49098 9.5242 8.15748 10.064C7.68621 10.8264 6.86858 11.2816 5.97097 11.2816C5.49354 11.2816 5.02657 11.1485 4.61929 10.8969C3.69841 10.327 3.26762 9.26566 3.44715 8.25882H1.91966C0.859282 8.25882 0 9.11811 0 10.1785C0 11.2383 0.859282 12.0975 1.91966 12.0975H2.13141L3.53917 20.6593C3.68677 21.555 4.46064 22.2127 5.36886 22.2127H18.6311C19.5393 22.2127 20.3131 21.555 20.4606 20.6593L21.868 12.0976H22.0803C23.1406 12.0976 24 11.2383 24 10.1785C24 9.11815 23.1405 8.25887 22.0803 8.25887ZM8.1855 19.9917C8.12751 20.0002 8.07011 20.0047 8.01325 20.0047C7.45299 20.0047 6.96192 19.5944 6.87558 19.0234L6.07834 13.7097C5.98393 13.0805 6.41721 12.4942 7.04645 12.3998C7.67648 12.3081 8.26157 12.7387 8.35638 13.3675L9.15381 18.6817C9.24822 19.3108 8.81474 19.8972 8.1855 19.9917ZM13.1519 18.8524C13.1519 19.4889 12.6365 20.0045 12.0004 20.0045C11.364 20.0045 10.8489 19.4887 10.8489 18.8524V13.5384C10.8489 12.9026 11.364 12.3868 12.0004 12.3868C12.6365 12.3868 13.1519 12.9026 13.1519 13.5384V18.8524ZM17.922 13.7096L17.1242 19.0233C17.0385 19.5944 16.5474 20.0046 15.9872 20.0046C15.9301 20.0046 15.8729 20.0001 15.8147 19.9916C15.1856 19.8971 14.7522 19.3107 14.8466 18.6816L15.6439 13.3674C15.7387 12.7382 16.3214 12.3049 16.9538 12.3997C17.5829 12.4941 18.0163 13.0804 17.922 13.7096Z" fill="#018536"/>
<path d="M5.02388 10.244C5.31905 10.4269 5.64716 10.5139 5.97137 10.5139C6.57475 10.5139 7.16468 10.2108 7.50473 9.66008C7.81837 9.15282 7.84536 8.55286 7.63864 8.03925L11.0585 2.51207C11.3676 2.0123 11.213 1.35768 10.7132 1.04804C10.5389 0.940333 10.3455 0.888507 10.1547 0.888507C9.79851 0.888507 9.45059 1.0675 9.24886 1.39327L5.83012 6.92045C5.27851 6.96474 4.75351 7.25585 4.43986 7.76296C3.91589 8.60953 4.1781 9.72036 5.02388 10.244Z" fill="#018536"/>
<path d="M16.3622 8.03925C16.1555 8.55286 16.1819 9.15282 16.4956 9.66008C16.8362 10.2109 17.4256 10.5139 18.0295 10.5139C18.3536 10.5139 18.6813 10.4269 18.977 10.244C19.8228 9.72036 20.0844 8.60948 19.5606 7.76296C19.2478 7.25585 18.7223 6.96474 18.1712 6.92045L14.7511 1.39327C14.5499 1.06745 14.202 0.888507 13.8456 0.888507C13.655 0.888507 13.4616 0.940333 13.287 1.04804C12.7874 1.35768 12.634 2.0123 12.9419 2.51207L16.3622 8.03925Z" fill="#018536"/>
</svg>
