<svg width="27" height="25" viewBox="0 0 27 25" fill="none" xmlns="http://www.w3.org/2000/svg">
<path d="M17.6563 0.00644135C17.3806 -0.0237833 17.0813 0.0495574 16.8324 0.286011L11.3589 5.54193L7.76879 2.07526C7.36962 1.56395 6.47402 1.51173 6.00315 1.96343C5.53229 2.41513 5.58787 3.25793 6.12086 3.64085L9.71099 7.10752H3.76669C1.88334 7.10752 0 8.89677 0 10.686V21.4215C0 23.2108 1.88334 25 3.76669 25H22.6001C24.4835 25 26.3668 23.2108 26.3668 21.4215V10.686C26.3668 8.89677 24.4835 7.10752 22.6001 7.10752H13.0068L18.4803 1.8516C19.2101 1.15823 18.4834 0.0971152 17.6563 0.00644135ZM11.3001 10.686C16.9501 10.686 18.8334 10.686 18.8334 16.0538C18.8334 21.4215 16.9501 21.4215 11.3001 21.4215C5.65003 21.4215 3.76669 21.4215 3.76669 16.0538C3.76669 10.686 5.65003 10.686 11.3001 10.686ZM22.6001 10.9097C23.5102 10.9097 24.248 11.6106 24.248 12.4753C24.248 13.3399 23.5102 14.0409 22.6001 14.0409C21.69 14.0409 20.9522 13.3399 20.9522 12.4753C20.9522 11.6106 21.69 10.9097 22.6001 10.9097ZM22.6001 16.2774C23.5102 16.2774 24.248 16.9784 24.248 17.843C24.248 18.7077 23.5102 19.4086 22.6001 19.4086C21.69 19.4086 20.9522 18.7077 20.9522 17.843C20.9522 16.9784 21.69 16.2774 22.6001 16.2774Z" fill="#018536"/>
</svg>
