<svg width="24" height="24" viewBox="0 0 24 24" fill="none" xmlns="http://www.w3.org/2000/svg">
<path d="M24 15V22C24 22.5304 23.7893 23.0391 23.4142 23.4142C23.0391 23.7893 22.5304 24 22 24H2C1.46957 24 0.960859 23.7893 0.585786 23.4142C0.210714 23.0391 0 22.5304 0 22V15C0 14.7348 0.105357 14.4804 0.292893 14.2929C0.48043 14.1054 0.734784 14 1 14C1.26522 14 1.51957 14.1054 1.70711 14.2929C1.89464 14.4804 2 14.7348 2 15V22H22V15C22 14.7348 22.1054 14.4804 22.2929 14.2929C22.4804 14.1054 22.7348 14 23 14C23.2652 14 23.5196 14.1054 23.7071 14.2929C23.8946 14.4804 24 14.7348 24 15ZM11.2925 15.7075C11.3854 15.8005 11.4957 15.8742 11.6171 15.9246C11.7385 15.9749 11.8686 16.0008 12 16.0008C12.1314 16.0008 12.2615 15.9749 12.3829 15.9246C12.5043 15.8742 12.6146 15.8005 12.7075 15.7075L17.7075 10.7075C17.8004 10.6146 17.8741 10.5043 17.9244 10.3829C17.9747 10.2615 18.0006 10.1314 18.0006 10C18.0006 9.8686 17.9747 9.7385 17.9244 9.6171C17.8741 9.49571 17.8004 9.38541 17.7075 9.2925C17.6146 9.19959 17.5043 9.12589 17.3829 9.07561C17.2615 9.02532 17.1314 8.99944 17 8.99944C16.8686 8.99944 16.7385 9.02532 16.6171 9.07561C16.4957 9.12589 16.3854 9.19959 16.2925 9.2925L13 12.5863V1C13 0.734784 12.8946 0.48043 12.7071 0.292893C12.5196 0.105357 12.2652 0 12 0C11.7348 0 11.4804 0.105357 11.2929 0.292893C11.1054 0.48043 11 0.734784 11 1V12.5863L7.7075 9.2925C7.51986 9.10486 7.26536 8.99944 7 8.99944C6.73464 8.99944 6.48014 9.10486 6.2925 9.2925C6.10486 9.48014 5.99944 9.73464 5.99944 10C5.99944 10.2654 6.10486 10.5199 6.2925 10.7075L11.2925 15.7075Z" fill="white"/>
</svg>
