<svg width="20" height="14" viewBox="0 0 20 14" fill="none" xmlns="http://www.w3.org/2000/svg">
<path d="M19.9425 6.39667C19.9133 6.33084 19.2075 4.765 17.6383 3.19584C15.5475 1.105 12.9067 0 10 0C7.09333 0 4.4525 1.105 2.36166 3.19584C0.792493 4.765 0.0833254 6.33334 0.0574921 6.39667C0.0195863 6.48193 0 6.5742 0 6.6675C0 6.76081 0.0195863 6.85308 0.0574921 6.93834C0.0866587 7.00417 0.792493 8.56917 2.36166 10.1383C4.4525 12.2283 7.09333 13.3333 10 13.3333C12.9067 13.3333 15.5475 12.2283 17.6383 10.1383C19.2075 8.56917 19.9133 7.00417 19.9425 6.93834C19.9804 6.85308 20 6.76081 20 6.6675C20 6.5742 19.9804 6.48193 19.9425 6.39667ZM10 12C7.435 12 5.19416 11.0675 3.33916 9.22917C2.57803 8.47225 1.93048 7.60913 1.41666 6.66667C1.93034 5.72412 2.57791 4.86098 3.33916 4.10417C5.19416 2.26584 7.435 1.33333 10 1.33333C12.565 1.33333 14.8058 2.26584 16.6608 4.10417C17.4234 4.8608 18.0724 5.72394 18.5875 6.66667C17.9867 7.78834 15.3692 12 10 12ZM10 2.66667C9.20887 2.66667 8.43551 2.90127 7.77772 3.34079C7.11992 3.78032 6.60723 4.40503 6.30448 5.13594C6.00173 5.86684 5.92251 6.67111 6.07686 7.44703C6.2312 8.22296 6.61216 8.93569 7.17157 9.4951C7.73098 10.0545 8.44371 10.4355 9.21964 10.5898C9.99556 10.7442 10.7998 10.6649 11.5307 10.3622C12.2616 10.0594 12.8864 9.54675 13.3259 8.88895C13.7654 8.23116 14 7.4578 14 6.66667C13.9989 5.60614 13.5771 4.58937 12.8272 3.83946C12.0773 3.08955 11.0605 2.66777 10 2.66667ZM10 9.33334C9.47258 9.33334 8.95701 9.17694 8.51848 8.88393C8.07995 8.59091 7.73815 8.17443 7.53632 7.68716C7.33449 7.19989 7.28168 6.66371 7.38457 6.14643C7.48746 5.62915 7.74144 5.15399 8.11438 4.78105C8.48732 4.40811 8.96248 4.15414 9.47976 4.05124C9.99704 3.94835 10.5332 4.00116 11.0205 4.20299C11.5078 4.40482 11.9242 4.74662 12.2173 5.18515C12.5103 5.62368 12.6667 6.13925 12.6667 6.66667C12.6667 7.37392 12.3857 8.05219 11.8856 8.55229C11.3855 9.05239 10.7072 9.33334 10 9.33334Z" fill="#018536"/>
</svg>
