<svg width="27" height="25" viewBox="0 0 27 25" fill="none" xmlns="http://www.w3.org/2000/svg">
<path d="M14.8648 0C8.52426 0 3.36503 4.89184 3.36503 10.9047C3.36503 13.0717 4.04275 15.0864 5.19679 16.7856L0.528555 21.1421L0.53873 21.1539C-0.182006 21.8609 -0.182006 22.9851 0.553417 23.6793C1.28433 24.3787 2.4723 24.3819 3.21906 23.6964L3.23038 23.7103L7.77531 19.4729C9.73154 20.9318 12.1913 21.8115 14.8671 21.8115C21.2076 21.8115 26.3668 16.9197 26.3668 10.9068C26.3645 4.89184 21.2053 0 14.8648 0ZM2.44629 23.0163C2.11705 23.3252 1.5853 23.3263 1.25375 23.013C0.927921 22.7009 0.925613 22.1967 1.25375 21.8866C1.58189 21.5766 2.11364 21.5745 2.44288 21.8855C2.77101 22.1978 2.77101 22.7031 2.44629 23.0163ZM21.814 9.39642C21.6906 10.216 20.2096 11.1515 20.5796 11.97C20.9496 12.7885 20.3329 13.7239 20.3329 13.7239C20.3329 13.7239 19.7163 16.4134 19.3463 16.7642C18.9763 17.115 16.7565 18.0515 17.2487 18.6362C17.7442 19.2198 19.2219 18.5203 20.7029 18.1674C21.0684 18.0805 21.4338 17.9732 21.7834 17.8499C19.9743 19.4708 17.5429 20.4717 14.8648 20.4717C12.5828 20.4717 10.4817 19.7401 8.78909 18.5246L12.7558 14.8257L17.9706 14.8118L19.3949 9.75902L18.8293 9.21728L15.9995 11.9067L13.2321 9.28487L16.0641 6.59866L15.4984 6.05906L10.1683 7.41502L10.1513 12.221L10.1207 12.1921L6.22752 15.8245C5.53736 14.7399 5.07007 13.5202 4.87998 12.2125C5.73536 11.7898 7.12811 11.0796 7.62934 10.6848C8.36817 10.1002 7.3804 9.86629 7.25934 9.51443C7.13603 9.16362 7.25934 8.34512 7.25934 7.52657C7.25934 6.70698 8.98363 6.70589 9.60025 5.88843C10.0415 5.30591 9.23367 4.02182 8.73019 3.32452C10.4318 2.08335 12.5555 1.33562 14.8636 1.33562C15.4746 1.33562 16.0708 1.39569 16.6524 1.49546C16.8243 2.50279 17.1796 3.88879 17.8652 4.25034C18.974 4.83395 20.3329 6.12123 20.8262 6.35512C21.3229 6.59006 21.9361 8.57896 21.814 9.39642ZM23.295 10.0991C22.684 9.68392 22.1839 7.87629 22.555 7.29164C22.7768 6.93868 23.3561 6.63079 23.7838 6.44091C24.5294 7.77434 24.9559 9.29233 24.9559 10.9047C24.9559 11.3885 24.905 11.8616 24.8326 12.3261C24.6153 11.5033 24.1945 10.7116 23.295 10.0991Z" fill="#018536"/>
</svg>
