<svg width="27" height="25" viewBox="0 0 27 25" fill="none" xmlns="http://www.w3.org/2000/svg">
<path fill-rule="evenodd" clip-rule="evenodd" d="M17.076 0L17.0762 2.89057C18.0934 3.2733 19.035 3.80161 19.8733 4.44892L22.4742 3.0024L26.3668 9.4976L23.767 10.9436C23.8468 11.4512 23.8882 11.971 23.8882 12.5C23.8882 13.029 23.8468 13.5488 23.767 14.0564L26.3668 15.5024L22.4742 21.9976L19.8733 20.5511C19.035 21.1984 18.0934 21.7267 17.0762 22.1094L17.076 25H9.29076L9.29067 22.1095C8.27341 21.7267 7.33183 21.1984 6.49352 20.5511L3.89264 21.9976L0 15.5024L2.59976 14.0564C2.52 13.5488 2.47864 13.0291 2.47864 12.5C2.47864 11.9709 2.52 11.4512 2.59976 10.9436L0 9.4976L3.89264 3.0024L6.49346 4.44892C7.33178 3.8016 8.27339 3.27328 9.29067 2.89055L9.29076 0H17.076ZM13.1834 8.75C11.0336 8.75 9.29076 10.4289 9.29076 12.5C9.29076 14.5711 11.0336 16.25 13.1834 16.25C15.3332 16.25 17.076 14.5711 17.076 12.5C17.076 10.4289 15.3332 8.75 13.1834 8.75Z" fill="#018536"/>
</svg>
