<svg width="12" height="6" viewBox="0 0 12 6" fill="none" xmlns="http://www.w3.org/2000/svg">
<path d="M11.824 0.159952C11.7683 0.109244 11.7022 0.0690184 11.6293 0.0415726C11.5565 0.0141268 11.4784 0 11.3996 0C11.3207 0 11.2427 0.0141268 11.1698 0.0415726C11.097 0.0690184 11.0308 0.109244 10.9751 0.159952L5.99993 4.68317L1.02476 0.159952C0.912188 0.0576167 0.759501 0.000124931 0.600293 0.000124931C0.441086 0.000124931 0.288399 0.0576167 0.175822 0.159952C0.063245 0.262286 1.18619e-09 0.401082 0 0.545805C-1.18619e-09 0.690528 0.063245 0.829325 0.175822 0.93166L5.57546 5.84005C5.63118 5.89076 5.69735 5.93098 5.77018 5.95843C5.84302 5.98587 5.92109 6 5.99993 6C6.07877 6 6.15685 5.98587 6.22968 5.95843C6.30251 5.93098 6.36868 5.89076 6.4244 5.84005L11.824 0.93166C11.8798 0.881009 11.9241 0.820859 11.9543 0.754652C11.9845 0.688444 12 0.617476 12 0.545805C12 0.474134 11.9845 0.403166 11.9543 0.336959C11.9241 0.270751 11.8798 0.210602 11.824 0.159952Z" fill="#018536"/>
</svg>
