<svg width="23" height="22" viewBox="0 0 23 22" fill="none" xmlns="http://www.w3.org/2000/svg">
<path d="M18.1195 9.79883C17.8033 9.79883 17.5469 10.0554 17.5469 10.3719V15.6674C17.5469 15.9838 17.8033 16.2405 18.1195 16.2405C18.4358 16.2405 18.6927 15.9838 18.6927 15.6674V10.3719C18.6927 10.0554 18.4359 9.79883 18.1195 9.79883Z" fill="white"/>
<path d="M4.88562 9.79883C4.56911 9.79883 4.3125 10.0554 4.3125 10.3719V15.6674C4.3125 15.9838 4.56911 16.2405 4.88562 16.2405C5.20185 16.2405 5.45828 15.9838 5.45828 15.6674V10.3719C5.45828 10.0554 5.20185 9.79883 4.88562 9.79883Z" fill="white"/>
<path d="M21.7224 10.0907C21.6882 7.40985 20.6292 4.89421 18.7293 2.99437C16.7983 1.06335 14.2307 0 11.4999 0C8.7691 0 6.20169 1.0634 4.27054 2.99437C2.37069 4.89421 1.31175 7.4098 1.27758 10.0908C0.50722 10.6134 0 11.4963 0 12.4952V13.5423C0 15.1431 1.30255 16.4457 2.90359 16.4457C3.33397 16.4457 3.68263 16.0968 3.68263 15.6665V10.3709C3.68263 9.94051 3.33397 9.59184 2.90359 9.59184C2.8259 9.59184 2.74953 9.5956 2.6734 9.60166C2.83369 7.30677 3.8725 5.25076 5.45508 3.76787C5.4908 3.92544 5.55328 4.07968 5.64476 4.22407C6.07191 4.89736 6.96379 5.09685 7.63708 4.66961C8.78473 3.9414 10.1204 3.55646 11.5 3.55646C12.8796 3.55646 14.2152 3.9414 15.3628 4.66961C16.0362 5.09685 16.928 4.89736 17.3552 4.22407C17.4467 4.07968 17.5092 3.92549 17.5449 3.76787C19.1274 5.25076 20.1662 7.30682 20.3266 9.60166C20.2504 9.5956 20.1741 9.59184 20.0964 9.59184C19.666 9.59184 19.3174 9.94051 19.3174 10.3709V15.6665C19.3174 15.9872 19.511 16.2625 19.7878 16.3817C19.6883 16.6774 19.5717 16.9601 19.434 17.2259C18.765 18.5163 17.6813 19.3008 16.0863 19.6282C15.8637 19.2344 15.4415 18.9686 14.9572 18.9686H12.7843C12.0685 18.9686 11.4878 19.5491 11.4878 20.2653V20.4296C11.4878 21.1456 12.0685 21.726 12.7843 21.726H14.9572C15.4618 21.726 15.8986 21.4375 16.113 21.0168C16.9397 20.869 17.6742 20.6226 18.3085 20.2771C19.3187 19.7272 20.1082 18.9135 20.6547 17.8583C20.9235 17.3397 21.125 16.7791 21.2761 16.1943C22.2908 15.7413 23 14.7232 23 13.5422V12.4951C23 11.4963 22.4928 10.6134 21.7224 10.0907Z" fill="white"/>
</svg>
