<svg width="26" height="26" viewBox="0 0 26 26" fill="none" xmlns="http://www.w3.org/2000/svg">
<path d="M25.0182 11.1649C24.9941 11.1067 24.9591 11.0543 24.9156 11.0103L19.2433 5.33851C19.0585 5.15367 18.7597 5.15367 18.5749 5.33851C18.3901 5.52335 18.3901 5.82211 18.5749 6.00695L23.4407 10.8727H13.2364C12.975 10.8727 12.7637 11.084 12.7637 11.3455C12.7637 11.6069 12.975 11.8182 13.2364 11.8182H23.4407L18.5749 16.684C18.3901 16.8688 18.3901 17.1676 18.5749 17.3524C18.6671 17.4446 18.7881 17.4909 18.9091 17.4909C19.0301 17.4909 19.1512 17.4446 19.2433 17.3524L24.9156 11.6801C24.9596 11.6367 24.9941 11.5842 25.0182 11.526C25.0659 11.4107 25.0659 11.2802 25.0182 11.1649Z" fill="#018536"/>
<path d="M16.5455 13.7091C16.284 13.7091 16.0727 13.9204 16.0727 14.1818V21.7455H11.3455V3.78182C11.3455 3.57571 11.2121 3.39371 11.016 3.33131L3.51756 0.945455H16.0727V8.50909C16.0727 8.77051 16.284 8.98182 16.5455 8.98182C16.8069 8.98182 17.0182 8.77051 17.0182 8.50909V0.472727C17.0182 0.211309 16.8069 0 16.5455 0H0.472727C0.4576 0 0.444364 0.00709091 0.429709 0.00850909C0.403236 0.0108727 0.380073 0.0170182 0.355018 0.0236364C0.310582 0.0354545 0.270873 0.0515273 0.232582 0.0746909C0.220291 0.0822545 0.205636 0.0822545 0.193818 0.0907636C0.179164 0.101636 0.167818 0.115345 0.154582 0.127164C0.146545 0.134727 0.138036 0.141345 0.130473 0.149382C0.0945454 0.188145 0.0652364 0.231164 0.0434909 0.278436C0.0392364 0.287891 0.0368727 0.297345 0.0330909 0.3068C0.0132363 0.359745 0 0.415055 0 0.472727V22.2182C0 22.2773 0.013709 22.3331 0.0340363 22.386C0.0406545 22.4035 0.0505818 22.4181 0.0590909 22.4347C0.0765818 22.4683 0.0964363 22.499 0.121491 22.5273C0.1352 22.5425 0.148909 22.5562 0.164036 22.5699C0.191455 22.594 0.222182 22.6139 0.255273 22.6313C0.272764 22.6408 0.288836 22.6507 0.307745 22.6578C0.315782 22.6607 0.321927 22.6663 0.329964 22.6692L10.73 25.9783C10.7763 25.9924 10.8245 26 10.8727 26C10.972 26 11.0699 25.9688 11.1516 25.9092C11.2736 25.8204 11.3455 25.6785 11.3455 25.5273V22.6909H16.5455C16.8069 22.6909 17.0182 22.4796 17.0182 22.2182V14.1818C17.0182 13.9204 16.8064 13.7091 16.5455 13.7091Z" fill="#018536"/>
</svg>
