<svg width="23" height="23" viewBox="0 0 23 23" fill="none" xmlns="http://www.w3.org/2000/svg">
<path d="M22.7994 4.56439C22.7195 4.46871 22.6195 4.39175 22.5065 4.33895C22.3936 4.28615 22.2704 4.25879 22.1457 4.25882H4.97L4.44937 1.39902C4.37806 1.0065 4.17125 0.651461 3.865 0.395795C3.55874 0.140129 3.17248 5.76584e-05 2.77353 0H0.851757C0.625857 0 0.409209 0.089739 0.249474 0.249476C0.0897384 0.409212 0 0.625862 0 0.851763C0 1.07766 0.0897384 1.29431 0.249474 1.45405C0.409209 1.61379 0.625857 1.70353 0.851757 1.70353H2.76821L5.48958 16.6403C5.56974 17.0832 5.7655 17.4972 6.05706 17.8402C5.65465 18.216 5.36421 18.696 5.21793 19.2269C5.07165 19.7577 5.07525 20.3187 5.22833 20.8476C5.38141 21.3766 5.678 21.8528 6.08519 22.2234C6.49239 22.5941 6.99429 22.8447 7.53524 22.9476C8.07619 23.0504 8.63504 23.0014 9.14984 22.806C9.66464 22.6106 10.1153 22.2764 10.4517 21.8406C10.7882 21.4047 10.9974 20.8841 11.0561 20.3366C11.1148 19.7891 11.0207 19.2361 10.7843 18.7388H15.6202C15.4296 19.1377 15.331 19.5743 15.3316 20.0164C15.3316 20.6061 15.5065 21.1824 15.834 21.6727C16.1616 22.1629 16.6272 22.545 17.1719 22.7707C17.7167 22.9963 18.3161 23.0554 18.8944 22.9403C19.4727 22.8253 20.0039 22.5414 20.4208 22.1244C20.8377 21.7075 21.1216 21.1763 21.2367 20.598C21.3517 20.0197 21.2926 19.4203 21.067 18.8756C20.8414 18.3309 20.4593 17.8653 19.969 17.5377C19.4788 17.2101 18.9024 17.0353 18.3128 17.0353H8.00332C7.80385 17.0352 7.61072 16.9652 7.45759 16.8374C7.30447 16.7095 7.20106 16.532 7.16541 16.3358L6.8279 14.48H19.1784C19.7768 14.4799 20.3562 14.2698 20.8156 13.8863C21.2749 13.5028 21.5852 12.9702 21.6921 12.3814L22.9868 5.26283C23.0087 5.13979 23.0033 5.01344 22.9709 4.89274C22.9385 4.77203 22.88 4.65993 22.7994 4.56439ZM9.36933 20.0164C9.36933 20.2691 9.2944 20.5161 9.15401 20.7263C9.01362 20.9364 8.81408 21.1001 8.58062 21.1968C8.34717 21.2935 8.09028 21.3188 7.84244 21.2695C7.5946 21.2202 7.36695 21.0985 7.18827 20.9199C7.00959 20.7412 6.88791 20.5135 6.83861 20.2657C6.78931 20.0179 6.81461 19.761 6.91131 19.5275C7.00801 19.294 6.18001 21.4332 6.39012 21.2928C6.60022 21.1524 7.89574 21.4492 8.14844 21.4492C8.48729 21.4492 9.64593 20.9572 9.88554 21.1968C10.1251 21.4364 9.36933 19.6776 9.36933 20.0164ZM19.5904 20.0164C19.5904 20.2691 19.5155 20.5161 19.3751 20.7263C19.2347 20.9364 19.0352 21.1001 18.8017 21.1968C18.5683 21.2935 18.3114 21.3188 18.0635 21.2695C17.8157 21.2202 17.588 21.0985 17.4094 20.9199C17.2307 20.7412 17.2915 19.2478 17.2422 19C17.1929 18.7522 16.963 19.5892 17.0597 19.3558C17.1564 19.1223 16.5922 21.1655 16.8023 21.0251C17.0124 20.8847 18.0601 21.6727 18.3128 21.6727C18.6516 21.6727 19.4833 21.2096 19.7229 21.4492C19.9625 21.6888 19.5904 19.6776 19.5904 20.0164ZM20.0163 12.0769C19.9805 12.2737 19.8767 12.4517 19.7229 12.5796C19.5691 12.7075 19.3752 12.7772 19.1752 12.7764H6.51807L6.08519 13.4492H13.6484H19.969L20.0163 12.0769Z" fill="#018536"/>
</svg>
