<svg width="290" height="49" viewBox="0 0 290 49" fill="none" xmlns="http://www.w3.org/2000/svg">
<path d="M6.552 19.608L6.488 8.792C6.488 7.21333 6.168 6.01867 5.528 5.208C4.888 4.35466 4.16267 3.88533 3.352 3.8C2.584 3.672 1.88 3.52266 1.24 3.352C0.6 3.18133 0.28 2.88266 0.28 2.456C0.28 1.77333 0.898667 1.432 2.136 1.432H12.76L19.16 1.24C23 1.24 26.2853 2.22133 29.016 4.184C31.7467 6.104 33.112 8.70667 33.112 11.992C33.112 14.168 32.6853 16.088 31.832 17.752C31.0213 19.3733 30.104 20.5467 29.08 21.272C28.0987 21.9973 27.1813 22.6373 26.328 23.192C25.5173 23.704 25.112 24.0453 25.112 24.216C25.112 24.728 26.904 27.5013 30.488 32.536C34.072 37.528 36.5253 40.728 37.848 42.136C39.4693 44.1413 41.432 45.144 43.736 45.144C44.3333 45.144 44.632 45.4 44.632 45.912C44.632 46.552 44.376 46.9787 43.864 47.192C43.352 47.4053 42.0507 47.512 39.96 47.512C37.912 47.512 36.056 47.0213 34.392 46.04C32.088 44.7173 28.2693 39.5973 22.936 30.68C20.888 27.352 19.3093 25.688 18.2 25.688H12.952C12.44 25.688 12.12 25.9013 11.992 26.328C11.9067 26.7547 11.864 28.0133 11.864 30.104C11.864 30.104 11.864 31.832 11.864 35.288L11.928 38.68C11.928 38.68 11.928 38.872 11.928 39.256C11.928 41.0053 12.3333 42.3707 13.144 43.352C13.9547 44.2907 14.8507 44.8453 15.832 45.016C16.856 45.144 17.7733 45.3147 18.584 45.528C19.3947 45.6987 19.8 45.9973 19.8 46.424C19.8 47.1067 19.416 47.448 18.648 47.448C18.648 47.448 15.5973 47.2987 9.496 47L2.456 47.256C1.56 47.256 1.112 46.9147 1.112 46.232C1.112 45.5067 2.008 45.0373 3.8 44.824C4.48267 44.7387 5.10133 44.2693 5.656 43.416C6.21067 42.5627 6.488 41.3467 6.488 39.768L6.552 19.608ZM11.864 12.696C11.864 17.0907 11.8853 19.8213 11.928 20.888C11.9707 21.912 12.12 22.5093 12.376 22.68C13.016 23.064 13.9333 23.256 15.128 23.256H17.624C21.2507 23.256 23.832 22.424 25.368 20.76C26.9467 19.096 27.736 16.9627 27.736 14.36C27.736 11.7147 26.6907 9.304 24.6 7.128C22.552 4.952 19.4373 3.864 15.256 3.864C13.6773 3.864 12.7173 4.29066 12.376 5.144C12.0347 5.95466 11.864 7.87466 11.864 10.904V12.696ZM48.546 19.416L48.674 10.2C48.674 7.85333 48.3967 6.25333 47.842 5.4C47.2873 4.504 45.986 3.90667 43.938 3.608C42.9993 3.48 42.53 3.07466 42.53 2.392C42.53 2.05066 42.658 1.83733 42.914 1.752C43.17 1.624 43.5327 1.56 44.002 1.56L51.234 1.816L57.25 1.688C58.146 1.688 58.594 1.98667 58.594 2.584C58.594 2.968 58.4447 3.20266 58.146 3.288C57.8473 3.37333 57.4633 3.43733 56.994 3.48C56.5673 3.52267 56.1407 3.672 55.714 3.928C54.6473 4.52533 54.114 6.50933 54.114 9.88V11.672L54.05 25.496C54.05 29.72 54.178 32.472 54.434 33.752C54.69 35.032 54.9887 36.2267 55.33 37.336C55.6713 38.4027 56.0767 39.256 56.546 39.896C57.058 40.536 57.6767 41.24 58.402 42.008C59.17 42.776 60.0447 43.3733 61.026 43.8C63.33 44.7387 65.954 45.208 68.898 45.208C73.506 45.208 76.706 44.696 78.498 43.672C79.266 43.2453 80.1407 42.584 81.122 41.688C82.146 40.7493 82.9353 39.6187 83.49 38.296C84.8127 35.1387 85.474 31.128 85.474 26.264L85.41 12.696C85.41 11.2027 85.3673 10.0293 85.282 9.176C85.2393 8.32267 85.026 7.384 84.642 6.36C84.3007 5.336 83.8527 4.632 83.298 4.248C82.7433 3.864 82.1247 3.62933 81.442 3.544C80.7593 3.416 80.2047 3.33066 79.778 3.288C79.3513 3.20266 79.138 3.01066 79.138 2.712C79.138 2.02933 79.5647 1.688 80.418 1.688L85.346 1.816L90.786 1.624C91.682 1.624 92.13 1.90133 92.13 2.456C92.13 2.79733 91.6607 3.24533 90.722 3.8C89.826 4.312 89.2713 4.78133 89.058 5.208C88.5887 6.104 88.354 7.512 88.354 9.432L88.418 13.72C88.418 21.912 88.0767 28.184 87.394 32.536C86.7113 36.888 85.666 40.0453 84.258 42.008C81.3993 46.1467 76.3433 48.216 69.09 48.216C61.8367 48.216 56.7167 46.8507 53.73 44.12C51.3833 41.944 49.9327 39.3413 49.378 36.312C48.8233 33.24 48.546 27.9707 48.546 20.504V19.416ZM97.4695 47.128C96.5735 47.128 96.1255 46.7867 96.1255 46.104C96.1255 45.5493 96.7655 45.2507 98.0455 45.208C98.5148 45.1653 99.0482 44.824 99.6455 44.184C100.243 43.5013 100.67 42.6053 100.926 41.496C101.182 40.3867 101.459 36.5893 101.758 30.104C102.056 23.6187 102.206 18.5413 102.206 14.872C102.206 11.16 101.779 8.49333 100.926 6.872C100.115 5.25067 98.3228 4.12 95.5495 3.48C94.9948 3.352 94.7175 3.032 94.7175 2.52C94.7175 1.88 95.1015 1.56 95.8695 1.56L99.2615 1.816L104.062 1.688C104.872 1.688 105.384 1.98667 105.598 2.584C106.11 3.69333 107.027 5.69866 108.35 8.6C109.672 11.4587 110.718 13.7413 111.486 15.448C112.296 17.1547 113.32 19.3307 114.558 21.976C115.795 24.6213 116.798 26.776 117.566 28.44C118.334 30.0613 119.123 31.704 119.934 33.368C120.787 35.032 121.427 36.2693 121.854 37.08C122.323 37.848 122.622 38.232 122.75 38.232C122.878 38.232 123.006 38.168 123.134 38.04C123.304 37.8693 123.454 37.656 123.582 37.4C123.752 37.144 123.88 36.888 123.966 36.632C124.094 36.376 124.243 36.056 124.414 35.672C124.627 35.2453 124.776 34.9253 124.862 34.712L133.118 17.688C135.379 13.08 136.894 9.85866 137.662 8.024L139.134 4.824C139.262 4.48266 139.347 4.22666 139.39 4.056C139.475 3.84266 139.539 3.69333 139.582 3.608C139.624 3.48 139.667 3.37333 139.71 3.288C139.752 3.20266 139.816 3.01066 139.902 2.712C140.03 2.41333 140.158 2.2 140.286 2.072C140.627 1.73066 141.246 1.56 142.142 1.56L147.646 1.688C148.371 1.688 148.734 1.96533 148.734 2.52C148.734 2.94666 148.584 3.26666 148.286 3.48C148.03 3.65066 147.411 3.8 146.43 3.928C145.491 4.056 144.808 4.58933 144.382 5.528C143.955 6.46666 143.742 9.048 143.742 13.272C143.742 17.4533 143.87 21.8907 144.126 26.584C144.382 31.2347 144.51 34.1573 144.51 35.352C144.51 39.6187 144.851 42.3493 145.534 43.544C146.216 44.696 147.646 45.272 149.822 45.272C150.12 45.272 150.376 45.3787 150.59 45.592C150.846 45.8053 150.974 45.9973 150.974 46.168C150.974 46.8507 150.739 47.192 150.27 47.192H149.566L143.038 46.936C143.038 46.936 140.819 47.0427 136.382 47.256C135.614 47.256 135.23 46.9573 135.23 46.36C135.23 45.72 135.806 45.336 136.958 45.208C137.384 45.1653 137.832 44.9093 138.302 44.44C138.814 43.928 139.155 43.224 139.326 42.328C139.539 41.3893 139.646 40.1093 139.646 38.488C139.646 36.8667 139.603 35.096 139.518 33.176C139.475 31.256 139.411 29.4 139.326 27.608C139.24 25.7733 139.155 24.0667 139.07 22.488C138.984 20.8667 138.92 19.544 138.878 18.52L138.75 16.984C138.75 15.1493 138.558 14.232 138.174 14.232C138.046 14.232 137.918 14.296 137.79 14.424C137.704 14.552 137.619 14.6587 137.534 14.744C137.448 14.8293 137.363 14.9787 137.278 15.192C137.192 15.3627 137.107 15.512 137.022 15.64C136.936 15.768 136.83 15.96 136.702 16.216C136.574 16.4293 136.467 16.6213 136.382 16.792L136.062 17.496C135.891 17.7947 135.763 18.0507 135.678 18.264L126.782 36.248C125.758 38.3387 124.755 40.3867 123.774 42.392C122.835 44.3973 122.28 45.5493 122.11 45.848C121.939 46.104 121.683 46.232 121.342 46.232C121.043 46.232 120.766 46.0613 120.51 45.72C120.254 45.336 119.87 44.5253 119.358 43.288C118.846 42.0507 118.398 41.0267 118.014 40.216C110.206 24.344 106.216 16.3013 106.046 16.088C105.875 15.832 105.726 15.704 105.598 15.704C105.256 15.704 105.086 16.5573 105.086 18.264L104.51 35.16V38.04C104.51 41.5387 105.214 43.6933 106.622 44.504C107.347 44.9307 108.051 45.1653 108.734 45.208C109.8 45.336 110.333 45.6347 110.333 46.104C110.333 46.5307 110.27 46.8293 110.142 47C110.014 47.128 109.758 47.192 109.374 47.192L102.718 46.936L97.4695 47.128ZM155.706 45.208L157.178 45.144C158.074 45.144 158.821 44.3973 159.418 42.904C159.802 41.9227 160.037 40.3653 160.122 38.232C160.207 36.0987 160.25 29.7627 160.25 19.224V8.344C160.25 7.66133 160.037 6.89333 159.61 6.04C158.757 4.248 157.093 3.352 154.618 3.352C153.893 3.352 153.53 3.096 153.53 2.584C153.53 1.944 153.722 1.624 154.106 1.624L156.666 1.688L166.01 1.624L173.05 1.432C176.933 1.432 180.175 2.37067 182.778 4.248C185.381 6.08267 186.682 8.70667 186.682 12.12C186.682 15.7893 184.762 18.7973 180.922 21.144C180.495 21.4427 180.282 21.6133 180.282 21.656C180.282 21.784 180.645 21.9547 181.37 22.168C182.095 22.3387 182.97 22.6587 183.994 23.128C185.018 23.5547 186.021 24.152 187.002 24.92C188.026 25.688 188.901 26.84 189.626 28.376C190.351 29.8693 190.714 31.5973 190.714 33.56C190.714 35.48 190.181 37.4853 189.114 39.576C188.047 41.6667 186.682 43.288 185.018 44.44C183.354 45.592 181.711 46.4027 180.09 46.872C178.469 47.2987 176.655 47.512 174.65 47.512C172.645 47.512 170.234 47.384 167.418 47.128C164.602 46.9147 163.045 46.808 162.746 46.808L157.242 47.064H156.346C155.45 47.064 155.002 46.7653 155.002 46.168C155.002 45.528 155.237 45.208 155.706 45.208ZM165.178 38.296L165.114 41.112C165.114 43.672 167.205 44.952 171.386 44.952H172.858C175.162 44.952 177.146 44.824 178.81 44.568C180.517 44.2693 182.01 43.2453 183.29 41.496C184.613 39.7467 185.274 37.7413 185.274 35.48C185.274 33.2187 184.89 31.3413 184.122 29.848C183.354 28.312 182.479 27.16 181.498 26.392C180.517 25.624 179.343 25.0267 177.978 24.6C176.101 24.0027 174.351 23.704 172.73 23.704L167.738 23.64L166.778 23.576C166.394 23.576 166.117 23.64 165.946 23.768C165.775 23.8533 165.605 24.2587 165.434 24.984C165.263 25.88 165.178 28.8667 165.178 33.944V38.296ZM165.498 12.12C165.498 17.496 165.647 20.4827 165.946 21.08C166.117 21.3787 167.333 21.528 169.594 21.528H173.69C176.378 21.528 178.383 20.824 179.706 19.416C181.071 18.008 181.754 16.152 181.754 13.848C181.754 11.544 180.623 9.28267 178.362 7.064C176.143 4.80266 172.965 3.672 168.826 3.672C167.503 3.672 166.607 4.07733 166.138 4.888C165.711 5.656 165.498 7.448 165.498 10.264V12.12ZM200.115 19.608L200.051 8.792C200.051 7.21333 199.731 6.01867 199.091 5.208C198.451 4.35466 197.725 3.88533 196.915 3.8C196.147 3.672 195.443 3.52266 194.803 3.352C194.163 3.18133 193.843 2.88266 193.843 2.456C193.843 1.77333 194.461 1.432 195.699 1.432H206.323L212.723 1.24C216.563 1.24 219.848 2.22133 222.579 4.184C225.309 6.104 226.675 8.70667 226.675 11.992C226.675 14.168 226.248 16.088 225.395 17.752C224.584 19.3733 223.667 20.5467 222.643 21.272C221.661 21.9973 220.744 22.6373 219.891 23.192C219.08 23.704 218.675 24.0453 218.675 24.216C218.675 24.728 220.467 27.5013 224.051 32.536C227.635 37.528 230.088 40.728 231.411 42.136C233.032 44.1413 234.995 45.144 237.299 45.144C237.896 45.144 238.195 45.4 238.195 45.912C238.195 46.552 237.939 46.9787 237.427 47.192C236.915 47.4053 235.613 47.512 233.523 47.512C231.475 47.512 229.619 47.0213 227.955 46.04C225.651 44.7173 221.832 39.5973 216.499 30.68C214.451 27.352 212.872 25.688 211.763 25.688H206.515C206.003 25.688 205.683 25.9013 205.555 26.328C205.469 26.7547 205.427 28.0133 205.427 30.104C205.427 30.104 205.427 31.832 205.427 35.288L205.491 38.68C205.491 38.68 205.491 38.872 205.491 39.256C205.491 41.0053 205.896 42.3707 206.707 43.352C207.517 44.2907 208.413 44.8453 209.395 45.016C210.419 45.144 211.336 45.3147 212.147 45.528C212.957 45.6987 213.363 45.9973 213.363 46.424C213.363 47.1067 212.979 47.448 212.211 47.448C212.211 47.448 209.16 47.2987 203.059 47L196.019 47.256C195.123 47.256 194.674 46.9147 194.674 46.232C194.674 45.5067 195.571 45.0373 197.363 44.824C198.045 44.7387 198.664 44.2693 199.219 43.416C199.773 42.5627 200.051 41.3467 200.051 39.768L200.115 19.608ZM205.427 12.696C205.427 17.0907 205.448 19.8213 205.491 20.888C205.533 21.912 205.683 22.5093 205.939 22.68C206.579 23.064 207.496 23.256 208.691 23.256H211.187C214.813 23.256 217.395 22.424 218.931 20.76C220.509 19.096 221.299 16.9627 221.299 14.36C221.299 11.7147 220.253 9.304 218.163 7.128C216.115 4.952 213 3.864 208.819 3.864C207.24 3.864 206.28 4.29066 205.939 5.144C205.597 5.95466 205.427 7.87466 205.427 10.904V12.696ZM247.14 47L241.636 47.256C240.399 47.256 239.78 47 239.78 46.488C239.78 45.8907 240.1 45.4853 240.74 45.272C242.105 44.76 243.3 43.6293 244.324 41.88C245.348 40.088 247.908 34.7333 252.004 25.816C256.143 16.856 259.812 8.96267 263.012 2.136C263.311 1.496 263.567 1.09067 263.78 0.919998C264.036 0.749331 264.377 0.663998 264.804 0.663998C265.273 0.663998 265.572 0.749331 265.7 0.919998C265.828 1.09067 266.063 1.66667 266.404 2.648C266.745 3.62933 267.001 4.376 267.172 4.888C267.385 5.4 267.705 6.232 268.132 7.384C268.559 8.536 269.241 10.264 270.18 12.568C271.119 14.872 273.252 19.928 276.58 27.736C279.951 35.5013 281.892 39.9173 282.404 40.984C282.916 42.008 283.62 42.904 284.516 43.672C285.412 44.3973 286.18 44.8027 286.82 44.888C287.503 44.9307 288.057 45.0373 288.484 45.208C288.953 45.336 289.188 45.656 289.188 46.168C289.188 46.808 288.612 47.128 287.46 47.128L281.7 46.744L275.748 47C274.425 47 273.572 46.9573 273.188 46.872C272.847 46.744 272.676 46.5093 272.676 46.168C272.676 45.8267 272.847 45.5707 273.188 45.4C273.529 45.1867 273.892 45.0587 274.276 45.016C274.66 44.9307 275.023 44.7387 275.364 44.44C275.705 44.0987 275.876 43.5653 275.876 42.84C275.876 42.072 275.343 40.2373 274.276 37.336C273.209 34.4347 272.313 32.3013 271.588 30.936C271.204 30.2107 270.329 29.848 268.964 29.848L261.22 29.976H257.828C255.908 29.976 254.692 30.0827 254.18 30.296C253.711 30.5093 253.305 30.9573 252.964 31.64C252.665 32.3227 252.217 33.2827 251.62 34.52C251.023 35.7147 250.617 36.5467 250.404 37.016C250.191 37.4853 249.935 38.0827 249.636 38.808C249.081 40.088 248.804 41.1547 248.804 42.008C248.804 42.8613 249.039 43.544 249.508 44.056C250.02 44.568 250.575 44.8667 251.172 44.952C252.751 45.08 253.54 45.4853 253.54 46.168C253.54 46.4667 253.476 46.7013 253.348 46.872C253.22 47 252.921 47.064 252.452 47.064L247.14 47ZM262.564 10.52C262.18 10.52 260.964 12.888 258.916 17.624C256.868 22.3173 255.844 24.92 255.844 25.432C255.844 25.944 256.036 26.264 256.42 26.392C256.804 26.52 257.7 26.584 259.108 26.584H261.092L267.172 26.52C268.836 26.52 269.668 26.2213 269.668 25.624C269.668 24.984 268.623 22.3173 266.532 17.624C264.441 12.888 263.119 10.52 262.564 10.52Z" fill="url(#paint0_linear_635_1319)"/>
<defs>
<linearGradient id="paint0_linear_635_1319" x1="-1" y1="-7.36317" x2="312.283" y2="47.3261" gradientUnits="userSpaceOnUse">
<stop stop-color="#018536"/>
<stop offset="0.0968749" stop-color="#045321"/>
<stop offset="0.414583" stop-color="#045321"/>
<stop offset="0.546875" stop-color="#033A16"/>
<stop offset="1" stop-color="#023616"/>
</linearGradient>
</defs>
</svg>
