<svg width="25" height="25" viewBox="0 0 25 25" fill="none" xmlns="http://www.w3.org/2000/svg">
<path d="M3.33001 13.7403C2.45438 12.2651 2.14747 10.5209 2.46691 8.83542C2.78635 7.14989 3.71017 5.63898 5.06486 4.58644C6.41955 3.53391 8.11191 3.01216 9.82409 3.1192C11.5363 3.22623 13.1505 3.95468 14.3635 5.16774C15.5766 6.3808 16.305 7.995 16.4121 9.70719C16.5191 11.4194 15.9974 13.1117 14.9448 14.4664C13.8923 15.8211 12.3814 16.7449 10.6959 17.0644C9.01034 17.3838 7.26618 17.0769 5.79095 16.2013L3.35931 16.8946C3.25912 16.9228 3.15324 16.9238 3.05254 16.8974C2.95185 16.8711 2.85999 16.8185 2.7864 16.7449C2.71281 16.6713 2.66015 16.5794 2.63383 16.4787C2.60751 16.378 2.60848 16.2722 2.63665 16.172L3.33001 13.7403Z" stroke="white" stroke-width="2" stroke-linecap="round" stroke-linejoin="round"/>
<path d="M8.99414 17.1777C9.33832 18.159 9.89618 19.0516 10.6274 19.791C11.3586 20.5304 12.245 21.0982 13.2224 21.4533C14.1998 21.8084 15.2439 21.9419 16.2792 21.8443C17.3145 21.7466 18.3152 21.4202 19.209 20.8887L21.6406 21.582C21.7408 21.6102 21.8467 21.6112 21.9474 21.5849C22.0481 21.5585 22.1399 21.5059 22.2135 21.4323C22.2871 21.3587 22.3398 21.2668 22.3661 21.1661C22.3924 21.0654 22.3914 20.9596 22.3633 20.8594L21.6699 18.4277C22.2889 17.3887 22.6291 16.2074 22.6573 14.9982C22.6856 13.7891 22.4011 12.5932 21.8313 11.5263C21.2615 10.4595 20.4258 9.55789 19.4052 8.90894C18.3846 8.25999 17.2137 7.88567 16.0059 7.82227" stroke="white" stroke-width="2" stroke-linecap="round" stroke-linejoin="round"/>
</svg>
