<svg width="30" height="22" viewBox="0 0 30 22" fill="none" xmlns="http://www.w3.org/2000/svg">
<path d="M22 6.19625V5.5C22 2.365 17.2712 0 11 0C4.72875 0 0 2.365 0 5.5V10.5C0 13.1112 3.28125 15.1863 8 15.8075V16.5C8 19.635 12.7288 22 19 22C25.2712 22 30 19.635 30 16.5V11.5C30 8.9125 26.8225 6.835 22 6.19625ZM28 11.5C28 13.1525 24.1512 15 19 15C18.5338 15 18.0712 14.9838 17.615 14.9538C20.3112 13.9713 22 12.375 22 10.5V8.2175C25.7337 8.77375 28 10.2838 28 11.5ZM8 13.7812V10.8075C8.99472 10.9371 9.99687 11.0014 11 11C12.0031 11.0014 13.0053 10.9371 14 10.8075V13.7812C13.0068 13.928 12.004 14.0011 11 14C9.99598 14.0011 8.99324 13.928 8 13.7812ZM20 8.74125V10.5C20 11.5487 18.4487 12.675 16 13.3587V10.4375C17.6138 10.0463 18.98 9.46375 20 8.74125ZM11 2C16.1512 2 20 3.8475 20 5.5C20 7.1525 16.1512 9 11 9C5.84875 9 2 7.1525 2 5.5C2 3.8475 5.84875 2 11 2ZM2 10.5V8.74125C3.02 9.46375 4.38625 10.0463 6 10.4375V13.3587C3.55125 12.675 2 11.5487 2 10.5ZM10 16.5V15.9788C10.3287 15.9913 10.6613 16 11 16C11.485 16 11.9587 15.9837 12.4237 15.9562C12.9403 16.1412 13.4665 16.2981 14 16.4263V19.3587C11.5513 18.675 10 17.5487 10 16.5ZM16 19.7812V16.8C16.9944 16.9337 17.9967 17.0005 19 17C20.0031 17.0014 21.0053 16.9371 22 16.8075V19.7812C20.0106 20.0729 17.9894 20.0729 16 19.7812ZM24 19.3587V16.4375C25.6138 16.0462 26.98 15.4637 28 14.7412V16.5C28 17.5487 26.4487 18.675 24 19.3587Z" fill="#018536"/>
</svg>
