<?xml version="1.0" encoding="iso-8859-1"?>
<!-- Generator: Adobe Illustrator 16.0.0, SVG Export Plug-In . SVG Version: 6.00 Build 0)  -->
<!DOCTYPE svg PUBLIC "-//W3C//DTD SVG 1.1//EN" "http://www.w3.org/Graphics/SVG/1.1/DTD/svg11.dtd">
<svg version="1.1" id="Capa_1" xmlns="http://www.w3.org/2000/svg" xmlns:xlink="http://www.w3.org/1999/xlink" x="0px" y="0px"
	 width="612px" height="612px" viewBox="0 0 612 612" style="enable-background:new 0 0 612 612;" xml:space="preserve">
<g>
	<g>
		<path d="M554.625,191.25c0-21.038-17.213-38.25-38.25-38.25h-229.5l-38.25-76.5H38.25C17.212,76.5,0,93.712,0,114.75V229.5
			h554.625V191.25z"/>
		<path d="M487.688,286.875l66.938,112.838V248.625H0V459c0,21.037,17.212,38.25,38.25,38.25h325.125L487.688,286.875z"/>
		<path d="M487.688,325.125L363.375,535.5H612L487.688,325.125z M497.25,497.25h-19.125v-19.125h19.125V497.25z M478.125,459
			v-57.375h19.125V459H478.125z"/>
	</g>
</g>
<g>
</g>
<g>
</g>
<g>
</g>
<g>
</g>
<g>
</g>
<g>
</g>
<g>
</g>
<g>
</g>
<g>
</g>
<g>
</g>
<g>
</g>
<g>
</g>
<g>
</g>
<g>
</g>
<g>
</g>
</svg>
