<svg width="20" height="25" viewBox="0 0 20 25" fill="none" xmlns="http://www.w3.org/2000/svg">
<path d="M19.7474 9.89956L18.3094 6.53194C18.2412 6.37276 18.1377 6.2243 18.0184 6.08514L18.142 5.08663C18.1552 4.97819 18.0964 4.87299 17.9939 4.82316C17.8913 4.77288 17.7667 4.7886 17.6817 4.86182L16.9672 5.47699C16.3043 5.34606 15.5907 5.55804 15.1392 6.09337C15.035 6.21768 14.9604 6.35321 14.8972 6.49282C15.1909 6.75468 15.3987 7.10506 15.4522 7.51366C15.5732 8.44728 14.8726 9.29636 13.8889 9.41112L13.419 9.46605L12.6571 11.0418C12.8885 11.5234 12.9167 12.0888 12.6755 12.6075L11.0352 16.1327H12.3564L15.1891 20.4875C15.3777 20.7776 15.7521 20.9293 16.1177 20.8358C16.5622 20.7214 16.8251 20.2867 16.7042 19.8649L15.0841 14.1948L17.1681 9.8842L18.4236 10.8356C18.6568 11.0114 18.9813 11.0671 19.2768 10.9536C19.7141 10.7857 19.9245 10.3139 19.7474 9.89956Z" fill="#018536"/>
<path d="M7.14139 16.1332C7.01418 15.7164 7.02639 15.2591 7.22539 14.8309L8.22401 12.6853C7.90499 12.5233 6.96158 12.0489 6.65029 11.8768H4.71086C4.38912 11.8768 4.08497 11.9433 3.8087 12.059C3.58518 11.0817 2.98109 9.52135 1.35727 8.95898C1.35727 8.95898 -0.401438 10.1033 0.085085 11.9121C0.085085 11.9121 1.98945 12.2135 2.89769 12.7592C2.62951 13.11 2.46638 13.5382 2.46638 14.0049C2.46638 14.0656 2.47954 14.1226 2.48487 14.182L0.861101 19.8653C0.76725 20.1949 0.905815 20.5578 1.22841 20.7457C1.62038 20.975 2.13409 20.86 2.3762 20.4879L5.20884 16.1331H7.14139V16.1332Z" fill="#018536"/>
<path d="M10.9656 16.665H10.7297C10.1783 17.4386 9.16128 17.7336 8.25826 17.3563C7.89346 17.2033 7.60328 16.9584 7.39719 16.665H6.51357C6.01724 16.665 5.61572 17.0461 5.61572 17.5162C5.61572 17.9863 6.01724 18.3675 6.51357 18.3675H10.9656C11.4619 18.3675 11.8634 17.9863 11.8634 17.5162C11.8634 17.0461 11.4619 16.665 10.9656 16.665Z" fill="#018536"/>
<path d="M10.9656 18.7939H6.51357C6.01724 18.7939 5.61572 19.1752 5.61572 19.6452C5.61572 20.1153 6.01724 20.4965 6.51357 20.4965H10.9656C11.4619 20.4965 11.8634 20.1153 11.8634 19.6452C11.8634 19.1752 11.4619 18.7939 10.9656 18.7939Z" fill="#018536"/>
<path d="M12.9439 23.1966C12.6247 22.7493 12.0925 22.4813 11.5235 22.4813H11.4331C11.6866 22.3308 11.8636 22.0764 11.8636 21.7722C11.8636 21.3021 11.4622 20.9209 10.9658 20.9209H6.51381C6.01748 20.9209 5.61596 21.3021 5.61596 21.7722C5.61596 22.0765 5.793 22.3308 6.04642 22.4813H5.95528C5.38626 22.4813 4.85407 22.7493 4.53494 23.1966L3.89227 24.0986C3.76601 24.2756 3.75285 24.5043 3.85891 24.6929C3.96416 24.8816 4.1711 24.9998 4.39723 24.9998H13.0815C13.3068 24.9998 13.5146 24.8816 13.6198 24.6929C13.726 24.5043 13.7127 24.2756 13.5865 24.0986L12.9439 23.1966Z" fill="#018536"/>
<path d="M11.759 3.95544C12.9059 3.82169 13.723 2.83112 13.5818 1.74297C13.4407 0.654825 12.3947 -0.118762 11.2478 0.0150454C10.1011 0.148499 9.2849 1.13937 9.42602 2.22762C9.56709 3.31576 10.6122 4.08925 11.759 3.95544Z" fill="#018536"/>
<path d="M7.04401 11.3623L9.09119 12.4023L7.84182 15.089C7.54108 15.7343 7.84971 16.4882 8.53017 16.7729C9.21574 17.0593 10.0082 16.7595 10.3056 16.1199L12.059 12.3507C12.343 11.7402 12.0836 11.0248 11.4628 10.7098L9.68308 9.80566C9.90835 9.02379 9.83737 9.26992 10.0066 8.68548C10.217 8.94566 10.537 9.1057 10.8842 9.1057C10.9954 9.1057 13.6951 8.78603 13.8054 8.77315C14.4175 8.7021 14.8532 8.17384 14.7777 7.59314C14.7025 7.01207 14.1326 6.59726 13.5337 6.67169L11.4926 6.90945L10.8394 5.80326L10.8683 5.70361C11.1129 4.85766 10.5886 3.98397 9.69614 3.75208C8.80532 3.52055 7.88216 4.01813 7.6384 4.86393C7.15875 6.5245 6.66423 8.23322 6.28291 9.5529C6.06824 10.2941 6.48015 11.0773 7.04401 11.3623Z" fill="#018536"/>
</svg>
