<svg width="2223" height="575" viewBox="0 0 2223 575" fill="none" xmlns="http://www.w3.org/2000/svg">
<rect x="3.5" y="25.5" width="353" height="448" rx="26.5" fill="url(#paint0_linear_731_1315)" stroke="url(#paint1_linear_731_1315)" stroke-width="7"/>
<path d="M68 379V107C68 104.239 70.2386 102 73 102H175.5C210.068 103.23 226.266 108.534 248.5 127C268.428 145.106 274.5 161.5 270 191.5C265.516 214.916 237.878 239.37 187.045 250.877C186.687 250.958 186.315 251 185.947 251H145.293C140.039 251 138.405 244.075 143.112 241.742C179.984 223.468 222.603 200.649 217.5 164.5C217 160.958 210.5 125 172.5 118.5C161.935 116.878 145.435 115.1 144.538 115.004C144.509 115.001 144.485 114.999 144.456 114.996L121.945 112.986C119.019 112.725 116.5 115.029 116.5 117.966V251V379C116.5 381.761 114.261 384 111.5 384H73C70.2386 384 68 381.761 68 379Z" fill="url(#paint2_linear_731_1315)"/>
<path d="M221.915 269H158.735C154.664 269 152.3 273.604 154.671 276.913L229.923 381.913C230.862 383.223 232.375 384 233.987 384H296.328C300.387 384 302.754 379.42 300.408 376.109L225.995 271.109C225.057 269.786 223.536 269 221.915 269Z" fill="url(#paint3_linear_731_1315)"/>
<path d="M448.2 212.8L447.8 145.2C447.8 135.333 445.8 127.867 441.8 122.8C437.8 117.467 433.267 114.533 428.2 114C423.4 113.2 419 112.267 415 111.2C411 110.133 409 108.267 409 105.6C409 101.333 412.867 99.2 420.6 99.2H487L527 98C551 98 571.533 104.133 588.6 116.4C605.667 128.4 614.2 144.667 614.2 165.2C614.2 178.8 611.533 190.8 606.2 201.2C601.133 211.333 595.4 218.667 589 223.2C582.867 227.733 577.133 231.733 571.8 235.2C566.733 238.4 564.2 240.533 564.2 241.6C564.2 244.8 575.4 262.133 597.8 293.6C620.2 324.8 635.533 344.8 643.8 353.6C653.933 366.133 666.2 372.4 680.6 372.4C684.333 372.4 686.2 374 686.2 377.2C686.2 381.2 684.6 383.867 681.4 385.2C678.2 386.533 670.067 387.2 657 387.2C644.2 387.2 632.6 384.133 622.2 378C607.8 369.733 583.933 337.733 550.6 282C537.8 261.2 527.933 250.8 521 250.8H488.2C485 250.8 483 252.133 482.2 254.8C481.667 257.467 481.4 265.333 481.4 278.4C481.4 278.4 481.4 289.2 481.4 310.8L481.8 332C481.8 332 481.8 333.2 481.8 335.6C481.8 346.533 484.333 355.067 489.4 361.2C494.467 367.067 500.067 370.533 506.2 371.6C512.6 372.4 518.333 373.467 523.4 374.8C528.467 375.867 531 377.733 531 380.4C531 384.667 528.6 386.8 523.8 386.8C523.8 386.8 504.733 385.867 466.6 384L422.6 385.6C417 385.6 414.2 383.467 414.2 379.2C414.2 374.667 419.8 371.733 431 370.4C435.267 369.867 439.133 366.933 442.6 361.6C446.067 356.267 447.8 348.667 447.8 338.8L448.2 212.8ZM481.4 169.6C481.4 197.067 481.533 214.133 481.8 220.8C482.067 227.2 483 230.933 484.6 232C488.6 234.4 494.333 235.6 501.8 235.6H517.4C540.067 235.6 556.2 230.4 565.8 220C575.667 209.6 580.6 196.267 580.6 180C580.6 163.467 574.067 148.4 561 134.8C548.2 121.2 528.733 114.4 502.6 114.4C492.733 114.4 486.733 117.067 484.6 122.4C482.467 127.467 481.4 139.467 481.4 158.4V169.6ZM710.663 211.6L711.463 154C711.463 139.333 709.729 129.333 706.263 124C702.796 118.4 694.663 114.667 681.863 112.8C675.996 112 673.063 109.467 673.063 105.2C673.063 103.067 673.863 101.733 675.463 101.2C677.063 100.4 679.329 100 682.263 100L727.463 101.6L765.062 100.8C770.663 100.8 773.463 102.667 773.463 106.4C773.463 108.8 772.529 110.267 770.662 110.8C768.796 111.333 766.396 111.733 763.463 112C760.796 112.267 758.129 113.2 755.463 114.8C748.796 118.533 745.463 130.933 745.463 152V163.2L745.063 249.6C745.063 276 745.863 293.2 747.463 301.2C749.063 309.2 750.929 316.667 753.063 323.6C755.196 330.267 757.729 335.6 760.663 339.6C763.863 343.6 767.729 348 772.263 352.8C777.063 357.6 782.529 361.333 788.663 364C803.063 369.867 819.463 372.8 837.863 372.8C866.663 372.8 886.663 369.6 897.863 363.2C902.663 360.533 908.129 356.4 914.263 350.8C920.663 344.933 925.596 337.867 929.063 329.6C937.329 309.867 941.463 284.8 941.463 254.4L941.063 169.6C941.063 160.267 940.796 152.933 940.263 147.6C939.996 142.267 938.663 136.4 936.263 130C934.129 123.6 931.329 119.2 927.863 116.8C924.396 114.4 920.529 112.933 916.263 112.4C911.996 111.6 908.529 111.067 905.863 110.8C903.196 110.267 901.863 109.067 901.863 107.2C901.863 102.933 904.529 100.8 909.863 100.8L940.663 101.6L974.663 100.4C980.263 100.4 983.063 102.133 983.063 105.6C983.063 107.733 980.129 110.533 974.263 114C968.663 117.2 965.196 120.133 963.863 122.8C960.929 128.4 959.463 137.2 959.463 149.2L959.863 176C959.863 227.2 957.729 266.4 953.463 293.6C949.196 320.8 942.663 340.533 933.863 352.8C915.996 378.667 884.396 391.6 839.063 391.6C793.729 391.6 761.729 383.067 743.063 366C728.396 352.4 719.329 336.133 715.863 317.2C712.396 298 710.663 265.067 710.663 218.4V211.6ZM1016.43 384.8C1010.83 384.8 1008.03 382.667 1008.03 378.4C1008.03 374.933 1012.03 373.067 1020.03 372.8C1022.97 372.533 1026.3 370.4 1030.03 366.4C1033.77 362.133 1036.43 356.533 1038.03 349.6C1039.63 342.667 1041.37 318.933 1043.23 278.4C1045.1 237.867 1046.03 206.133 1046.03 183.2C1046.03 160 1043.37 143.333 1038.03 133.2C1032.97 123.067 1021.77 116 1004.43 112C1000.97 111.2 999.234 109.2 999.234 106C999.234 102 1001.63 100 1006.43 100L1027.63 101.6L1057.63 100.8C1062.7 100.8 1065.9 102.667 1067.23 106.4C1070.43 113.333 1076.17 125.867 1084.43 144C1092.7 161.867 1099.23 176.133 1104.03 186.8C1109.1 197.467 1115.5 211.067 1123.23 227.6C1130.97 244.133 1137.23 257.6 1142.03 268C1146.83 278.133 1151.77 288.4 1156.83 298.8C1162.17 309.2 1166.17 316.933 1168.83 322C1171.77 326.8 1173.63 329.2 1174.43 329.2C1175.23 329.2 1176.03 328.8 1176.83 328C1177.9 326.933 1178.83 325.6 1179.63 324C1180.7 322.4 1181.5 320.8 1182.03 319.2C1182.83 317.6 1183.77 315.6 1184.83 313.2C1186.17 310.533 1187.1 308.533 1187.63 307.2L1239.23 200.8C1253.37 172 1262.83 151.867 1267.63 140.4L1276.83 120.4C1277.63 118.267 1278.17 116.667 1278.43 115.6C1278.97 114.267 1279.37 113.333 1279.63 112.8C1279.9 112 1280.17 111.333 1280.43 110.8C1280.7 110.267 1281.1 109.067 1281.63 107.2C1282.43 105.333 1283.23 104 1284.03 103.2C1286.17 101.067 1290.03 100 1295.63 100L1330.03 100.8C1334.57 100.8 1336.83 102.533 1336.83 106C1336.83 108.667 1335.9 110.667 1334.03 112C1332.43 113.067 1328.57 114 1322.43 114.8C1316.57 115.6 1312.3 118.933 1309.63 124.8C1306.97 130.667 1305.63 146.8 1305.63 173.2C1305.63 199.333 1306.43 227.067 1308.03 256.4C1309.63 285.467 1310.43 303.733 1310.43 311.2C1310.43 337.867 1312.57 354.933 1316.83 362.4C1321.1 369.6 1330.03 373.2 1343.63 373.2C1345.5 373.2 1347.1 373.867 1348.43 375.2C1350.03 376.533 1350.83 377.733 1350.83 378.8C1350.83 383.067 1349.37 385.2 1346.43 385.2H1342.03L1301.23 383.6C1301.23 383.6 1287.37 384.267 1259.63 385.6C1254.83 385.6 1252.43 383.733 1252.43 380C1252.43 376 1256.03 373.6 1263.23 372.8C1265.9 372.533 1268.7 370.933 1271.63 368C1274.83 364.8 1276.97 360.4 1278.03 354.8C1279.37 348.933 1280.03 340.933 1280.03 330.8C1280.03 320.667 1279.77 309.6 1279.23 297.6C1278.97 285.6 1278.57 274 1278.03 262.8C1277.5 251.333 1276.97 240.667 1276.43 230.8C1275.9 220.667 1275.5 212.4 1275.23 206L1274.43 196.4C1274.43 184.933 1273.23 179.2 1270.83 179.2C1270.03 179.2 1269.23 179.6 1268.43 180.4C1267.9 181.2 1267.37 181.867 1266.83 182.4C1266.3 182.933 1265.77 183.867 1265.23 185.2C1264.7 186.267 1264.17 187.2 1263.63 188C1263.1 188.8 1262.43 190 1261.63 191.6C1260.83 192.933 1260.17 194.133 1259.63 195.2L1257.63 199.6C1256.57 201.467 1255.77 203.067 1255.23 204.4L1199.63 316.8C1193.23 329.867 1186.97 342.667 1180.83 355.2C1174.97 367.733 1171.5 374.933 1170.43 376.8C1169.37 378.4 1167.77 379.2 1165.63 379.2C1163.77 379.2 1162.03 378.133 1160.43 376C1158.83 373.6 1156.43 368.533 1153.23 360.8C1150.03 353.067 1147.23 346.667 1144.83 341.6C1096.03 242.4 1071.1 192.133 1070.03 190.8C1068.97 189.2 1068.03 188.4 1067.23 188.4C1065.1 188.4 1064.03 193.733 1064.03 204.4L1060.43 310V328C1060.43 349.867 1064.83 363.333 1073.63 368.4C1078.17 371.067 1082.57 372.533 1086.83 372.8C1093.5 373.6 1096.83 375.467 1096.83 378.4C1096.83 381.067 1096.43 382.933 1095.63 384C1094.83 384.8 1093.23 385.2 1090.83 385.2L1049.23 383.6L1016.43 384.8ZM1380.41 372.8L1389.61 372.4C1395.21 372.4 1399.88 367.733 1403.61 358.4C1406.01 352.267 1407.48 342.533 1408.01 329.2C1408.55 315.867 1408.81 276.267 1408.81 210.4V142.4C1408.81 138.133 1407.48 133.333 1404.81 128C1399.48 116.8 1389.08 111.2 1373.61 111.2C1369.08 111.2 1366.81 109.6 1366.81 106.4C1366.81 102.4 1368.01 100.4 1370.41 100.4L1386.41 100.8L1444.81 100.4L1488.81 99.2C1513.08 99.2 1533.35 105.067 1549.61 116.8C1565.88 128.267 1574.01 144.667 1574.01 166C1574.01 188.933 1562.01 207.733 1538.01 222.4C1535.35 224.267 1534.01 225.333 1534.01 225.6C1534.01 226.4 1536.28 227.467 1540.81 228.8C1545.35 229.867 1550.81 231.867 1557.21 234.8C1563.61 237.467 1569.88 241.2 1576.01 246C1582.41 250.8 1587.88 258 1592.41 267.6C1596.95 276.933 1599.21 287.733 1599.21 300C1599.21 312 1595.88 324.533 1589.21 337.6C1582.55 350.667 1574.01 360.8 1563.61 368C1553.21 375.2 1542.95 380.267 1532.81 383.2C1522.68 385.867 1511.35 387.2 1498.81 387.2C1486.28 387.2 1471.21 386.4 1453.61 384.8C1436.01 383.467 1426.28 382.8 1424.41 382.8L1390.01 384.4H1384.41C1378.81 384.4 1376.01 382.533 1376.01 378.8C1376.01 374.8 1377.48 372.8 1380.41 372.8ZM1439.61 329.6L1439.21 347.2C1439.21 363.2 1452.28 371.2 1478.41 371.2H1487.61C1502.01 371.2 1514.41 370.4 1524.81 368.8C1535.48 366.933 1544.81 360.533 1552.81 349.6C1561.08 338.667 1565.21 326.133 1565.21 312C1565.21 297.867 1562.81 286.133 1558.01 276.8C1553.21 267.2 1547.75 260 1541.61 255.2C1535.48 250.4 1528.15 246.667 1519.61 244C1507.88 240.267 1496.95 238.4 1486.81 238.4L1455.61 238L1449.61 237.6C1447.21 237.6 1445.48 238 1444.41 238.8C1443.35 239.333 1442.28 241.867 1441.21 246.4C1440.15 252 1439.61 270.667 1439.61 302.4V329.6ZM1441.61 166C1441.61 199.6 1442.55 218.267 1444.41 222C1445.48 223.867 1453.08 224.8 1467.21 224.8H1492.81C1509.61 224.8 1522.15 220.4 1530.41 211.6C1538.95 202.8 1543.21 191.2 1543.21 176.8C1543.21 162.4 1536.15 148.267 1522.01 134.4C1508.15 120.267 1488.28 113.2 1462.41 113.2C1454.15 113.2 1448.55 115.733 1445.61 120.8C1442.95 125.6 1441.61 136.8 1441.61 154.4V166ZM1657.97 212.8L1657.57 145.2C1657.57 135.333 1655.57 127.867 1651.57 122.8C1647.57 117.467 1643.03 114.533 1637.97 114C1633.17 113.2 1628.77 112.267 1624.77 111.2C1620.77 110.133 1618.77 108.267 1618.77 105.6C1618.77 101.333 1622.63 99.2 1630.37 99.2H1696.77L1736.77 98C1760.77 98 1781.3 104.133 1798.37 116.4C1815.43 128.4 1823.97 144.667 1823.97 165.2C1823.97 178.8 1821.3 190.8 1815.97 201.2C1810.9 211.333 1805.17 218.667 1798.77 223.2C1792.63 227.733 1786.9 231.733 1781.57 235.2C1776.5 238.4 1773.97 240.533 1773.97 241.6C1773.97 244.8 1785.17 262.133 1807.57 293.6C1829.97 324.8 1845.3 344.8 1853.57 353.6C1863.7 366.133 1875.97 372.4 1890.37 372.4C1894.1 372.4 1895.97 374 1895.97 377.2C1895.97 381.2 1894.37 383.867 1891.17 385.2C1887.97 386.533 1879.83 387.2 1866.77 387.2C1853.97 387.2 1842.37 384.133 1831.97 378C1817.57 369.733 1793.7 337.733 1760.37 282C1747.57 261.2 1737.7 250.8 1730.77 250.8H1697.97C1694.77 250.8 1692.77 252.133 1691.97 254.8C1691.43 257.467 1691.17 265.333 1691.17 278.4C1691.17 278.4 1691.17 289.2 1691.17 310.8L1691.57 332C1691.57 332 1691.57 333.2 1691.57 335.6C1691.57 346.533 1694.1 355.067 1699.17 361.2C1704.23 367.067 1709.83 370.533 1715.97 371.6C1722.37 372.4 1728.1 373.467 1733.17 374.8C1738.23 375.867 1740.77 377.733 1740.77 380.4C1740.77 384.667 1738.37 386.8 1733.57 386.8C1733.57 386.8 1714.5 385.867 1676.37 384L1632.37 385.6C1626.77 385.6 1623.97 383.467 1623.97 379.2C1623.97 374.667 1629.57 371.733 1640.77 370.4C1645.03 369.867 1648.9 366.933 1652.37 361.6C1655.83 356.267 1657.57 348.667 1657.57 338.8L1657.97 212.8ZM1691.17 169.6C1691.17 197.067 1691.3 214.133 1691.57 220.8C1691.83 227.2 1692.77 230.933 1694.37 232C1698.37 234.4 1704.1 235.6 1711.57 235.6H1727.17C1749.83 235.6 1765.97 230.4 1775.57 220C1785.43 209.6 1790.37 196.267 1790.37 180C1790.37 163.467 1783.83 148.4 1770.77 134.8C1757.97 121.2 1738.5 114.4 1712.37 114.4C1702.5 114.4 1696.5 117.067 1694.37 122.4C1692.23 127.467 1691.17 139.467 1691.17 158.4V169.6ZM1951.88 384L1917.48 385.6C1909.74 385.6 1905.88 384 1905.88 380.8C1905.88 377.067 1907.88 374.533 1911.88 373.2C1920.41 370 1927.88 362.933 1934.28 352C1940.68 340.8 1956.68 307.333 1982.28 251.6C2008.14 195.6 2031.08 146.267 2051.08 103.6C2052.94 99.6 2054.54 97.0667 2055.88 96C2057.48 94.9333 2059.61 94.4 2062.28 94.4C2065.21 94.4 2067.08 94.9333 2067.88 96C2068.68 97.0667 2070.14 100.667 2072.28 106.8C2074.41 112.933 2076.01 117.6 2077.08 120.8C2078.41 124 2080.41 129.2 2083.08 136.4C2085.74 143.6 2090.01 154.4 2095.88 168.8C2101.74 183.2 2115.08 214.8 2135.88 263.6C2156.94 312.133 2169.08 339.733 2172.28 346.4C2175.48 352.8 2179.88 358.4 2185.48 363.2C2191.08 367.733 2195.88 370.267 2199.88 370.8C2204.14 371.067 2207.61 371.733 2210.28 372.8C2213.21 373.6 2214.68 375.6 2214.68 378.8C2214.68 382.8 2211.08 384.8 2203.88 384.8L2167.88 382.4L2130.68 384C2122.41 384 2117.08 383.733 2114.68 383.2C2112.54 382.4 2111.48 380.933 2111.48 378.8C2111.48 376.667 2112.54 375.067 2114.68 374C2116.81 372.667 2119.08 371.867 2121.48 371.6C2123.88 371.067 2126.14 369.867 2128.28 368C2130.41 365.867 2131.48 362.533 2131.48 358C2131.48 353.2 2128.14 341.733 2121.48 323.6C2114.81 305.467 2109.21 292.133 2104.68 283.6C2102.28 279.067 2096.81 276.8 2088.28 276.8L2039.88 277.6H2018.68C2006.68 277.6 1999.08 278.267 1995.88 279.6C1992.94 280.933 1990.41 283.733 1988.28 288C1986.41 292.267 1983.61 298.267 1979.88 306C1976.14 313.467 1973.61 318.667 1972.28 321.6C1970.94 324.533 1969.34 328.267 1967.48 332.8C1964.01 340.8 1962.28 347.467 1962.28 352.8C1962.28 358.133 1963.74 362.4 1966.68 365.6C1969.88 368.8 1973.34 370.667 1977.08 371.2C1986.94 372 1991.88 374.533 1991.88 378.8C1991.88 380.667 1991.48 382.133 1990.68 383.2C1989.88 384 1988.01 384.4 1985.08 384.4L1951.88 384ZM2048.28 156C2045.88 156 2038.28 170.8 2025.48 200.4C2012.68 229.733 2006.28 246 2006.28 249.2C2006.28 252.4 2007.48 254.4 2009.88 255.2C2012.28 256 2017.88 256.4 2026.68 256.4H2039.08L2077.08 256C2087.48 256 2092.68 254.133 2092.68 250.4C2092.68 246.4 2086.14 229.733 2073.08 200.4C2060.01 170.8 2051.74 156 2048.28 156Z" fill="url(#paint4_linear_731_1315)"/>
<defs>
<linearGradient id="paint0_linear_731_1315" x1="0" y1="22" x2="275.508" y2="523.424" gradientUnits="userSpaceOnUse">
<stop stop-color="white"/>
<stop offset="0.288876" stop-color="white" stop-opacity="0.711124"/>
<stop offset="1" stop-color="white" stop-opacity="0"/>
</linearGradient>
<linearGradient id="paint1_linear_731_1315" x1="6.70498" y1="90.25" x2="513.766" y2="104.58" gradientUnits="userSpaceOnUse">
<stop stop-color="#078B3A"/>
<stop offset="1" stop-color="#023315"/>
</linearGradient>
<linearGradient id="paint2_linear_731_1315" x1="161.5" y1="102" x2="246.121" y2="164.586" gradientUnits="userSpaceOnUse">
<stop stop-color="#023315"/>
<stop offset="0.899827" stop-color="#078B3A"/>
</linearGradient>
<linearGradient id="paint3_linear_731_1315" x1="182" y1="257.5" x2="233.5" y2="413" gradientUnits="userSpaceOnUse">
<stop offset="0.123414" stop-color="#0F812A"/>
<stop offset="0.692588" stop-color="#095B20"/>
<stop offset="1" stop-color="#023315"/>
</linearGradient>
<linearGradient id="paint4_linear_731_1315" x1="401" y1="41.4802" x2="2355.99" y2="382.198" gradientUnits="userSpaceOnUse">
<stop stop-color="#018536"/>
<stop offset="0.0968749" stop-color="#045321"/>
<stop offset="0.414583" stop-color="#045321"/>
<stop offset="0.546875" stop-color="#033A16"/>
<stop offset="1" stop-color="#023616"/>
</linearGradient>
</defs>
</svg>
