<svg width="18" height="22" viewBox="0 0 18 22" fill="none" xmlns="http://www.w3.org/2000/svg">
<path d="M4.35355 0.646446C4.15829 0.451185 3.84171 0.451185 3.64645 0.646446L0.464466 3.82843C0.269204 4.02369 0.269204 4.34027 0.464466 4.53553C0.659728 4.7308 0.976311 4.7308 1.17157 4.53553L4 1.70711L6.82843 4.53553C7.02369 4.7308 7.34027 4.7308 7.53553 4.53553C7.7308 4.34027 7.7308 4.02369 7.53553 3.82843L4.35355 0.646446ZM4.5 21L4.5 1H3.5L3.5 21H4.5Z" fill="white"/>
<path d="M14.3536 21.3536C14.1583 21.5488 13.8417 21.5488 13.6464 21.3536L10.4645 18.1716C10.2692 17.9763 10.2692 17.6597 10.4645 17.4645C10.6597 17.2692 10.9763 17.2692 11.1716 17.4645L14 20.2929L16.8284 17.4645C17.0237 17.2692 17.3403 17.2692 17.5355 17.4645C17.7308 17.6597 17.7308 17.9763 17.5355 18.1716L14.3536 21.3536ZM14.5 1L14.5 21H13.5L13.5 1H14.5Z" fill="white"/>
</svg>
