<svg width="25" height="25" viewBox="0 0 25 25" fill="none" xmlns="http://www.w3.org/2000/svg">
<path d="M12.5 21.875C17.6777 21.875 21.875 17.6777 21.875 12.5C21.875 7.32233 17.6777 3.125 12.5 3.125C7.32233 3.125 3.125 7.32233 3.125 12.5C3.125 17.6777 7.32233 21.875 12.5 21.875Z" stroke="white" stroke-width="2" stroke-linecap="round" stroke-linejoin="round"/>
<path d="M8.98438 11.7188C9.63158 11.7188 10.1562 11.1941 10.1562 10.5469C10.1562 9.89967 9.63158 9.375 8.98438 9.375C8.33717 9.375 7.8125 9.89967 7.8125 10.5469C7.8125 11.1941 8.33717 11.7188 8.98438 11.7188Z" fill="white"/>
<path d="M16.0156 11.7188C16.6628 11.7188 17.1875 11.1941 17.1875 10.5469C17.1875 9.89967 16.6628 9.375 16.0156 9.375C15.3684 9.375 14.8438 9.89967 14.8438 10.5469C14.8438 11.1941 15.3684 11.7188 16.0156 11.7188Z" fill="white"/>
<path d="M16.5625 14.8438C16.1495 15.5553 15.5569 16.1458 14.8439 16.5564C14.131 16.9669 13.3227 17.183 12.5 17.183C11.6773 17.183 10.869 16.9669 10.1561 16.5564C9.44313 16.1458 8.8505 15.5553 8.4375 14.8438" stroke="white" stroke-width="2" stroke-linecap="round" stroke-linejoin="round"/>
</svg>
