<svg width="29" height="20" viewBox="0 0 29 20" fill="none" xmlns="http://www.w3.org/2000/svg">
<path d="M28.4917 7.25919L26.8257 3.09408C26.6844 2.74168 26.4405 2.43984 26.1256 2.22766C25.8107 2.01548 25.4394 1.90274 25.0597 1.90405H20.9446V0.952025C20.9446 0.699533 20.8443 0.457381 20.6657 0.278842C20.4872 0.100303 20.245 0 19.9925 0H1.90405C1.39907 0 0.914762 0.200605 0.557684 0.557683C0.200605 0.914762 0 1.39907 0 1.90405V15.2324C0 15.7374 0.200605 16.2217 0.557684 16.5788C0.914762 16.9359 1.39907 17.1365 1.90405 17.1365H3.9271C4.13684 17.9556 4.61323 18.6816 5.28118 19.2001C5.94913 19.7186 6.77064 20 7.6162 20C8.46176 20 9.28328 19.7186 9.95123 19.2001C10.6192 18.6816 11.0956 17.9556 11.3053 17.1365H17.2555C17.4652 17.9556 17.9416 18.6816 18.6095 19.2001C19.2775 19.7186 20.099 20 20.9446 20C21.7901 20 22.6116 19.7186 23.2796 19.2001C23.9475 18.6816 24.4239 17.9556 24.6337 17.1365H26.6567C27.1617 17.1365 27.646 16.9359 28.0031 16.5788C28.3602 16.2217 28.5608 15.7374 28.5608 15.2324V7.6162C28.5611 7.49385 28.5376 7.37261 28.4917 7.25919ZM20.9446 3.8081H25.0597L26.2021 6.66418H20.9446V3.8081ZM1.90405 1.90405H19.0405V9.52025H1.90405V1.90405ZM7.6162 18.0885C7.23962 18.0885 6.87149 17.9768 6.55837 17.7676C6.24525 17.5584 6.0012 17.261 5.85709 16.9131C5.71298 16.5652 5.67527 16.1823 5.74874 15.813C5.82221 15.4436 6.00355 15.1044 6.26984 14.8381C6.53612 14.5718 6.87539 14.3904 7.24474 14.317C7.61409 14.2435 7.99693 14.2812 8.34485 14.4253C8.69277 14.5694 8.99014 14.8135 9.19936 15.1266C9.40858 15.4397 9.52025 15.8078 9.52025 16.1844C9.52025 16.6894 9.31965 17.1737 8.96257 17.5308C8.60549 17.8879 8.12119 18.0885 7.6162 18.0885ZM17.2555 15.2324H11.3053C11.0956 14.4133 10.6192 13.6872 9.95123 13.1688C9.28328 12.6503 8.46176 12.3689 7.6162 12.3689C6.77064 12.3689 5.94913 12.6503 5.28118 13.1688C4.61323 13.6872 4.13684 14.4133 3.9271 15.2324H1.90405V11.4243H19.0405V12.8892C18.6027 13.1423 18.2195 13.4797 17.9131 13.8819C17.6067 14.2841 17.3832 14.7432 17.2555 15.2324ZM20.9446 18.0885C20.568 18.0885 20.1998 17.9768 19.8867 17.7676C19.5736 17.5584 19.3296 17.261 19.1854 16.9131C19.0413 16.5652 19.0036 16.1823 19.0771 15.813C19.1506 15.4436 19.3319 15.1044 19.5982 14.8381C19.8645 14.5718 20.2037 14.3904 20.5731 14.317C20.9424 14.2435 21.3253 14.2812 21.6732 14.4253C22.0211 14.5694 22.3185 14.8135 22.5277 15.1266C22.7369 15.4397 22.8486 15.8078 22.8486 16.1844C22.8486 16.6894 22.648 17.1737 22.2909 17.5308C21.9338 17.8879 21.4495 18.0885 20.9446 18.0885ZM26.6567 15.2324H24.6337C24.4214 14.4153 23.9441 13.6916 23.2765 13.1748C22.609 12.6579 21.7888 12.3771 20.9446 12.3763V8.56823H26.6567V15.2324Z" fill="#018536"/>
</svg>
