<svg width="25" height="25" viewBox="0 0 25 25" fill="none" xmlns="http://www.w3.org/2000/svg">
<path d="M15.6232 7.81313L7.48846 16.0846C7.21915 16.3818 7.07445 16.7713 7.08432 17.1722C7.09419 17.5732 7.25788 17.955 7.54149 18.2386C7.82511 18.5222 8.20692 18.6859 8.60789 18.6958C9.00886 18.7057 9.39827 18.561 9.69549 18.2916L19.3928 8.45766C19.9314 7.86321 20.2208 7.08439 20.201 6.28246C20.1813 5.48052 19.8539 4.71689 19.2867 4.14967C18.7195 3.58244 17.9558 3.25507 17.1539 3.23532C16.352 3.21558 15.5731 3.50498 14.9787 4.0436L5.28143 13.8776C4.40342 14.7556 3.91016 15.9464 3.91016 17.1881C3.91016 18.4298 4.40342 19.6207 5.28143 20.4987C6.15944 21.3767 7.35028 21.87 8.59198 21.87C9.83367 21.87 11.0245 21.3767 11.9025 20.4987L19.9201 12.5006" stroke="white" stroke-width="2" stroke-linecap="round" stroke-linejoin="round"/>
</svg>
