<svg width="29" height="27" viewBox="0 0 29 27" fill="none" xmlns="http://www.w3.org/2000/svg">
<path d="M14.0022 7.00258C12.8155 7.00258 11.6555 7.35447 10.6688 8.01376C9.68207 8.67305 8.91304 9.61012 8.45891 10.7065C8.00479 11.8028 7.88597 13.0092 8.11748 14.1731C8.34899 15.337 8.92044 16.4061 9.75955 17.2452C10.5987 18.0843 11.6678 18.6558 12.8316 18.8873C13.9955 19.1188 15.2019 19 16.2983 18.5459C17.3946 18.0917 18.3317 17.3227 18.991 16.336C19.6503 15.3493 20.0022 14.1893 20.0022 13.0026C20.0005 11.4118 19.3679 9.88663 18.243 8.76177C17.1181 7.63691 15.593 7.00423 14.0022 7.00258ZM14.0022 17.0026C13.2111 17.0026 12.4377 16.768 11.7799 16.3285C11.1221 15.8889 10.6094 15.2642 10.3067 14.5333C10.0039 13.8024 9.92471 12.9981 10.079 12.2222C10.2334 11.4463 10.6144 10.7336 11.1738 10.1742C11.7332 9.61474 12.4459 9.23378 13.2218 9.07944C13.9978 8.9251 14.802 9.00431 15.5329 9.30706C16.2638 9.60981 16.8885 10.1225 17.3281 10.7803C17.7676 11.4381 18.0022 12.2115 18.0022 13.0026C18.0022 14.0634 17.5808 15.0809 16.8306 15.831C16.0805 16.5812 15.0631 17.0026 14.0022 17.0026ZM27.7447 10.4038C27.7168 10.263 27.659 10.1298 27.5751 10.0134C27.4912 9.89689 27.3832 9.79985 27.2584 9.72883L23.5297 7.60383L23.5147 3.40133C23.5142 3.2566 23.4824 3.11369 23.4213 2.98247C23.3602 2.85126 23.2714 2.73486 23.1609 2.64133C21.8084 1.4972 20.2507 0.620413 18.5709 0.0575803C18.4387 0.0128051 18.2985 -0.00376504 18.1594 0.00893717C18.0203 0.0216394 17.8854 0.0633323 17.7634 0.13133L14.0022 2.23383L10.2372 0.12758C10.1151 0.0591993 9.98008 0.0171915 9.84077 0.00427251C9.70146 -0.00864651 9.56099 0.00781064 9.42844 0.0525802C7.74988 0.619527 6.19406 1.49966 4.84344 2.64633C4.73315 2.73973 4.64442 2.85592 4.58335 2.98691C4.52228 3.11789 4.49032 3.26056 4.48969 3.40508L4.47094 7.61133L0.742191 9.73633C0.617443 9.80735 0.509447 9.90439 0.425543 10.0209C0.341639 10.1373 0.283795 10.2705 0.255941 10.4113C-0.0853137 12.1262 -0.0853137 13.8915 0.255941 15.6063C0.283795 15.7471 0.341639 15.8803 0.425543 15.9968C0.509447 16.1133 0.617443 16.2103 0.742191 16.2813L4.47094 18.4063L4.48594 22.6088C4.48639 22.7536 4.51826 22.8965 4.57933 23.0277C4.64041 23.1589 4.72924 23.2753 4.83969 23.3688C6.19228 24.513 7.74989 25.3897 9.42969 25.9526C9.56198 25.9974 9.70217 26.0139 9.84125 26.0012C9.98033 25.9885 10.1152 25.9468 10.2372 25.8788L14.0022 23.7713L17.7672 25.8776C17.9162 25.9606 18.0841 26.0037 18.2547 26.0026C18.3639 26.0025 18.4724 25.9848 18.5759 25.9501C20.2543 25.3839 21.8101 24.5046 23.1609 23.3588C23.2712 23.2654 23.36 23.1492 23.421 23.0183C23.4821 22.8873 23.5141 22.7446 23.5147 22.6001L23.5334 18.3938L27.2622 16.2688C27.3869 16.1978 27.4949 16.1008 27.5788 15.9843C27.6627 15.8678 27.7206 15.7346 27.7484 15.5938C28.0878 13.8803 28.0865 12.1168 27.7447 10.4038ZM25.8697 14.7676L22.2984 16.7988C22.142 16.8878 22.0124 17.0174 21.9234 17.1738C21.8509 17.2988 21.7747 17.4313 21.6972 17.5563C21.598 17.714 21.5451 17.8963 21.5447 18.0826L21.5259 22.1138C20.566 22.8676 19.4966 23.4704 18.3547 23.9013L14.7522 21.8938C14.6026 21.8111 14.4344 21.768 14.2634 21.7688H14.2397C14.0884 21.7688 13.9359 21.7688 13.7847 21.7688C13.6058 21.7644 13.4289 21.8075 13.2722 21.8938L9.66719 23.9063C8.52283 23.4787 7.45047 22.8789 6.48719 22.1276L6.47344 18.1026C6.47282 17.916 6.42 17.7332 6.32094 17.5751C6.24344 17.4501 6.16719 17.3251 6.09594 17.1926C6.0076 17.0337 5.87805 16.9016 5.72094 16.8101L2.14594 14.7738C1.96094 13.6036 1.96094 12.4116 2.14594 11.2413L5.71094 9.20633C5.86741 9.11736 5.99697 8.9878 6.08594 8.83133C6.15844 8.70633 6.23469 8.57383 6.31219 8.44883C6.4114 8.2912 6.46424 8.10883 6.46469 7.92258L6.48344 3.89133C7.44335 3.13751 8.51277 2.53473 9.65469 2.10383L13.2522 4.11133C13.4088 4.19812 13.5857 4.24129 13.7647 4.23633C13.9159 4.23633 14.0684 4.23633 14.2197 4.23633C14.3986 4.2408 14.5754 4.19766 14.7322 4.11133L18.3372 2.09883C19.4816 2.52642 20.5539 3.12625 21.5172 3.87758L21.5309 7.90258C21.5316 8.0892 21.5844 8.27192 21.6834 8.43008C21.7609 8.55508 21.8372 8.68008 21.9084 8.81258C21.9968 8.97147 22.1263 9.10361 22.2834 9.19508L25.8584 11.2313C26.0459 12.4025 26.048 13.5958 25.8647 14.7676H25.8697Z" fill="#018536"/>
</svg>
