<svg width="20" height="20" viewBox="0 0 20 20" fill="none" xmlns="http://www.w3.org/2000/svg">
<path d="M4.34961 18.125H15.5353" stroke="#0F9640" stroke-linecap="round" stroke-linejoin="round"/>
<path d="M9.94275 10.625C11.3156 10.625 12.4285 9.50571 12.4285 8.125C12.4285 6.74429 11.3156 5.625 9.94275 5.625C8.56992 5.625 7.45703 6.74429 7.45703 8.125C7.45703 9.50571 8.56992 10.625 9.94275 10.625Z" stroke="#0F9640" stroke-linecap="round" stroke-linejoin="round"/>
<path d="M16.1571 8.125C16.1571 13.75 9.9428 18.125 9.9428 18.125C9.9428 18.125 3.72852 13.75 3.72852 8.125C3.72852 6.4674 4.38323 4.87769 5.54864 3.70558C6.71404 2.53348 8.29467 1.875 9.9428 1.875C11.5909 1.875 13.1716 2.53348 14.337 3.70558C15.5024 4.87769 16.1571 6.4674 16.1571 8.125Z" stroke="#0F9640" stroke-linecap="round" stroke-linejoin="round"/>
</svg>
