<svg width="48" fill="#000000" xmlns="http://www.w3.org/2000/svg" height="48" viewBox="0 0 48 48" xmlns:xlink="http://www.w3.org/1999/xlink" enable-background="new 0 0 16 16">
<path fill="black" d="m39,30c-1.659,0-3,1.341-3,3v6c0,4.968-4.032,9-9,9v-6c1.659,0 3-1.341 3-3v-6c0-4.968 4.032-9 9-9-4.968,0-9-4.029-9-9v-6c0-1.656-1.341-3-3-3v-6c4.968,0 9,4.029 9,9v6c0,1.656 1.341,3 3,3 3.312,0 6,2.688 6,6s-2.688,6-6,6zm-27,9v-6c0-1.659-1.344-3-3-3-3.312,0-6-2.688-6-6s2.688-6 6-6c1.656,0 3-1.344 3-3v-6c0-4.971 4.029-9 9-9v6c-1.656,0-3,1.344-3,3v6c0,4.971-4.029,9-9,9 4.971,0 9,4.032 9,9v6c0,1.659 1.344,3 3,3v6c-4.971,0-9-4.032-9-9z"/>
</svg>
