<svg width="27" height="21" viewBox="0 0 27 21" fill="none" xmlns="http://www.w3.org/2000/svg">
<path d="M18.3521 17.1182C17.4111 17.1182 16.6455 17.8441 16.6455 18.7364C16.6455 19.6286 17.4111 20.3545 18.3521 20.3545C19.2932 20.3545 20.0588 19.6286 20.0588 18.7364C20.0588 17.8441 19.2932 17.1182 18.3521 17.1182ZM18.7151 19.0803C18.6192 19.1708 18.4873 19.2229 18.3518 19.2229C18.2169 19.2229 18.085 19.1708 17.9891 19.0803C17.8936 18.9898 17.8388 18.8643 17.8388 18.7364C17.8388 18.6084 17.8936 18.483 17.9891 18.3924C18.0845 18.302 18.2169 18.2499 18.3518 18.2499C18.4873 18.2499 18.6191 18.302 18.7151 18.3924C18.8105 18.4829 18.8649 18.6084 18.8649 18.7364C18.8649 18.8643 18.8105 18.9898 18.7151 19.0803Z" fill="#018536"/>
<path d="M21.1416 5.09907L16.6613 0L13.3359 3.29731L15.2354 5.09907H21.1416Z" fill="#018536"/>
<path d="M9.19609 0.749023L4.60791 5.09937H13.7843L9.19609 0.749023Z" fill="#018536"/>
<path d="M7.80825 17.1182C6.86718 17.1182 6.10156 17.8441 6.10156 18.7364C6.10156 19.6286 6.86718 20.3545 7.80825 20.3545C8.74926 20.3545 9.51488 19.6286 9.51488 18.7364C9.51493 17.8441 8.74926 17.1182 7.80825 17.1182ZM8.17069 19.0803C8.07531 19.1708 7.94343 19.2229 7.8085 19.2229C7.67301 19.2229 7.54072 19.1708 7.44524 19.0803C7.34981 18.9898 7.29492 18.8643 7.29492 18.7364C7.29492 18.6084 7.34976 18.483 7.44524 18.3924C7.54066 18.302 7.67301 18.2499 7.8085 18.2499C7.94343 18.2499 8.07531 18.302 8.17069 18.3924C8.26663 18.4829 8.32152 18.6084 8.32152 18.7364C8.32157 18.8643 8.26663 18.9898 8.17069 19.0803Z" fill="#018536"/>
<path d="M2.22754 10.9092H23.9334L24.3855 8.76074H1.77539L2.22754 10.9092Z" fill="#018536"/>
<path d="M22.2377 6.0752C22.2375 6.0752 22.2373 6.0752 22.2372 6.0752C22.237 6.0752 22.2368 6.0752 22.2367 6.0752H3.36939C3.36913 6.0752 3.36887 6.0752 3.36862 6.0752H0V7.73535H26.1608V6.0752H22.2377Z" fill="#018536"/>
<path d="M3.79009 18.2822H5.12043C5.35042 17.0615 6.46807 16.1518 7.80913 16.1518C9.15012 16.1518 10.2678 17.0615 10.4978 18.2822H15.6642C15.8942 17.0615 17.0119 16.1518 18.3529 16.1518C19.6939 16.1518 20.8116 17.0615 21.0416 18.2822H22.3719L23.7284 11.8857H2.43359L3.79009 18.2822Z" fill="#018536"/>
</svg>
