<svg width="24" height="18" viewBox="0 0 24 18" fill="none" xmlns="http://www.w3.org/2000/svg">
<path d="M18.2151 6.165C16.8982 4.08893 15.0872 2.33381 12.9271 1.04C11.9536 0.455032 10.8439 0.104894 9.69493 0.0201587C8.54591 -0.0645765 7.39249 0.118667 6.33536 0.553892C5.41069 0.967436 4.60609 1.58818 3.99104 2.36251C3.37599 3.13684 2.96897 4.04149 2.80513 4.99834C2.74654 5.33861 2.69527 5.69278 2.65133 5.97056H1.91892C1.66796 5.9678 1.41893 6.01229 1.18624 6.10144C0.953548 6.1906 0.741829 6.32264 0.563348 6.48994C0.384866 6.65723 0.24317 6.85644 0.146469 7.07602C0.0497675 7.29561 -1.68321e-05 7.53121 4.26896e-09 7.76917V13.7067C4.26896e-09 13.8651 0.0663616 14.017 0.184486 14.129C0.30261 14.241 0.462821 14.3039 0.629873 14.3039H1.89694C1.89694 14.2136 1.89694 14.1233 1.89694 14.0331C1.89507 13.3901 2.05644 12.7561 2.3674 12.1846C2.67837 11.6132 3.12981 11.1211 3.68359 10.75C4.23736 10.3788 4.87722 10.1395 5.5491 10.0522C6.22098 9.96486 6.90515 10.0321 7.54383 10.2483L6.81142 10.9428C6.22655 10.8408 5.62355 10.8887 5.06474 11.0816C4.50594 11.2745 4.01158 11.6053 3.63276 12.04C3.43744 12.2258 3.28089 12.4449 3.17134 12.6858C2.94598 13.0993 2.82088 13.5553 2.80518 14.0205C2.78948 14.4857 2.88357 14.9484 3.08059 15.3747C3.27761 15.801 3.57257 16.1802 3.94394 16.4846C4.31531 16.789 4.75369 17.0109 5.22708 17.1341C5.70046 17.2572 6.19689 17.2786 6.6801 17.1966C7.16331 17.1146 7.62109 16.9313 8.02001 16.66C8.41893 16.3888 8.74891 16.0365 8.98585 15.6288C9.22279 15.2212 9.3607 14.7685 9.38951 14.3039H13.4031C13.4031 14.2136 13.4031 14.1233 13.4031 14.0331C13.4017 13.3909 13.563 12.7578 13.8736 12.1871C14.1842 11.6164 14.6348 11.1249 15.1877 10.7539C15.7405 10.3829 16.3792 10.1433 17.0501 10.0553C17.721 9.96733 18.4044 10.0335 19.0427 10.2483L18.3103 10.9428C17.7254 10.8408 17.1224 10.8887 16.5636 11.0816C16.0048 11.2745 15.5104 11.6053 15.1316 12.04C14.9363 12.2258 14.7797 12.4449 14.6702 12.6858C14.4479 13.0993 14.3255 13.5545 14.3119 14.0184C14.2983 14.4822 14.3939 14.9432 14.5916 15.3677C14.7894 15.7922 15.0843 16.1696 15.4551 16.4725C15.8259 16.7754 16.2632 16.9963 16.7352 17.1189C17.2072 17.2416 17.7021 17.2631 18.184 17.1818C18.6659 17.1005 19.1226 16.9184 19.521 16.6489C19.9194 16.3793 20.2495 16.029 20.4872 15.6234C20.725 15.2178 20.8646 14.767 20.8957 14.3039H22.8073C22.9743 14.3039 23.1345 14.241 23.2527 14.129C23.3708 14.017 23.4372 13.8651 23.4372 13.7067V12.4706C23.4316 11.0182 22.9149 9.60921 21.9689 8.46695C21.0229 7.32468 19.7018 6.51454 18.2151 6.165ZM7.32411 5.97056H4.39447C4.39447 5.7275 4.46771 5.4775 4.51165 5.2275C4.63469 4.4683 4.95941 3.75125 5.45526 3.14382C5.95111 2.5364 6.60179 2.05856 7.34608 1.75528L7.32411 5.97056ZM6.12296 15.9428C5.76081 15.9428 5.4068 15.841 5.10569 15.6502C4.80458 15.4594 4.56989 15.1883 4.43131 14.871C4.29272 14.5538 4.25646 14.2047 4.32711 13.868C4.39776 13.5312 4.57215 13.2219 4.82822 12.9791C5.0843 12.7363 5.41056 12.5709 5.76574 12.5039C6.12093 12.4369 6.48908 12.4713 6.82366 12.6027C7.15824 12.7341 7.4442 12.9566 7.6454 13.2421C7.8466 13.5276 7.95398 13.8633 7.95398 14.2067C7.95398 14.6671 7.76107 15.1087 7.41769 15.4343C7.0743 15.7599 6.60858 15.9428 6.12296 15.9428ZM12.451 9.44278H10.2538V8.05389H12.451V9.44278ZM8.05652 5.97056V1.43584C9.43268 1.25823 10.8311 1.54061 12.0115 2.23445C13.6335 3.20116 15.0293 4.47267 16.113 5.97056H8.05652ZM17.6218 15.9428C17.2597 15.9428 16.9057 15.841 16.6045 15.6502C16.3034 15.4594 16.0687 15.1883 15.9302 14.871C15.7916 14.5538 15.7553 14.2047 15.826 13.868C15.8966 13.5312 16.071 13.2219 16.3271 12.9791C16.5832 12.7363 16.9094 12.5709 17.2646 12.5039C17.6198 12.4369 17.9879 12.4713 18.3225 12.6027C18.6571 12.7341 18.9431 12.9566 19.1443 13.2421C19.3455 13.5276 19.4528 13.8633 19.4528 14.2067C19.4528 14.6671 19.2599 15.1087 18.9165 15.4343C18.5732 15.7599 18.1074 15.9428 17.6218 15.9428Z" fill="#018536"/>
</svg>
