<svg width="24" height="22" viewBox="0 0 24 22" fill="none" xmlns="http://www.w3.org/2000/svg">
<path d="M22.8418 0.601734C22.7274 0.476223 22.5654 0.405933 22.3956 0.405933H13.7446C13.5748 0.405933 13.4128 0.476223 13.2984 0.601734C13.1835 0.726642 13.1266 0.894021 13.1408 1.06362L13.2117 1.8975H22.9285L22.9993 1.06362C23.0136 0.894021 22.957 0.726688 22.8418 0.601734Z" fill="#018536"/>
<path d="M14.5214 17.2928H21.6175L22.8295 3.04527H13.3086L14.5214 17.2928Z" fill="#018536"/>
<path d="M14.5879 20.4649C14.5879 21.2928 15.2589 21.964 16.0868 21.964H20.0503C20.8783 21.964 21.5493 21.2928 21.5493 20.4649V18.5503H14.5879V20.4649Z" fill="#018536"/>
<path d="M12.2367 16.5216H4.59801L1.52686 17.9144C1.52005 17.9174 1.51263 17.919 1.50586 17.922V19.3141C1.50586 20.778 2.69253 21.964 4.15568 21.964H10.0845C11.5477 21.964 12.7343 20.778 12.7343 19.3141V17.0193C12.7344 16.7444 12.5116 16.5216 12.2367 16.5216Z" fill="#018536"/>
<path d="M9.97917 14.0832L6.89453 15.4822H10.8833C11.0102 15.4822 11.1276 15.4155 11.1943 15.3079C11.26 15.1988 11.2652 15.0644 11.2078 14.9509C11.0088 14.5637 10.6584 14.2768 10.2399 14.1573L9.97917 14.0832Z" fill="#018536"/>
<path d="M10.476 12.017C10.5223 11.893 10.5178 11.7563 10.4633 11.636L10.3302 11.3446C10.1344 10.9126 9.70857 10.657 9.26323 10.657C9.10179 10.657 8.93737 10.6913 8.78052 10.7617L0.687509 14.4314C0.0987168 14.6983 -0.162088 15.3925 0.104605 15.9813L0.236932 16.2735C0.29155 16.393 0.39156 16.4873 0.515031 16.5336C0.570901 16.5544 0.630712 16.565 0.689781 16.565C0.760813 16.565 0.831149 16.5501 0.896107 16.5209L10.2152 12.2951C10.3356 12.2405 10.4289 12.141 10.476 12.017Z" fill="#018536"/>
</svg>
