<svg width="41" height="40" viewBox="0 0 41 40" fill="none" xmlns="http://www.w3.org/2000/svg">
<path d="M39.6339 18.2325L22.1339 0.7325C21.6458 0.244375 21.0058 0 20.3664 0C19.727 0 19.087 0.244375 18.5989 0.7325L1.09889 18.2325C0.122644 19.2113 0.171394 20.7425 1.14764 21.7188C2.12639 22.7 3.55702 22.8444 4.53639 21.865L5.39014 21.0106V37.5C5.39014 38.8819 6.50827 40 7.89014 40H17.8901V30H22.8901V40H32.8901C34.272 40 35.3901 38.8819 35.3901 37.5V21.0594L36.137 21.8062C37.1133 22.7825 38.6051 22.695 39.5845 21.7181C40.5614 20.7425 40.6126 19.2088 39.6339 18.2325Z" fill="#CCCCCC"/>
</svg>
