<svg width="28" height="23" viewBox="0 0 28 23" fill="none" xmlns="http://www.w3.org/2000/svg">
<path d="M24.8871 0.568119C24.8871 0.568119 27.3154 -0.378756 27.113 1.9208C27.0456 2.86769 26.4385 6.18175 25.9663 9.76637L24.3474 20.3849C24.3474 20.3849 24.2126 21.9405 22.9984 22.2111C21.7842 22.4816 19.963 21.2642 19.6257 20.9936C19.3559 20.7908 14.5667 17.7472 12.8804 16.2592C12.4082 15.8534 11.8686 15.0418 12.9478 14.0949L20.0304 7.33156C20.8399 6.51994 21.6493 4.62619 18.2766 6.92575L8.83319 13.351C8.83319 13.351 7.75394 14.0273 5.73038 13.4186L1.34589 12.0659C1.34589 12.0659 -0.272993 11.0514 2.49259 10.0369C9.23794 6.85806 17.5347 3.61162 24.8871 0.568119Z" fill="#018536"/>
</svg>
