<svg width="38" height="40" viewBox="0 0 38 40" fill="none" xmlns="http://www.w3.org/2000/svg">
<path d="M25.4176 2.90891C23.6801 1.03303 21.2534 0 18.5748 0C15.882 0 13.4472 1.02678 11.7177 2.89105C9.9695 4.77586 9.11772 7.33746 9.31772 10.1035C9.71415 15.5606 13.8668 19.9999 18.5748 19.9999C23.2828 19.9999 27.4283 15.5615 27.831 10.1053C28.0337 7.36424 27.1765 4.80801 25.4176 2.90891Z" fill="#CCCCCC"/>
<path d="M34.286 39.9982H2.85764C2.44627 40.0036 2.03888 39.9172 1.66511 39.7453C1.29134 39.5734 0.960597 39.3203 0.696935 39.0045C0.116581 38.3107 -0.117346 37.3634 0.0558675 36.4054C0.809434 32.2251 3.16121 28.7135 6.85761 26.2483C10.1415 24.0599 14.3013 22.8555 18.5718 22.8555C22.8423 22.8555 27.0021 24.0608 30.286 26.2483C33.9825 28.7126 36.3342 32.2242 37.0878 36.4045C37.261 37.3625 37.0271 38.3098 36.4467 39.0036C36.1832 39.3196 35.8524 39.5728 35.4787 39.7448C35.1049 39.9169 34.6975 40.0035 34.286 39.9982Z" fill="#CCCCCC"/>
</svg>
