<svg width="20" height="21" viewBox="0 0 20 21" fill="none" xmlns="http://www.w3.org/2000/svg">
<path d="M18.3333 0H1.66667C1.22464 0 0.800716 0.175595 0.488155 0.488155C0.175595 0.800716 0 1.22464 0 1.66667V7.78958C0 17.124 7.89792 20.2208 9.47917 20.7469C9.81689 20.8617 10.1831 20.8617 10.5208 20.7469C12.1042 20.2208 20 17.124 20 7.78958V1.66667C20 1.22464 19.8244 0.800716 19.5118 0.488155C19.1993 0.175595 18.7754 0 18.3333 0ZM18.3333 7.79063C18.3333 15.9594 11.4219 18.6885 10 19.1635C8.59062 18.6938 1.66667 15.9667 1.66667 7.79063V1.66667H18.3333V7.79063ZM5.24375 10.5896C5.08738 10.4332 4.99954 10.2211 4.99954 10C4.99954 9.77886 5.08738 9.56678 5.24375 9.41042C5.40012 9.25405 5.6122 9.1662 5.83333 9.1662C6.05447 9.1662 6.26655 9.25405 6.42292 9.41042L8.33333 11.3208L13.5771 6.07708C13.6545 5.99966 13.7464 5.93824 13.8476 5.89634C13.9487 5.85444 14.0572 5.83287 14.1667 5.83287C14.2762 5.83287 14.3846 5.85444 14.4857 5.89634C14.5869 5.93824 14.6788 5.99966 14.7563 6.07708C14.8337 6.15451 14.8951 6.24643 14.937 6.34759C14.9789 6.44875 15.0005 6.55717 15.0005 6.66667C15.0005 6.77616 14.9789 6.88459 14.937 6.98575C14.8951 7.08691 14.8337 7.17882 14.7563 7.25625L8.92292 13.0896C8.84552 13.1671 8.75362 13.2285 8.65245 13.2705C8.55128 13.3124 8.44285 13.334 8.33333 13.334C8.22382 13.334 8.11538 13.3124 8.01422 13.2705C7.91305 13.2285 7.82114 13.1671 7.74375 13.0896L5.24375 10.5896Z" fill="#018536"/>
</svg>
