<svg width="24" height="26" viewBox="0 0 24 26" fill="none" xmlns="http://www.w3.org/2000/svg">
<path d="M2.52553 24.0791C2.85741 24.08 3.18616 24.015 3.49275 23.8879C3.79934 23.7609 4.07768 23.5743 4.31165 23.3389L24 3.23687L23.1044 2.34634L3.41733 22.4471C3.18009 22.6829 2.85913 22.8151 2.52464 22.8149C2.19016 22.8147 1.86938 22.682 1.63248 22.4458C1.39613 22.2087 1.26342 21.8876 1.26342 21.5528C1.26342 21.218 1.39613 20.8969 1.63248 20.6597L0.738786 19.7667C0.38585 20.1201 0.145588 20.5703 0.0483474 21.0602C-0.0488931 21.5502 0.00125095 22.0579 0.192445 22.5194C0.38364 22.9809 0.707308 23.3753 1.12256 23.6529C1.53782 23.9305 2.02603 24.0788 2.52553 24.0791Z" fill="#068638"/>
<path d="M0.630859 15.2767C0.630859 15.2767 5.04436 15.9399 6.23616 20.5511C10.9655 21.1896 11.3678 25.9739 11.3678 25.9739L22.1394 5.13668L21.2363 4.25372L0.630859 15.2767Z" fill="#018536"/>
<path d="M0.630859 15.2767C0.630859 15.2767 5.04436 15.9399 6.23616 20.5511L21.7201 4.72741L21.2363 4.25372L0.630859 15.2767Z" fill="#018536"/>
<path d="M2.52561 9.24323C2.52561 8.9666 2.61466 8.73923 2.79214 8.55923C2.96898 8.38049 3.19509 8.28954 3.47298 8.28954C3.74962 8.28954 3.97699 8.38049 4.15383 8.55923C4.33131 8.73923 4.42036 8.9666 4.42036 9.24323C4.42036 9.51671 4.3332 9.74029 4.15952 9.91839C3.98646 10.0959 3.7572 10.1843 3.47298 10.1843C3.18814 10.1843 2.95951 10.0959 2.78645 9.91839C2.61214 9.74029 2.52561 9.51608 2.52561 9.24323ZM6.12627 0.771172C5.57868 0.308853 4.81131 0.0789566 3.81972 0.0789566C2.83824 0.0789566 2.06329 0.322116 1.4955 0.807172C0.990862 1.24044 0.630859 1.97371 0.630859 3.23687H2.52561C2.57108 3.00192 2.40687 1.67118 3.82036 1.67118C4.54857 1.67118 5.02478 1.84486 5.02478 2.60529C5.02478 2.85792 4.95468 3.09792 4.81384 3.32593C4.67362 3.5533 4.0332 4.05351 3.61004 4.41667C3.18688 4.77983 2.89572 5.14678 2.73719 5.52131C2.57803 5.89394 2.52561 6.39605 2.52561 7.02637H4.42036L4.44815 6.61395C4.49994 6.17374 4.57636 5.78784 4.93131 5.46068L5.4991 4.94089C5.94311 4.52594 6.50206 4.14951 6.67953 3.80972C6.85764 3.46866 6.94669 3.10803 6.94669 2.72466C6.94669 1.88339 6.67259 1.23223 6.12627 0.771172Z" fill="#018536"/>
</svg>
