<svg width="27" height="18" viewBox="0 0 27 18" fill="none" xmlns="http://www.w3.org/2000/svg">
<path fill-rule="evenodd" clip-rule="evenodd" d="M26.3668 11.644L23.9593 11.6979L24.0337 17.8613H18.7437L18.5248 11.6585L20.8951 11.644L19.8512 6.57633L15.9925 4.65261L17.8748 3.7831C18.0805 2.83473 18.9341 2.43007 18.9341 1.83863C18.9341 1.00855 17.4983 1.00855 17.4983 2.11463L16.5791 1.90711C16.6842 0.732548 17.1219 0 18.5861 0C19.7724 0 20.337 0.622562 20.337 1.78883C20.337 2.7455 19.5885 3.08168 19.4616 3.78933L25.3228 6.57218L26.3668 11.644ZM12.9459 17.8696H2.56073V11.9345L0 11.9926L0.984897 6.53275L6.93149 3.7831C7.13722 2.83473 7.9908 2.43007 7.9908 1.83863C7.9908 1.00855 6.55504 1.00855 6.55504 2.11463L5.6358 1.90711C5.74086 0.732548 6.17859 0 7.6428 0C8.82906 0 9.39373 0.622562 9.39373 1.78883C9.39373 2.7455 8.64521 3.08168 8.51827 3.78933L14.3795 6.57633L15.4235 11.644L12.9788 11.6979L12.9459 17.8696ZM12.3988 3.79763C12.6001 2.83888 13.4625 2.43214 13.4625 1.83863C13.4625 1.00855 12.0267 1.00855 12.0267 2.11463L11.1075 1.90711C11.2125 0.732548 11.6502 0 13.1145 0C14.3007 0 14.8654 0.622562 14.8654 1.78883C14.8654 2.80775 14.0184 3.12318 13.9658 3.93044L12.3988 3.79763Z" fill="#018536"/>
</svg>
