<?xml version="1.0" ?><svg id="Layer_1" style="enable-background:new 0 0 512 512;" version="1.1" viewBox="0 0 512 512" xml:space="preserve" xmlns="http://www.w3.org/2000/svg" xmlns:xlink="http://www.w3.org/1999/xlink"><g id="XMLID_699_"><rect height="15.5" id="XMLID_747_" width="500" x="6" y="410.7"/><g id="XMLID_734_"><path d="M343.5,177.3v225.9h145.7V177.3H343.5z M483,390.9H349.7v-25.3H483V390.9z M483,355.1H349.7v-25.3H483    V355.1z M483,319.3H349.7V294H483V319.3z M483,283.5H349.7v-25.3H483V283.5z M483,247.7H349.7v-25.3H483V247.7z M483,211.9H349.7    v-25.3H483V211.9z" id="XMLID_739_"/><g id="XMLID_735_"><rect height="225.9" id="XMLID_738_" width="14.8" x="370.4" y="177.3"/><rect height="208.6" id="XMLID_737_" width="14.8" x="409.2" y="186.5"/><rect height="208.6" id="XMLID_736_" width="14.8" x="448.1" y="185.9"/></g></g><g id="XMLID_719_"><polygon id="XMLID_733_" points="168.5,174.5 22.8,174.5 44.8,120.2 136.8,120.2   "/><path d="M22.8,177.3v225.9h145.7V177.3H22.8z M162.3,390.9H29v-25.3h133.3V390.9z M162.3,355.1H29v-25.3h133.3    V355.1z M162.3,319.3H29V294h133.3V319.3z M162.3,283.5H29v-25.3h133.3V283.5z M162.3,247.7H29v-25.3h133.3V247.7z M162.3,211.9    H29v-25.3h133.3V211.9z" id="XMLID_725_"/><g id="XMLID_721_"><rect height="225.9" id="XMLID_724_" width="14.8" x="49.7" y="177.3"/><rect height="208.6" id="XMLID_723_" width="14.8" x="88.6" y="186.5"/><rect height="208.6" id="XMLID_722_" width="14.8" x="127.5" y="185.9"/></g><polygon id="XMLID_720_" points="45.2,117.6 90.7,85.7 136.2,117.6   "/></g><rect height="12.1" id="XMLID_718_" width="162" x="175.1" y="221.3"/><polygon id="XMLID_717_" points="337.2,147.3 337.2,219.4 175.1,219.4  "/><rect height="6.6" id="XMLID_716_" width="128.4" x="352.1" y="169.8"/><rect height="6.6" id="XMLID_715_" width="111.1" x="360.8" y="161.5"/><rect height="6.6" id="XMLID_714_" width="93.2" x="369.7" y="153.1"/><rect height="51.9" id="XMLID_713_" width="77.8" x="377.8" y="98.5"/><path d="M175.1,234.8v168.2h87.7v-75.8c0-11.2,9.2-20.4,20.4-20.4h9c11.2,0,20.4,9.2,20.4,20.4v75.8h24.7V234.8   H175.1z M210.6,363.9h-26.6v-19.4h26.6V363.9z M210.6,341.7h-26.6v-20.9h26.6V341.7z M239.5,363.9h-26.6v-19.4h26.6V363.9z    M239.5,341.7h-26.6v-20.9h26.6V341.7z M333.3,291H179v-21.2h154.3V291z M333.3,264.1H179v-21.2h154.3V264.1z" id="XMLID_705_"/><rect height="58.3" id="XMLID_704_" width="4.2" x="199.9" y="237"/><rect height="58.3" id="XMLID_703_" width="4.2" x="226.8" y="237"/><rect height="58.3" id="XMLID_702_" width="4.2" x="253.6" y="237"/><rect height="58.3" id="XMLID_701_" width="4.2" x="280.5" y="237"/><rect height="58.3" id="XMLID_700_" width="4.2" x="307.4" y="237"/></g></svg>