<svg width="27" height="24" viewBox="0 0 27 24" fill="none" xmlns="http://www.w3.org/2000/svg">
<path d="M25.9704 8.55146C25.4236 8.24082 24.4404 6.42675 24.2216 6.21968C24.0028 6.01186 22.7455 5.54536 22.7455 5.54536L22.0351 3.42065C20.6683 3.57617 19.8491 5.64887 19.7943 5.80439C19.7943 5.80439 19.6573 9.40615 13.5904 8.00703C9.24209 7.0041 6.62688 6.03403 4.4304 7.98945C4.29301 7.76592 4.19913 7.53857 4.13058 7.29331C4.00812 6.85083 3.98031 6.34311 3.98072 5.7646C3.98072 5.4811 3.98634 5.18237 3.98675 4.86909C3.98634 4.21303 3.96136 3.48979 3.77839 2.71992C3.59712 1.9497 3.25136 1.13706 2.6441 0.327437C2.38219 -0.0225629 1.8704 -0.105082 1.50091 0.143648C1.13182 0.392379 1.04474 0.877584 1.30707 1.22758C1.7862 1.86943 2.03638 2.46626 2.17903 3.06113C2.32008 3.65522 2.34748 4.25239 2.34712 4.86909C2.34712 5.16323 2.34104 5.46167 2.34104 5.7646C2.34186 6.38208 2.36359 7.02431 2.54332 7.68452C2.68473 8.20869 2.94099 8.73823 3.34195 9.23266C1.64433 11.7677 2.5768 14.4594 2.5768 14.4594L0.821085 17.1079C0.78926 17.1556 0.767888 17.2087 0.757022 17.2637L0.00752505 21.1727C-0.025485 21.3446 0.051916 21.5184 0.204195 21.6163L2.31452 22.9719C2.35963 23.0013 2.41566 23.0097 2.46803 22.9959C2.52087 22.9826 2.56397 22.9474 2.58689 22.9008L3.01566 22.0304C3.04748 21.9651 3.03461 21.8879 2.98301 21.8352L2.43054 21.2762C2.31817 21.1627 2.27744 21.0011 2.32338 20.8514L3.24209 17.8712C3.27191 17.7761 3.33397 17.6932 3.41899 17.6359L4.65406 16.803C4.82168 16.6891 5.04853 16.6945 5.21054 16.8152C5.37255 16.9359 5.43136 17.1434 5.3552 17.3249L4.8104 18.6231C4.74758 18.7721 4.77533 18.9417 4.88255 19.0655L7.98776 22.6478H10.3164C10.4192 22.6478 10.5026 22.5687 10.5026 22.4717V21.3729C10.5026 21.2754 10.4192 21.1963 10.3164 21.1963H9.57981C9.4077 21.1963 9.24976 21.1058 9.16875 20.9618L7.90788 18.9574C7.82327 18.8058 7.83939 18.622 7.94821 18.4856L9.07848 17.0696C9.16633 16.96 9.30337 16.8951 9.44885 16.8951H12.6004C12.7483 16.8951 12.8877 16.9623 12.9751 17.0758C13.0625 17.1893 13.0879 17.3352 13.0436 17.4693L12.0278 20.5044C11.9955 20.6 11.9987 20.7035 12.037 20.7971L12.6886 22.3888H14.711V21.9743L14.3766 20.9774C14.3452 20.8842 14.3476 20.7837 14.3835 20.6917L15.7467 17.1835C15.8144 17.0101 15.9884 16.8951 16.183 16.8951H17.574C17.7002 16.8951 17.821 16.944 17.9089 17.0307L21.7616 22.0778C21.7616 22.0778 23.7292 22.0778 24.3852 22.0778C25.0412 22.0778 24.7874 20.8369 24.1668 20.7818C22.9913 20.6783 21.4887 17.569 20.8328 16.4805C20.1767 15.3924 22.1029 12.0226 23.5656 11.8686C25.0412 11.713 25.8065 11.1426 26.0253 10.3651C26.4624 9.89897 26.5172 8.86245 25.9704 8.55146Z" fill="#018536"/>
</svg>
