<svg width="30" height="23" viewBox="0 0 30 23" fill="none" xmlns="http://www.w3.org/2000/svg">
<path d="M16.006 15.715C17.5736 14.7386 18.7806 13.2783 19.4443 11.5548C20.108 9.83142 20.1924 7.93871 19.6847 6.16307C19.1769 4.38742 18.1047 2.82545 16.6301 1.71347C15.1556 0.60149 13.359 0 11.5122 0C9.66542 0 7.86884 0.60149 6.39432 1.71347C4.91979 2.82545 3.84754 4.38742 3.33979 6.16307C2.83204 7.93871 2.91642 9.83142 3.58015 11.5548C4.24388 13.2783 5.45086 14.7386 7.01848 15.715C4.43723 16.56 2.11473 18.1388 0.247233 20.3612C0.159733 20.4613 0.0930585 20.5778 0.0511084 20.7039C0.00915839 20.8301 -0.00722577 20.9633 0.00291392 21.0958C0.0130536 21.2284 0.0495137 21.3575 0.110162 21.4758C0.170811 21.5941 0.254431 21.6991 0.356134 21.7847C0.457836 21.8703 0.575581 21.9347 0.702482 21.9743C0.829384 22.0138 0.962896 22.0276 1.09521 22.015C1.22753 22.0023 1.356 21.9634 1.4731 21.9005C1.5902 21.8377 1.6936 21.7521 1.77723 21.6487C4.28723 18.6537 7.74473 17.005 11.506 17.005C15.2672 17.005 18.7247 18.6537 21.2397 21.6487C21.4105 21.852 21.6549 21.979 21.9194 22.002C22.1838 22.025 22.4465 21.942 22.6497 21.7712C22.853 21.6005 22.98 21.356 23.003 21.0916C23.026 20.8272 22.943 20.5645 22.7722 20.3612C20.9035 18.1388 18.581 16.56 16.006 15.715ZM5.00598 8.505C5.00598 7.21942 5.3872 5.96271 6.10143 4.89379C6.81566 3.82487 7.83082 2.99175 9.01854 2.49978C10.2063 2.00781 11.5132 1.87909 12.7741 2.12989C14.0349 2.3807 15.1931 2.99976 16.1022 3.9088C17.0112 4.81785 17.6303 5.97604 17.8811 7.23691C18.1319 8.49779 18.0032 9.80472 17.5112 10.9924C17.0192 12.1802 16.1861 13.1953 15.1172 13.9096C14.0483 14.6238 12.7916 15.005 11.506 15.005C9.78268 15.003 8.13054 14.3176 6.91198 13.099C5.69342 11.8804 5.00797 10.2283 5.00598 8.505ZM28.5372 13.8888L27.9547 13.5525C28.0231 13.1907 28.0231 12.8193 27.9547 12.4575L28.5372 12.1212C28.767 11.9886 28.9346 11.7702 29.0033 11.514C29.072 11.2578 29.0361 10.9847 28.9035 10.755C28.7709 10.5253 28.5524 10.3576 28.2962 10.2889C28.04 10.2202 27.767 10.2561 27.5372 10.3887L26.9535 10.7262C26.6741 10.4866 26.3529 10.3005 26.006 10.1775V9.505C26.006 9.23978 25.9006 8.98543 25.7131 8.79789C25.5256 8.61036 25.2712 8.505 25.006 8.505C24.7408 8.505 24.4864 8.61036 24.2989 8.79789C24.1113 8.98543 24.006 9.23978 24.006 9.505V10.1775C23.6591 10.3005 23.3378 10.4866 23.0585 10.7262L22.4747 10.3887C22.361 10.3231 22.2354 10.2805 22.1052 10.2633C21.9749 10.2462 21.8426 10.2549 21.7158 10.2889C21.5889 10.3229 21.47 10.3816 21.3658 10.4616C21.2616 10.5415 21.1741 10.6412 21.1085 10.755C21.0428 10.8688 21.0002 10.9943 20.9831 11.1246C20.966 11.2548 20.9746 11.3871 21.0086 11.514C21.0427 11.6408 21.1013 11.7598 21.1813 11.864C21.2613 11.9682 21.361 12.0556 21.4747 12.1212L22.0572 12.4575C21.9889 12.8193 21.9889 13.1907 22.0572 13.5525L21.4747 13.8888C21.245 14.0214 21.0773 14.2398 21.0086 14.496C20.94 14.7522 20.9759 15.0253 21.1085 15.255C21.2411 15.4847 21.4595 15.6524 21.7158 15.7211C21.972 15.7898 22.245 15.7539 22.4747 15.6212L23.0585 15.2837C23.3378 15.5234 23.6591 15.7095 24.006 15.8325V16.505C24.006 16.7702 24.1113 17.0246 24.2989 17.2121C24.4864 17.3996 24.7408 17.505 25.006 17.505C25.2712 17.505 25.5256 17.3996 25.7131 17.2121C25.9006 17.0246 26.006 16.7702 26.006 16.505V15.8325C26.3529 15.7095 26.6741 15.5234 26.9535 15.2837L27.5372 15.6212C27.6891 15.7094 27.8617 15.7555 28.0372 15.755C28.2574 15.7551 28.4715 15.6825 28.6462 15.5485C28.821 15.4144 28.9466 15.2265 29.0036 15.0138C29.0605 14.8011 29.0457 14.5755 28.9614 14.3721C28.8771 14.1687 28.728 13.9988 28.5372 13.8888ZM24.006 13.005C24.006 12.8072 24.0646 12.6139 24.1745 12.4494C24.2844 12.285 24.4406 12.1568 24.6233 12.0811C24.806 12.0054 25.0071 11.9856 25.2011 12.0242C25.3951 12.0628 25.5732 12.158 25.7131 12.2979C25.8529 12.4377 25.9482 12.6159 25.9868 12.8099C26.0254 13.0039 26.0055 13.205 25.9299 13.3877C25.8542 13.5704 25.726 13.7266 25.5616 13.8365C25.3971 13.9464 25.2038 14.005 25.006 14.005C24.7408 14.005 24.4864 13.8996 24.2989 13.7121C24.1113 13.5246 24.006 13.2702 24.006 13.005Z" fill="#018536"/>
</svg>
