<svg width="20" height="23" viewBox="0 0 20 23" fill="none" xmlns="http://www.w3.org/2000/svg">
<path d="M10 11.5C13.1562 11.5 15.7143 8.92598 15.7143 5.75C15.7143 2.57402 13.1562 0 10 0C6.84375 0 4.28571 2.57402 4.28571 5.75C4.28571 8.92598 6.84375 11.5 10 11.5ZM14 12.9375H13.2545C12.2634 13.3957 11.1607 13.6562 10 13.6562C8.83929 13.6562 7.74107 13.3957 6.74554 12.9375H6C2.6875 12.9375 0 15.6418 0 18.975V20.8438C0 22.0342 0.959821 23 2.14286 23H17.8571C19.0402 23 20 22.0342 20 20.8438V18.975C20 15.6418 17.3125 12.9375 14 12.9375Z" fill="white"/>
</svg>
