<svg width="24" height="22" viewBox="0 0 24 22" fill="none" xmlns="http://www.w3.org/2000/svg">
<path d="M24.0006 11.0006C24.0006 11.2658 23.8952 11.5201 23.7077 11.7077C23.5201 11.8952 23.2658 12.0006 23.0006 12.0006H12.0006C11.7353 12.0006 11.481 11.8952 11.2934 11.7077C11.1059 11.5201 11.0006 11.2658 11.0006 11.0006C11.0006 10.7353 11.1059 10.481 11.2934 10.2934C11.481 10.1059 11.7353 10.0006 12.0006 10.0006H23.0006C23.2658 10.0006 23.5201 10.1059 23.7077 10.2934C23.8952 10.481 24.0006 10.7353 24.0006 11.0006ZM12.0006 4.00056H23.0006C23.2658 4.00056 23.5201 3.8952 23.7077 3.70766C23.8952 3.52013 24.0006 3.26577 24.0006 3.00056C24.0006 2.73534 23.8952 2.48099 23.7077 2.29345C23.5201 2.10591 23.2658 2.00056 23.0006 2.00056H12.0006C11.7353 2.00056 11.481 2.10591 11.2934 2.29345C11.1059 2.48099 11.0006 2.73534 11.0006 3.00056C11.0006 3.26577 11.1059 3.52013 11.2934 3.70766C11.481 3.8952 11.7353 4.00056 12.0006 4.00056ZM23.0006 18.0006H12.0006C11.7353 18.0006 11.481 18.1059 11.2934 18.2934C11.1059 18.481 11.0006 18.7353 11.0006 19.0006C11.0006 19.2658 11.1059 19.5201 11.2934 19.7077C11.481 19.8952 11.7353 20.0006 12.0006 20.0006H23.0006C23.2658 20.0006 23.5201 19.8952 23.7077 19.7077C23.8952 19.5201 24.0006 19.2658 24.0006 19.0006C24.0006 18.7353 23.8952 18.481 23.7077 18.2934C23.5201 18.1059 23.2658 18.0006 23.0006 18.0006ZM6.29306 0.293056L3.00056 3.58681L1.70806 2.29306C1.52042 2.10542 1.26592 2 1.00056 2C0.735192 2 0.480697 2.10542 0.293056 2.29306C0.105415 2.4807 1.97712e-09 2.73519 0 3.00056C-1.97712e-09 3.26592 0.105415 3.52042 0.293056 3.70806L2.29306 5.70806C2.38593 5.80103 2.49622 5.87479 2.61762 5.92512C2.73901 5.97544 2.86914 6.00134 3.00056 6.00134C3.13197 6.00134 3.2621 5.97544 3.3835 5.92512C3.50489 5.87479 3.61518 5.80103 3.70806 5.70806L7.70806 1.70806C7.8957 1.52042 8.00111 1.26592 8.00111 1.00056C8.00111 0.735192 7.8957 0.480697 7.70806 0.293056C7.52042 0.105415 7.26592 0 7.00056 0C6.73519 0 6.4807 0.105415 6.29306 0.293056ZM6.29306 8.29306L3.00056 11.5868L1.70806 10.2931C1.52042 10.1054 1.26592 10 1.00056 10C0.735192 10 0.480697 10.1054 0.293056 10.2931C0.105415 10.4807 0 10.7352 0 11.0006C0 11.132 0.0258802 11.2621 0.0761628 11.3835C0.126445 11.5048 0.200146 11.6151 0.293056 11.7081L2.29306 13.7081C2.38593 13.801 2.49622 13.8748 2.61762 13.9251C2.73901 13.9754 2.86914 14.0013 3.00056 14.0013C3.13197 14.0013 3.2621 13.9754 3.3835 13.9251C3.50489 13.8748 3.61518 13.801 3.70806 13.7081L7.70806 9.70806C7.8957 9.52042 8.00111 9.26592 8.00111 9.00056C8.00111 8.73519 7.8957 8.4807 7.70806 8.29306C7.52042 8.10541 7.26592 8 7.00056 8C6.73519 8 6.4807 8.10541 6.29306 8.29306ZM6.29306 16.2931L3.00056 19.5868L1.70806 18.2931C1.61515 18.2001 1.50485 18.1264 1.38345 18.0762C1.26206 18.0259 1.13195 18 1.00056 18C0.869161 18 0.739053 18.0259 0.61766 18.0762C0.496267 18.1264 0.385966 18.2001 0.293056 18.2931C0.200146 18.386 0.126445 18.4963 0.0761628 18.6177C0.0258802 18.7391 0 18.8692 0 19.0006C0 19.132 0.0258802 19.2621 0.0761628 19.3835C0.126445 19.5048 0.200146 19.6151 0.293056 19.7081L2.29306 21.7081C2.38593 21.801 2.49622 21.8748 2.61762 21.9251C2.73901 21.9754 2.86914 22.0013 3.00056 22.0013C3.13197 22.0013 3.2621 21.9754 3.3835 21.9251C3.50489 21.8748 3.61518 21.801 3.70806 21.7081L7.70806 17.7081C7.8957 17.5204 8.00111 17.2659 8.00111 17.0006C8.00111 16.7352 7.8957 16.4807 7.70806 16.2931C7.52042 16.1054 7.26592 16 7.00056 16C6.73519 16 6.4807 16.1054 6.29306 16.2931Z" fill="#018536"/>
</svg>
