<svg width="238" height="282" viewBox="0 0 238 282" fill="none" xmlns="http://www.w3.org/2000/svg">
<path d="M0 277V5C0 2.23858 2.23858 0 5 0H107.5C142.068 1.2296 158.266 6.53419 180.5 25C200.428 43.1058 206.5 59.5 202 89.5C197.516 112.916 169.878 137.37 119.045 148.877C118.687 148.958 118.315 149 117.947 149H77.2926C72.0391 149 70.3902 142.043 75.0847 139.684C111.385 121.45 152.098 98.8335 147 64C141 34.5 139 21 104.5 16.5L54.0327 11.0928C51.0774 10.7761 48.5 13.0921 48.5 16.0643V149V277C48.5 279.761 46.2614 282 43.5 282H5C2.23858 282 0 279.761 0 277Z" fill="url(#paint0_linear_226_4305)"/>
<path d="M153.915 167H90.7349C86.6644 167 84.2997 171.604 86.6709 174.913L161.923 279.913C162.862 281.223 164.375 282 165.987 282H228.328C232.387 282 234.754 277.42 232.408 274.109L157.995 169.109C157.057 167.786 155.536 167 153.915 167Z" fill="url(#paint1_linear_226_4305)"/>
<defs>
<linearGradient id="paint0_linear_226_4305" x1="93.5" y1="1.30811e-05" x2="178.121" y2="62.5865" gradientUnits="userSpaceOnUse">
<stop stop-color="#023315"/>
<stop offset="0.899827" stop-color="#078B3A"/>
</linearGradient>
<linearGradient id="paint1_linear_226_4305" x1="114" y1="155.5" x2="165.5" y2="311" gradientUnits="userSpaceOnUse">
<stop offset="0.123414" stop-color="#0F812A"/>
<stop offset="0.692588" stop-color="#095B20"/>
<stop offset="1" stop-color="#023315"/>
</linearGradient>
</defs>
</svg>
