<svg width="24" height="21" viewBox="0 0 24 21" fill="none" xmlns="http://www.w3.org/2000/svg">
<path d="M24 10.1031C24 10.3949 23.8946 10.6747 23.7071 10.8809C23.5196 11.0872 23.2652 11.2031 23 11.2031H1C0.734784 11.2031 0.48043 11.0872 0.292893 10.8809C0.105357 10.6747 0 10.3949 0 10.1031C0 9.81139 0.105357 9.5316 0.292893 9.32531C0.48043 9.11902 0.734784 9.00312 1 9.00312H23C23.2652 9.00312 23.5196 9.11902 23.7071 9.32531C23.8946 9.5316 24 9.81139 24 10.1031ZM1 2.40312H23C23.2652 2.40312 23.5196 2.28723 23.7071 2.08094C23.8946 1.87465 24 1.59486 24 1.30312C24 1.01139 23.8946 0.731598 23.7071 0.525308C23.5196 0.319018 23.2652 0.203125 23 0.203125H1C0.734784 0.203125 0.48043 0.319018 0.292893 0.525308C0.105357 0.731598 0 1.01139 0 1.30312C0 1.59486 0.105357 1.87465 0.292893 2.08094C0.48043 2.28723 0.734784 2.40312 1 2.40312ZM23 17.8031H1C0.734784 17.8031 0.48043 17.919 0.292893 18.1253C0.105357 18.3316 0 18.6114 0 18.9031C0 19.1949 0.105357 19.4747 0.292893 19.6809C0.48043 19.8872 0.734784 20.0031 1 20.0031H23C23.2652 20.0031 23.5196 19.8872 23.7071 19.6809C23.8946 19.4747 24 19.1949 24 18.9031C24 18.6114 23.8946 18.3316 23.7071 18.1253C23.5196 17.919 23.2652 17.8031 23 17.8031Z" fill="white"/>
</svg>
