<svg width="20" height="19" viewBox="0 0 20 19" fill="none" xmlns="http://www.w3.org/2000/svg">
<path d="M9.99992 1.4289C8.30473 1.4289 6.64761 1.93158 5.23812 2.87338C3.82862 3.81517 2.73005 5.15378 2.08133 6.71993C1.43261 8.28608 1.26288 10.0094 1.59359 11.672C1.9243 13.3347 2.74061 14.8619 3.93929 16.0605C5.13797 17.2592 6.66518 18.0755 8.3278 18.4062C9.99041 18.737 11.7138 18.5672 13.2799 17.9185C14.8461 17.2698 16.1847 16.1712 17.1265 14.7617C18.0683 13.3522 18.5709 11.6951 18.5709 9.99992C18.5683 7.72754 17.6645 5.54898 16.0577 3.94216C14.4509 2.33535 12.2723 1.4315 9.99992 1.4289ZM9.99992 17.1424C8.58726 17.1424 7.20633 16.7235 6.03175 15.9387C4.85717 15.1539 3.94169 14.0384 3.40109 12.7332C2.86049 11.4281 2.71905 9.99199 2.99464 8.60648C3.27024 7.22097 3.9505 5.9483 4.9494 4.9494C5.9483 3.9505 7.22097 3.27024 8.60648 2.99464C9.99199 2.71905 11.4281 2.86049 12.7332 3.40109C14.0384 3.94169 15.1539 4.85717 15.9387 6.03175C16.7235 7.20633 17.1424 8.58726 17.1424 9.99992C17.1403 11.8936 16.3871 13.7091 15.0481 15.0481C13.7091 16.3871 11.8936 17.1403 9.99992 17.1424ZM4.07699 1.21998L1.21998 4.07699C1.15362 4.14335 1.07484 4.19599 0.988133 4.2319C0.901428 4.26782 0.808498 4.2863 0.714649 4.2863C0.6208 4.2863 0.52787 4.26782 0.441164 4.2319C0.354459 4.19599 0.275677 4.14335 0.209316 4.07699C0.0752931 3.94296 0 3.76119 0 3.57165C0 3.38212 0.0752931 3.20034 0.209316 3.06632L3.06632 0.209316C3.13268 0.142955 3.21146 0.0903138 3.29817 0.0543993C3.38488 0.0184849 3.47781 0 3.57165 0C3.6655 0 3.75843 0.0184849 3.84514 0.0543993C3.93184 0.0903138 4.01063 0.142955 4.07699 0.209316C4.14335 0.275677 4.19599 0.354459 4.2319 0.441164C4.26782 0.52787 4.2863 0.6208 4.2863 0.714649C4.2863 0.808498 4.26782 0.901428 4.2319 0.988133C4.19599 1.07484 4.14335 1.15362 4.07699 1.21998ZM19.7905 4.07699C19.7242 4.1434 19.6454 4.19608 19.5587 4.23202C19.472 4.26797 19.3791 4.28647 19.2852 4.28647C19.1913 4.28647 19.0984 4.26797 19.0117 4.23202C18.925 4.19608 18.8462 4.1434 18.7799 4.07699L15.9228 1.21998C15.7888 1.08596 15.7135 0.904185 15.7135 0.714649C15.7135 0.525112 15.7888 0.343338 15.9228 0.209316C16.0569 0.0752931 16.2386 3.99419e-09 16.4282 0C16.6177 -3.99418e-09 16.7995 0.0752932 16.9335 0.209316L19.7905 3.06632C19.8569 3.13266 19.9096 3.21143 19.9456 3.29814C19.9815 3.38485 20 3.47779 20 3.57165C20 3.66552 19.9815 3.75846 19.9456 3.84517C19.9096 3.93188 19.8569 4.01065 19.7905 4.07699ZM14.9997 9.28567C15.1891 9.28567 15.3708 9.36092 15.5047 9.49487C15.6387 9.62881 15.7139 9.81049 15.7139 9.99992C15.7139 10.1893 15.6387 10.371 15.5047 10.505C15.3708 10.6389 15.1891 10.7142 14.9997 10.7142H9.99992C9.81049 10.7142 9.62881 10.6389 9.49487 10.505C9.36092 10.371 9.28567 10.1893 9.28567 9.99992V5.00016C9.28567 4.81073 9.36092 4.62905 9.49487 4.49511C9.62881 4.36116 9.81049 4.28591 9.99992 4.28591C10.1893 4.28591 10.371 4.36116 10.505 4.49511C10.6389 4.62905 10.7142 4.81073 10.7142 5.00016V9.28567H14.9997Z" fill="#018536"/>
</svg>
