<svg width="15" height="15" viewBox="0 0 15 15" fill="none" xmlns="http://www.w3.org/2000/svg">
<path d="M14.6484 3.70243L11.2968 0.351555C11.1854 0.2401 11.0531 0.151688 10.9075 0.0913673C10.7619 0.0310468 10.6058 0 10.4482 0C10.2906 0 10.1346 0.0310468 9.98897 0.0913673C9.84336 0.151688 9.71107 0.2401 9.59964 0.351555L0.351743 9.59945C0.239831 9.71047 0.151105 9.84263 0.0907219 9.98825C0.0303385 10.1339 -0.00049756 10.29 6.07098e-06 10.4477V13.7993C6.07098e-06 14.1175 0.126429 14.4228 0.351464 14.6478C0.576499 14.8728 0.881712 14.9992 1.19996 14.9992H13.7995C13.9586 14.9992 14.1112 14.936 14.2237 14.8235C14.3362 14.711 14.3995 14.5584 14.3995 14.3993C14.3995 14.2401 14.3362 14.0875 14.2237 13.975C14.1112 13.8625 13.9586 13.7993 13.7995 13.7993H6.24877L14.6484 5.39961C14.7599 5.28818 14.8483 5.15589 14.9086 5.01028C14.969 4.86468 15 4.70862 15 4.55102C15 4.39342 14.969 4.23736 14.9086 4.09175C14.8483 3.94615 14.7599 3.81386 14.6484 3.70243ZM4.55158 13.7993H1.19996V10.4477L7.79971 3.84792L11.1513 7.19954L4.55158 13.7993ZM11.9995 6.35133L8.64868 2.9997L10.4486 1.19977L13.7995 4.55139L11.9995 6.35133Z" fill="#1C376D"/>
</svg>
