<svg width="23" height="20" viewBox="0 0 23 20" fill="none" xmlns="http://www.w3.org/2000/svg">
<path d="M22.7306 8.29132C22.4948 8.04695 22.1441 7.94439 21.8144 8.02682L21.0755 8.20795H21.0746C18.994 8.71777 16.8042 8.53282 14.8444 7.70675C14.8205 7.24388 14.7495 6.78194 14.6221 6.32482L13.1175 0.950473C13.0274 0.627483 12.7744 0.376414 12.4524 0.285357C12.1285 0.195288 11.7844 0.279607 11.5391 0.508664L10.6775 1.31461C8.49925 3.35205 5.31086 4.16761 2.35342 3.44405L1.18616 3.15848C0.859355 3.07605 0.506717 3.17766 0.269034 3.42298C0.0323399 3.66736 -0.0558422 4.01905 0.0352149 4.34779L1.54078 9.72214C2.35346 12.625 5.0991 14.5464 8.08812 14.5464C8.18013 14.5464 8.27406 14.533 8.36794 14.5292C8.96976 16.7956 10.7724 18.5801 13.175 19.1962C13.7557 19.3448 14.3384 19.4157 14.9134 19.4157C17.9005 19.4157 20.6462 17.4942 21.4598 14.5914L22.9644 9.21609C23.0564 8.88838 22.9673 8.53664 22.7306 8.29132ZM6.70812 8.87495H5.7498C5.21985 8.87495 4.79147 8.44563 4.79147 7.91663C4.79147 7.38763 5.21985 6.95831 5.7498 6.95831H6.70812C7.23806 6.95831 7.66644 7.38763 7.66644 7.91663C7.66644 8.44563 7.23806 8.87495 6.70812 8.87495ZM9.58313 7.91663C9.33781 7.91663 9.09245 7.82368 8.90557 7.63582C8.53182 7.26207 8.53182 6.65544 8.90557 6.28075L9.86389 5.32242C10.2386 4.94867 10.8452 4.94867 11.219 5.32242C11.5937 5.69712 11.5937 6.30375 11.219 6.6775L10.2606 7.63582C10.0738 7.82364 9.82845 7.91663 9.58313 7.91663ZM19.614 14.0739C18.9221 16.5407 16.2474 18.005 13.6503 17.339C11.9924 16.9135 10.7312 15.7223 10.2626 14.1995C10.2914 14.1899 10.3172 14.1765 10.346 14.1659C10.5693 14.0902 10.7878 14.0049 10.9986 13.9081C11.0188 13.8995 11.0398 13.8918 11.0599 13.8832C11.3043 13.7682 11.5401 13.6388 11.7672 13.4979C11.7873 13.4855 11.8055 13.4711 11.8256 13.4586C12.0211 13.3341 12.209 13.1989 12.3891 13.0552C12.4371 13.0178 12.4821 12.9785 12.5281 12.9402C12.6747 12.8165 12.8165 12.6872 12.9517 12.552C13.0044 12.4994 13.0571 12.4466 13.1079 12.392C13.2295 12.2626 13.3436 12.1265 13.4538 11.9866C13.5036 11.9253 13.5554 11.8649 13.6024 11.8017C13.7423 11.6119 13.8735 11.4145 13.9934 11.2085C14.0154 11.1702 14.0336 11.1308 14.0547 11.0925C14.1591 10.9047 14.2531 10.714 14.3374 10.5195C14.3623 10.46 14.3843 10.3987 14.4083 10.3383C14.4831 10.1505 14.5482 9.96076 14.6038 9.76908C14.6115 9.74226 14.623 9.71733 14.6306 9.69051C16.5617 10.3958 18.6528 10.5894 20.6863 10.2435L19.614 14.0739Z" fill="#018536"/>
</svg>
