<svg width="20" height="25" viewBox="0 0 20 25" fill="none" xmlns="http://www.w3.org/2000/svg">
<path d="M18.1651 7.24771H1.83486C1.59021 7.24771 1.37615 7.33945 1.19266 7.52294C1.00917 7.70642 0.917431 7.92049 0.917431 8.16514L2.07951 23.6086C2.0999 23.8736 2.22222 24.0928 2.44648 24.2661C2.67074 24.4393 2.97655 24.526 3.36391 24.526H16.6361C17.0031 24.526 17.2987 24.4393 17.5229 24.2661C17.7472 24.0928 17.8797 23.8736 17.9205 23.6086L19.0826 8.16514C19.0826 7.92049 18.9908 7.70642 18.8073 7.52294C18.6239 7.33945 18.4098 7.24771 18.1651 7.24771ZM5.22936 22.6911C5.02548 22.6911 4.842 22.5994 4.6789 22.4159C4.5158 22.2324 4.43425 22.0183 4.43425 21.7737L3.63914 9.96942C3.63914 9.72477 3.73089 9.5158 3.91437 9.34251C4.09786 9.16921 4.31193 9.08257 4.55657 9.08257C4.80122 9.08257 5.01529 9.16921 5.19878 9.34251C5.38226 9.5158 5.47401 9.72477 5.47401 9.96942L6.02447 21.7737C6.02447 22.0183 5.94801 22.2324 5.79511 22.4159C5.6422 22.5994 5.45362 22.6911 5.22936 22.6911ZM10.7951 21.7431C10.7951 22.0082 10.7187 22.2324 10.5657 22.4159C10.4128 22.5994 10.2243 22.6911 10 22.6911C9.77574 22.6911 9.58716 22.5994 9.43425 22.4159C9.28135 22.2324 9.20489 22.0082 9.20489 21.7431L9.08257 9.96942C9.08257 9.72477 9.17431 9.5158 9.3578 9.34251C9.54128 9.16921 9.75535 9.08257 10 9.08257C10.2446 9.08257 10.4587 9.16921 10.6422 9.34251C10.8257 9.5158 10.9174 9.72477 10.9174 9.96942L10.7951 21.7431ZM15.5657 21.7737C15.5657 22.0183 15.4842 22.2324 15.3211 22.4159C15.158 22.5994 14.9745 22.6911 14.7706 22.6911C14.5464 22.6911 14.3578 22.5994 14.2049 22.4159C14.052 22.2324 13.9755 22.0183 13.9755 21.7737L14.526 9.96942C14.526 9.72477 14.6177 9.5158 14.8012 9.34251C14.9847 9.16921 15.1988 9.08257 15.4434 9.08257C15.6881 9.08257 15.9021 9.16921 16.0856 9.34251C16.2691 9.5158 16.3609 9.72477 16.3609 9.96942L15.5657 21.7737ZM18.6544 3.27217L13.1804 2.35474C12.9358 2.31397 12.7829 2.16106 12.7217 1.89602L12.4771 0.88685C12.3955 0.479103 12.2528 0.214067 12.0489 0.0917431C11.9266 0.030581 11.7023 0 11.3761 0H8.62385C8.29766 0 8.0632 0.030581 7.92049 0.0917431C7.71662 0.214067 7.5841 0.479103 7.52294 0.88685L7.27829 1.89602C7.23751 2.16106 7.08461 2.31397 6.81957 2.35474L1.34557 3.27217C0.958206 3.33333 0.637105 3.48114 0.382263 3.7156C0.127421 3.95005 0 4.24057 0 4.58716V5.44342C0 5.62691 0.0662589 5.77982 0.198777 5.90214C0.331295 6.02446 0.489297 6.08563 0.672783 6.08563H19.3272C19.5107 6.08563 19.6687 6.02446 19.8012 5.90214C19.9337 5.77982 20 5.62691 20 5.44342V4.58716C20 4.24057 19.8726 3.95005 19.6177 3.7156C19.3629 3.48114 19.0418 3.33333 18.6544 3.27217Z" fill="#068638"/>
</svg>
