<svg width="28" height="28" version="1.1" id="Capa_1" xmlns="http://www.w3.org/2000/svg" xmlns:xlink="http://www.w3.org/1999/xlink" x="0px" y="0px"
	 viewBox="0 0 490 490" style="enable-background:new 0 0 490 490;" xml:space="preserve">
<g>
	<path fill="#018536" d="M490,268.656l-87.933-99.281h-81.483v-39.274h-97.209c-18.689-39.949-59.262-67.695-106.199-67.695
		C52.567,62.406,0,114.973,0,179.583c0,44.856,25.342,83.9,62.456,103.586v92.515h44.57c1.194,28.824,25.007,51.909,54.119,51.909
		c29.112,0,52.925-23.085,54.119-51.909h121.927c1.194,28.824,25.008,51.909,54.12,51.909c29.111,0,52.925-23.085,54.119-51.909H490
		V268.656z M20.417,179.583c0-53.355,43.405-96.761,96.76-96.761c53.354,0,96.76,43.406,96.76,96.761
		c0,53.354-43.406,96.76-96.76,96.76C63.821,276.343,20.417,232.937,20.417,179.583z M161.145,407.177
		c-18.617,0-33.76-15.143-33.76-33.76c0-18.617,15.143-33.76,33.76-33.76c18.617,0,33.76,15.143,33.76,33.76
		C194.905,392.034,179.762,407.177,161.145,407.177z M300.168,355.268h-87.984c-7.48-20.972-27.531-36.027-51.039-36.027
		c-23.508,0-43.559,15.056-51.039,36.027H82.872v-63.636c10.855,3.33,22.373,5.128,34.304,5.128
		c64.61,0,117.176-52.567,117.176-117.176c0-10.029-1.269-19.768-3.65-29.065h69.465V355.268z M391.311,407.177
		c-18.618,0-33.761-15.143-33.761-33.76c0-18.617,15.143-33.76,33.761-33.76c18.617,0,33.76,15.143,33.76,33.76
		C425.071,392.034,409.928,407.177,391.311,407.177z M469.583,355.268H442.35c-7.48-20.972-27.532-36.027-51.039-36.027
		c-23.508,0-43.56,15.056-51.04,36.027h-19.686V189.792h72.291l76.707,86.611V355.268z"/>
	<polygon fill="#018536" points="162.969,194.442 127.385,173.716 127.385,105.553 106.968,105.553 106.968,185.45 152.691,212.087 	"/>
</g>
</svg>
